Workaround Round Semibold Italic.ufo
<glyph name="!" format="1">
  <advance width="435"/>
  <unicode hex="0021"/>
  <outline>
    <contour>
      <point x="1" y="83" type="curve" smooth="yes"/>
      <point x="-6" y="34"/>
      <point x="32" y="-5"/>
      <point x="84" y="-5" type="curve" smooth="yes"/>
      <point x="137" y="-5"/>
      <point x="184" y="34"/>
      <point x="191" y="83" type="curve" smooth="yes"/>
      <point x="197" y="131"/>
      <point x="160" y="170"/>
      <point x="107" y="170" type="curve" smooth="yes"/>
      <point x="55" y="170"/>
      <point x="7" y="131"/>
    </contour>
    <contour>
      <point x="299" y="917" type="line" smooth="yes"/>
      <point x="306" y="966"/>
      <point x="268" y="1005"/>
      <point x="216" y="1005" type="curve" smooth="yes"/>
      <point x="163" y="1005"/>
      <point x="116" y="966"/>
      <point x="109" y="917" type="curve" smooth="yes"/>
      <point x="42" y="398" type="line" smooth="yes"/>
      <point x="35" y="350"/>
      <point x="73" y="310"/>
      <point x="125" y="310" type="curve" smooth="yes"/>
      <point x="178" y="310"/>
      <point x="225" y="350"/>
      <point x="232" y="398" type="curve" smooth="yes"/>
    </contour>
  </outline>
</glyph>
<glyph name="exclam" format="1">
  <advance width="449"/>
  <unicode hex="0021"/>
  <outline>
    <contour>
      <point x="207" y="107" type="line" smooth="yes"/>
      <point x="213" y="155"/>
      <point x="173" y="194"/>
      <point x="117" y="194" type="curve" smooth="yes"/>
      <point x="61" y="194"/>
      <point x="10" y="155"/>
      <point x="4" y="107" type="curve" smooth="yes"/>
      <point x="1" y="82" type="line" smooth="yes"/>
      <point x="-6" y="34"/>
      <point x="35" y="-5"/>
      <point x="91" y="-5" type="curve" smooth="yes"/>
      <point x="147" y="-5"/>
      <point x="198" y="34"/>
      <point x="204" y="82" type="curve" smooth="yes"/>
    </contour>
    <contour>
      <point x="313" y="918" type="line" smooth="yes"/>
      <point x="319" y="966"/>
      <point x="278" y="1005"/>
      <point x="222" y="1005" type="curve" smooth="yes"/>
      <point x="166" y="1005"/>
      <point x="116" y="966"/>
      <point x="109" y="918" type="curve" smooth="yes"/>
      <point x="55" y="400" type="line" smooth="yes"/>
      <point x="50" y="358"/>
      <point x="85" y="324"/>
      <point x="134" y="324" type="curve" smooth="yes"/>
      <point x="183" y="324"/>
      <point x="227" y="358"/>
      <point x="232" y="400" type="curve" smooth="yes"/>
    </contour>
  </outline>
</glyph>
<glyph name="quotedbl" format="1">
  <advance width="621"/>
  <unicode hex="0022"/>
  <outline>
    <contour>
      <point x="188" y="913" type="line" smooth="yes"/>
      <point x="198" y="945"/>
      <point x="185" y="975"/>
      <point x="156" y="992" type="curve" smooth="yes"/>
      <point x="126" y="1010"/>
      <point x="88" y="1010"/>
      <point x="54" y="992" type="curve" smooth="yes"/>
      <point x="19" y="975"/>
      <point x="-1" y="945"/>
      <point x="0" y="913" type="curve" smooth="yes"/>
      <point x="5" y="716" type="line" smooth="yes"/>
      <point x="5" y="688"/>
      <point x="30" y="668"/>
      <point x="62" y="668" type="curve" smooth="yes"/>
      <point x="95" y="668"/>
      <point x="125" y="688"/>
      <point x="133" y="716" type="curve" smooth="yes"/>
    </contour>
    <contour>
      <point x="483" y="913" type="line" smooth="yes"/>
      <point x="492" y="945"/>
      <point x="480" y="975"/>
      <point x="450" y="992" type="curve" smooth="yes"/>
      <point x="420" y="1010"/>
      <point x="382" y="1010"/>
      <point x="348" y="992" type="curve" smooth="yes"/>
      <point x="314" y="975"/>
      <point x="294" y="945"/>
      <point x="295" y="913" type="curve" smooth="yes"/>
      <point x="299" y="716" type="line" smooth="yes"/>
      <point x="300" y="688"/>
      <point x="324" y="668"/>
      <point x="357" y="668" type="curve" smooth="yes"/>
      <point x="390" y="668"/>
      <point x="419" y="688"/>
      <point x="427" y="716" type="curve" smooth="yes"/>
    </contour>
  </outline>
</glyph>
<glyph name="numbersign" format="1">
  <advance width="1127"/>
  <unicode hex="0023"/>
  <outline>
    <contour>
      <point x="616" y="612" type="line"/>
      <point x="542" y="388" type="line"/>
      <point x="375" y="388" type="line"/>
      <point x="449" y="612" type="line"/>
    </contour>
    <contour>
      <point x="806" y="612" type="line"/>
      <point x="869" y="612" type="line" smooth="yes"/>
      <point x="918" y="612"/>
      <point x="971" y="651"/>
      <point x="987" y="700" type="curve" smooth="yes"/>
      <point x="1003" y="749"/>
      <point x="976" y="788"/>
      <point x="927" y="788" type="curve" smooth="yes"/>
      <point x="864" y="788" type="line"/>
      <point x="909" y="923" type="line" smooth="yes"/>
      <point x="924" y="969"/>
      <point x="893" y="1005"/>
      <point x="841" y="1005" type="curve" smooth="yes"/>
      <point x="788" y="1005"/>
      <point x="734" y="969"/>
      <point x="719" y="923" type="curve" smooth="yes"/>
      <point x="674" y="788" type="line"/>
      <point x="507" y="788" type="line"/>
      <point x="552" y="923" type="line" smooth="yes"/>
      <point x="567" y="969"/>
      <point x="536" y="1005"/>
      <point x="484" y="1005" type="curve" smooth="yes"/>
      <point x="431" y="1005"/>
      <point x="377" y="969"/>
      <point x="362" y="923" type="curve" smooth="yes"/>
      <point x="317" y="788" type="line"/>
      <point x="254" y="788" type="line" smooth="yes"/>
      <point x="205" y="788"/>
      <point x="153" y="749"/>
      <point x="137" y="700" type="curve" smooth="yes"/>
      <point x="121" y="651"/>
      <point x="147" y="612"/>
      <point x="196" y="612" type="curve" smooth="yes"/>
      <point x="259" y="612" type="line"/>
      <point x="185" y="388" type="line"/>
      <point x="122" y="388" type="line" smooth="yes"/>
      <point x="73" y="388"/>
      <point x="21" y="349"/>
      <point x="5" y="300" type="curve" smooth="yes"/>
      <point x="-11" y="251"/>
      <point x="15" y="212"/>
      <point x="64" y="212" type="curve" smooth="yes"/>
      <point x="127" y="212" type="line"/>
      <point x="82" y="77" type="line" smooth="yes"/>
      <point x="68" y="31"/>
      <point x="98" y="-5"/>
      <point x="150" y="-5" type="curve" smooth="yes"/>
      <point x="203" y="-5"/>
      <point x="258" y="31"/>
      <point x="272" y="77" type="curve" smooth="yes"/>
      <point x="317" y="212" type="line"/>
      <point x="484" y="212" type="line"/>
      <point x="439" y="77" type="line" smooth="yes"/>
      <point x="425" y="31"/>
      <point x="455" y="-5"/>
      <point x="507" y="-5" type="curve" smooth="yes"/>
      <point x="560" y="-5"/>
      <point x="615" y="31"/>
      <point x="629" y="77" type="curve" smooth="yes"/>
      <point x="674" y="212" type="line"/>
      <point x="737" y="212" type="line" smooth="yes"/>
      <point x="786" y="212"/>
      <point x="839" y="251"/>
      <point x="855" y="300" type="curve" smooth="yes"/>
      <point x="871" y="349"/>
      <point x="844" y="388"/>
      <point x="795" y="388" type="curve" smooth="yes"/>
      <point x="732" y="388" type="line"/>
    </contour>
  </outline>
</glyph>
<glyph name="dollar" format="1">
  <advance width="825"/>
  <unicode hex="0024"/>
  <outline>
    <contour>
      <point x="376" y="5" type="line"/>
      <point x="537" y="40"/>
      <point x="668" y="165"/>
      <point x="688" y="314" type="curve" smooth="yes"/>
      <point x="708" y="474"/>
      <point x="597" y="559"/>
      <point x="456" y="614" type="curve"/>
      <point x="482" y="818" type="line"/>
      <point x="494" y="814"/>
      <point x="506" y="808"/>
      <point x="516" y="801" type="curve"/>
      <point x="544" y="768"/>
      <point x="599" y="768"/>
      <point x="640" y="802" type="curve" smooth="yes"/>
      <point x="681" y="835"/>
      <point x="692" y="890"/>
      <point x="666" y="925" type="curve"/>
      <point x="622" y="964"/>
      <point x="568" y="989"/>
      <point x="506" y="999" type="curve"/>
      <point x="514" y="1060" type="line" smooth="yes"/>
      <point x="518" y="1092"/>
      <point x="491" y="1117"/>
      <point x="455" y="1117" type="curve" smooth="yes"/>
      <point x="418" y="1117"/>
      <point x="385" y="1092"/>
      <point x="381" y="1060" type="curve" smooth="yes"/>
      <point x="373" y="1000" type="line"/>
      <point x="228" y="976"/>
      <point x="106" y="865"/>
      <point x="89" y="731" type="curve" smooth="yes"/>
      <point x="71" y="592"/>
      <point x="179" y="520"/>
      <point x="304" y="473" type="curve"/>
      <point x="265" y="173" type="line"/>
      <point x="226" y="179"/>
      <point x="192" y="192"/>
      <point x="164" y="212" type="curve"/>
      <point x="136" y="245"/>
      <point x="81" y="246"/>
      <point x="40" y="212" type="curve" smooth="yes"/>
      <point x="-1" y="178"/>
      <point x="-12" y="123"/>
      <point x="14" y="89" type="curve"/>
      <point x="75" y="34"/>
      <point x="151" y="3"/>
      <point x="242" y="-4" type="curve"/>
      <point x="235" y="-60" type="line" smooth="yes"/>
      <point x="231" y="-92"/>
      <point x="257" y="-117"/>
      <point x="294" y="-117" type="curve" smooth="yes"/>
      <point x="331" y="-117"/>
      <point x="364" y="-92"/>
      <point x="368" y="-60" type="curve" smooth="yes"/>
    </contour>
    <contour>
      <point x="349" y="816" type="curve"/>
      <point x="329" y="665" type="line"/>
      <point x="301" y="682"/>
      <point x="280" y="704"/>
      <point x="283" y="731" type="curve" smooth="yes"/>
      <point x="287" y="767"/>
      <point x="313" y="799"/>
    </contour>
    <contour>
      <point x="401" y="193" type="curve"/>
      <point x="430" y="418" type="line"/>
      <point x="469" y="393"/>
      <point x="498" y="359"/>
      <point x="492" y="314" type="curve" smooth="yes"/>
      <point x="486" y="263"/>
      <point x="450" y="219"/>
    </contour>
  </outline>
</glyph>
<glyph name="percent" format="1">
  <advance width="1099"/>
  <unicode hex="0025"/>
  <outline>
    <contour>
      <point x="170" y="780" type="curve" smooth="yes"/>
      <point x="176" y="827"/>
      <point x="221" y="865"/>
      <point x="269" y="865" type="curve" smooth="yes"/>
      <point x="318" y="865"/>
      <point x="353" y="827"/>
      <point x="347" y="780" type="curve" smooth="yes"/>
      <point x="341" y="734"/>
      <point x="296" y="696"/>
      <point x="247" y="696" type="curve" smooth="yes"/>
      <point x="199" y="696"/>
      <point x="164" y="734"/>
    </contour>
    <contour>
      <point x="15" y="780" type="curve" smooth="yes"/>
      <point x="-1" y="656"/>
      <point x="95" y="555"/>
      <point x="229" y="555" type="curve" smooth="yes"/>
      <point x="364" y="555"/>
      <point x="486" y="656"/>
      <point x="502" y="780" type="curve" smooth="yes"/>
      <point x="518" y="905"/>
      <point x="422" y="1005"/>
      <point x="288" y="1005" type="curve" smooth="yes"/>
      <point x="153" y="1005"/>
      <point x="31" y="905"/>
    </contour>
    <contour>
      <point x="617" y="220" type="curve" smooth="yes"/>
      <point x="623" y="266"/>
      <point x="667" y="304"/>
      <point x="716" y="304" type="curve" smooth="yes"/>
      <point x="765" y="304"/>
      <point x="800" y="266"/>
      <point x="794" y="220" type="curve" smooth="yes"/>
      <point x="787" y="173"/>
      <point x="743" y="135"/>
      <point x="694" y="135" type="curve" smooth="yes"/>
      <point x="645" y="135"/>
      <point x="611" y="173"/>
    </contour>
    <contour>
      <point x="462" y="220" type="curve" smooth="yes"/>
      <point x="446" y="95"/>
      <point x="542" y="-5"/>
      <point x="676" y="-5" type="curve" smooth="yes"/>
      <point x="810" y="-5"/>
      <point x="932" y="95"/>
      <point x="948" y="220" type="curve" smooth="yes"/>
      <point x="964" y="344"/>
      <point x="869" y="445"/>
      <point x="734" y="445" type="curve" smooth="yes"/>
      <point x="600" y="445"/>
      <point x="478" y="344"/>
    </contour>
    <contour>
      <point x="944" y="905" type="line" smooth="yes"/>
      <point x="971" y="934"/>
      <point x="969" y="978"/>
      <point x="941" y="1002" type="curve" smooth="yes"/>
      <point x="913" y="1027"/>
      <point x="869" y="1024"/>
      <point x="842" y="995" type="curve" smooth="yes"/>
      <point x="19" y="95" type="line" smooth="yes"/>
      <point x="1" y="75"/>
      <point x="-4" y="51"/>
      <point x="3" y="27" type="curve" smooth="yes"/>
      <point x="11" y="3"/>
      <point x="29" y="-13"/>
      <point x="54" y="-18" type="curve" smooth="yes"/>
      <point x="80" y="-22"/>
      <point x="104" y="-14"/>
      <point x="122" y="5" type="curve" smooth="yes"/>
    </contour>
  </outline>
</glyph>
<glyph name="ampersand" format="1">
  <advance width="946"/>
  <unicode hex="0026"/>
  <outline>
    <contour>
      <point x="338" y="624" type="curve"/>
      <point x="328" y="640"/>
      <point x="318" y="657"/>
      <point x="308" y="674" type="curve" smooth="yes"/>
      <point x="298" y="691"/>
      <point x="294" y="710"/>
      <point x="297" y="731" type="curve" smooth="yes"/>
      <point x="304" y="786"/>
      <point x="353" y="830"/>
      <point x="406" y="830" type="curve" smooth="yes"/>
      <point x="459" y="830"/>
      <point x="496" y="786"/>
      <point x="489" y="731" type="curve" smooth="yes"/>
      <point x="479" y="658"/>
      <point x="383" y="645"/>
      <point x="339" y="624" type="curve"/>
      <point x="339" y="624"/>
      <point x="339" y="624"/>
    </contour>
    <contour>
      <point x="568" y="360" type="curve"/>
      <point x="525" y="401"/>
      <point x="483" y="443"/>
      <point x="443" y="488" type="curve"/>
      <point x="545" y="537"/>
      <point x="662" y="603"/>
      <point x="679" y="731" type="curve" smooth="yes"/>
      <point x="698" y="883"/>
      <point x="586" y="1005"/>
      <point x="429" y="1005" type="curve" smooth="yes"/>
      <point x="271" y="1005"/>
      <point x="127" y="883"/>
      <point x="107" y="731" type="curve" smooth="yes"/>
      <point x="99" y="671"/>
      <point x="110" y="619"/>
      <point x="141" y="570" type="curve" smooth="yes"/>
      <point x="149" y="558"/>
      <point x="156" y="546"/>
      <point x="164" y="535" type="curve"/>
      <point x="84" y="484"/>
      <point x="16" y="416"/>
      <point x="3" y="314" type="curve" smooth="yes"/>
      <point x="-20" y="138"/>
      <point x="112" y="-5"/>
      <point x="297" y="-5" type="curve" smooth="yes"/>
      <point x="393" y="-5"/>
      <point x="486" y="32"/>
      <point x="569" y="101" type="curve"/>
      <point x="598" y="75"/>
      <point x="627" y="47"/>
      <point x="656" y="19" type="curve" smooth="yes"/>
      <point x="687" y="-11"/>
      <point x="743" y="-5"/>
      <point x="780" y="33" type="curve" smooth="yes"/>
      <point x="817" y="70"/>
      <point x="821" y="125"/>
      <point x="790" y="155" type="curve" smooth="yes"/>
      <point x="759" y="186"/>
      <point x="727" y="214"/>
      <point x="696" y="243" type="curve"/>
      <point x="726" y="287"/>
      <point x="754" y="337"/>
      <point x="779" y="391" type="curve"/>
      <point x="802" y="433"/>
      <point x="785" y="483"/>
      <point x="741" y="504" type="curve" smooth="yes"/>
      <point x="697" y="524"/>
      <point x="642" y="506"/>
      <point x="618" y="465" type="curve"/>
      <point x="603" y="427"/>
      <point x="586" y="392"/>
    </contour>
    <contour>
      <point x="260" y="408" type="curve"/>
      <point x="318" y="339"/>
      <point x="381" y="277"/>
      <point x="446" y="215" type="curve"/>
      <point x="405" y="186"/>
      <point x="363" y="170"/>
      <point x="320" y="170" type="curve" smooth="yes"/>
      <point x="239" y="170"/>
      <point x="182" y="235"/>
      <point x="193" y="314" type="curve" smooth="yes"/>
      <point x="198" y="358"/>
      <point x="226" y="387"/>
    </contour>
  </outline>
</glyph>
<glyph name="quotesingle" format="1">
  <advance width="327"/>
  <unicode hex="0027"/>
  <outline>
    <contour>
      <point x="188" y="913" type="line" smooth="yes"/>
      <point x="198" y="945"/>
      <point x="185" y="975"/>
      <point x="156" y="992" type="curve" smooth="yes"/>
      <point x="126" y="1010"/>
      <point x="88" y="1010"/>
      <point x="54" y="992" type="curve" smooth="yes"/>
      <point x="19" y="975"/>
      <point x="-1" y="945"/>
      <point x="0" y="913" type="curve" smooth="yes"/>
      <point x="5" y="716" type="line" smooth="yes"/>
      <point x="5" y="688"/>
      <point x="30" y="668"/>
      <point x="62" y="668" type="curve" smooth="yes"/>
      <point x="95" y="668"/>
      <point x="125" y="688"/>
      <point x="133" y="716" type="curve" smooth="yes"/>
    </contour>
  </outline>
</glyph>
<glyph name="parenleft" format="1">
  <advance width="525"/>
  <unicode hex="0028"/>
  <outline>
    <contour>
      <point x="381" y="967" type="curve" smooth="yes"/>
      <point x="403" y="1010"/>
      <point x="383" y="1059"/>
      <point x="338" y="1077" type="curve" smooth="yes"/>
      <point x="293" y="1095"/>
      <point x="238" y="1075"/>
      <point x="217" y="1033" type="curve" smooth="yes"/>
      <point x="1" y="607"/>
      <point x="-53" y="193"/>
      <point x="52" y="-233" type="curve" smooth="yes"/>
      <point x="63" y="-275"/>
      <point x="112" y="-295"/>
      <point x="162" y="-277" type="curve" smooth="yes"/>
      <point x="212" y="-259"/>
      <point x="244" y="-210"/>
      <point x="234" y="-167" type="curve" smooth="yes"/>
      <point x="139" y="214"/>
      <point x="187" y="586"/>
    </contour>
  </outline>
</glyph>
<glyph name="parenright" format="1">
  <advance width="525"/>
  <unicode hex="0029"/>
  <outline>
    <contour>
      <point x="156" y="967" type="curve" smooth="yes"/>
      <point x="251" y="586"/>
      <point x="203" y="214"/>
      <point x="9" y="-167" type="curve" smooth="yes"/>
      <point x="-13" y="-210"/>
      <point x="7" y="-259"/>
      <point x="52" y="-277" type="curve" smooth="yes"/>
      <point x="97" y="-295"/>
      <point x="152" y="-275"/>
      <point x="173" y="-233" type="curve" smooth="yes"/>
      <point x="389" y="193"/>
      <point x="443" y="607"/>
      <point x="338" y="1033" type="curve" smooth="yes"/>
      <point x="327" y="1075"/>
      <point x="278" y="1095"/>
      <point x="228" y="1077" type="curve" smooth="yes"/>
      <point x="178" y="1059"/>
      <point x="146" y="1010"/>
    </contour>
  </outline>
</glyph>
<glyph name="asterisk" format="1">
  <advance width="637"/>
  <unicode hex="002A"/>
  <outline>
    <contour>
      <point x="348" y="975" type="line"/>
      <point x="353" y="1009"/>
      <point x="324" y="1037"/>
      <point x="285" y="1037" type="curve" smooth="yes"/>
      <point x="246" y="1037"/>
      <point x="210" y="1009"/>
      <point x="206" y="975" type="curve"/>
      <point x="208" y="871" type="line"/>
      <point x="132" y="933" type="line"/>
      <point x="103" y="951"/>
      <point x="62" y="939"/>
      <point x="40" y="907" type="curve" smooth="yes"/>
      <point x="17" y="875"/>
      <point x="22" y="835"/>
      <point x="50" y="818" type="curve"/>
      <point x="141" y="775" type="line"/>
      <point x="39" y="733" type="line"/>
      <point x="6" y="715"/>
      <point x="-9" y="675"/>
      <point x="5" y="643" type="curve" smooth="yes"/>
      <point x="20" y="611"/>
      <point x="58" y="600"/>
      <point x="91" y="618" type="curve"/>
      <point x="184" y="680" type="line"/>
      <point x="154" y="575" type="line"/>
      <point x="149" y="541"/>
      <point x="178" y="514"/>
      <point x="217" y="514" type="curve" smooth="yes"/>
      <point x="256" y="514"/>
      <point x="292" y="541"/>
      <point x="296" y="575" type="curve"/>
      <point x="294" y="680" type="line"/>
      <point x="370" y="618" type="line"/>
      <point x="389" y="606"/>
      <point x="413" y="606"/>
      <point x="435" y="619" type="curve"/>
      <point x="458" y="631"/>
      <point x="472" y="652"/>
      <point x="476" y="676" type="curve" smooth="yes"/>
      <point x="480" y="701"/>
      <point x="471" y="721"/>
      <point x="452" y="733" type="curve"/>
      <point x="361" y="775" type="line"/>
      <point x="463" y="818" type="line"/>
      <point x="496" y="835"/>
      <point x="511" y="875"/>
      <point x="497" y="907" type="curve" smooth="yes"/>
      <point x="483" y="939"/>
      <point x="444" y="951"/>
      <point x="411" y="933" type="curve"/>
      <point x="318" y="871" type="line"/>
    </contour>
  </outline>
</glyph>
<glyph name="plus" format="1">
  <advance width="837"/>
  <unicode hex="002B"/>
  <outline>
    <contour>
      <point x="244" y="422" type="line"/>
      <point x="222" y="249" type="line" smooth="yes"/>
      <point x="216" y="203"/>
      <point x="254" y="167"/>
      <point x="306" y="167" type="curve" smooth="yes"/>
      <point x="359" y="167"/>
      <point x="406" y="203"/>
      <point x="412" y="249" type="curve" smooth="yes"/>
      <point x="434" y="422" type="line"/>
      <point x="601" y="422" type="line" smooth="yes"/>
      <point x="650" y="422"/>
      <point x="694" y="461"/>
      <point x="701" y="510" type="curve" smooth="yes"/>
      <point x="707" y="559"/>
      <point x="672" y="598"/>
      <point x="624" y="598" type="curve" smooth="yes"/>
      <point x="457" y="598" type="line"/>
      <point x="480" y="771" type="line" smooth="yes"/>
      <point x="486" y="817"/>
      <point x="448" y="853"/>
      <point x="395" y="853" type="curve" smooth="yes"/>
      <point x="343" y="853"/>
      <point x="296" y="817"/>
      <point x="290" y="771" type="curve" smooth="yes"/>
      <point x="267" y="598" type="line"/>
      <point x="101" y="598" type="line" smooth="yes"/>
      <point x="52" y="598"/>
      <point x="7" y="559"/>
      <point x="1" y="510" type="curve" smooth="yes"/>
      <point x="-6" y="461"/>
      <point x="29" y="422"/>
      <point x="78" y="422" type="curve" smooth="yes"/>
    </contour>
  </outline>
</glyph>
<glyph name="comma" format="1">
  <advance width="368"/>
  <unicode hex="002C"/>
  <outline>
    <contour>
      <point x="232" y="114" type="curve" smooth="yes"/>
      <point x="239" y="164"/>
      <point x="197" y="204"/>
      <point x="140" y="204" type="curve" smooth="yes"/>
      <point x="82" y="204"/>
      <point x="30" y="164"/>
      <point x="23" y="114" type="curve" smooth="yes"/>
      <point x="20" y="85" type="line"/>
      <point x="15" y="53"/>
      <point x="32" y="24"/>
      <point x="59" y="8" type="curve" smooth="yes"/>
      <point x="68" y="3"/>
      <point x="73" y="-7"/>
      <point x="71" y="-18" type="curve"/>
      <point x="70" y="-29"/>
      <point x="62" y="-38"/>
      <point x="52" y="-43" type="curve" smooth="yes"/>
      <point x="21" y="-59" type="line" smooth="yes"/>
      <point x="4" y="-67"/>
      <point x="-4" y="-86"/>
      <point x="2" y="-102" type="curve" smooth="yes"/>
      <point x="8" y="-118"/>
      <point x="26" y="-124"/>
      <point x="42" y="-116" type="curve" smooth="yes"/>
      <point x="137" y="-71"/>
      <point x="219" y="7"/>
    </contour>
  </outline>
</glyph>
<glyph name="hyphen" format="1">
  <advance width="587"/>
  <unicode hex="002D"/>
  <outline>
    <contour>
      <point x="351" y="422" type="line" smooth="yes"/>
      <point x="400" y="422"/>
      <point x="444" y="461"/>
      <point x="451" y="510" type="curve" smooth="yes"/>
      <point x="457" y="559"/>
      <point x="422" y="598"/>
      <point x="374" y="598" type="curve" smooth="yes"/>
      <point x="101" y="598" type="line" smooth="yes"/>
      <point x="52" y="598"/>
      <point x="7" y="559"/>
      <point x="1" y="510" type="curve" smooth="yes"/>
      <point x="-6" y="461"/>
      <point x="29" y="422"/>
      <point x="78" y="422" type="curve" smooth="yes"/>
    </contour>
  </outline>
</glyph>
<glyph name="period" format="1">
  <advance width="350"/>
  <unicode hex="002E"/>
  <outline>
    <contour>
      <point x="213" y="114" type="line" smooth="yes"/>
      <point x="220" y="164"/>
      <point x="178" y="204"/>
      <point x="121" y="204" type="curve" smooth="yes"/>
      <point x="63" y="204"/>
      <point x="11" y="164"/>
      <point x="4" y="114" type="curve" smooth="yes"/>
      <point x="1" y="85" type="line" smooth="yes"/>
      <point x="-6" y="35"/>
      <point x="36" y="-5"/>
      <point x="93" y="-5" type="curve" smooth="yes"/>
      <point x="151" y="-5"/>
      <point x="203" y="35"/>
      <point x="210" y="85" type="curve" smooth="yes"/>
    </contour>
  </outline>
</glyph>
<glyph name="slash" format="1">
  <advance width="789"/>
  <unicode hex="002F"/>
  <outline>
    <contour>
      <point x="646" y="988" type="line" smooth="yes"/>
      <point x="666" y="1031"/>
      <point x="644" y="1079"/>
      <point x="597" y="1095" type="curve" smooth="yes"/>
      <point x="551" y="1111"/>
      <point x="497" y="1089"/>
      <point x="477" y="1045" type="curve" smooth="yes"/>
      <point x="7" y="12" type="line" smooth="yes"/>
      <point x="-12" y="-31"/>
      <point x="9" y="-79"/>
      <point x="56" y="-95" type="curve" smooth="yes"/>
      <point x="103" y="-111"/>
      <point x="157" y="-89"/>
      <point x="176" y="-45" type="curve" smooth="yes"/>
    </contour>
  </outline>
</glyph>
<glyph name="Digit_Zero" format="1">
  <advance width="901"/>
  <unicode hex="0030"/>
  <outline>
    <contour>
      <point x="208" y="472" type="curve" smooth="yes"/>
      <point x="215" y="528" type="line" smooth="yes"/>
      <point x="235" y="678"/>
      <point x="324" y="824"/>
      <point x="412" y="824" type="curve" smooth="yes"/>
      <point x="438" y="824" type="line" smooth="yes"/>
      <point x="544" y="824"/>
      <point x="579" y="693"/>
      <point x="557" y="528" type="curve" smooth="yes"/>
      <point x="550" y="472" type="line" smooth="yes"/>
      <point x="531" y="322"/>
      <point x="442" y="176"/>
      <point x="354" y="176" type="curve" smooth="yes"/>
      <point x="328" y="176" type="line" smooth="yes"/>
      <point x="221" y="176"/>
      <point x="187" y="307"/>
    </contour>
    <contour>
      <point x="5" y="472" type="line" smooth="yes"/>
      <point x="-29" y="212"/>
      <point x="105" y="0"/>
      <point x="305" y="0" type="curve" smooth="yes"/>
      <point x="331" y="0" type="line" smooth="yes"/>
      <point x="530" y="0"/>
      <point x="719" y="212"/>
      <point x="753" y="472" type="curve" smooth="yes"/>
      <point x="760" y="528" type="line" smooth="yes"/>
      <point x="794" y="788"/>
      <point x="660" y="1000"/>
      <point x="461" y="1000" type="curve" smooth="yes"/>
      <point x="435" y="1000" type="line" smooth="yes"/>
      <point x="235" y="1000"/>
      <point x="46" y="788"/>
      <point x="12" y="528" type="curve" smooth="yes"/>
    </contour>
  </outline>
</glyph>
<glyph name="zero" format="1">
  <advance width="901"/>
  <unicode hex="0030"/>
  <outline>
    <contour>
      <point x="200" y="472" type="curve" smooth="yes"/>
      <point x="207" y="528" type="line" smooth="yes"/>
      <point x="227" y="678"/>
      <point x="319" y="824"/>
      <point x="412" y="824" type="curve" smooth="yes"/>
      <point x="438" y="824" type="line" smooth="yes"/>
      <point x="549" y="824"/>
      <point x="587" y="693"/>
      <point x="565" y="528" type="curve" smooth="yes"/>
      <point x="558" y="472" type="line" smooth="yes"/>
      <point x="538" y="322"/>
      <point x="446" y="176"/>
      <point x="354" y="176" type="curve" smooth="yes"/>
      <point x="328" y="176" type="line" smooth="yes"/>
      <point x="216" y="176"/>
      <point x="179" y="307"/>
    </contour>
    <contour>
      <point x="5" y="472" type="line" smooth="yes"/>
      <point x="-29" y="212"/>
      <point x="105" y="0"/>
      <point x="305" y="0" type="curve" smooth="yes"/>
      <point x="331" y="0" type="line" smooth="yes"/>
      <point x="530" y="0"/>
      <point x="719" y="212"/>
      <point x="753" y="472" type="curve" smooth="yes"/>
      <point x="760" y="528" type="line" smooth="yes"/>
      <point x="794" y="788"/>
      <point x="660" y="1000"/>
      <point x="461" y="1000" type="curve" smooth="yes"/>
      <point x="435" y="1000" type="line" smooth="yes"/>
      <point x="235" y="1000"/>
      <point x="46" y="788"/>
      <point x="12" y="528" type="curve" smooth="yes"/>
    </contour>
  </outline>
</glyph>
<glyph name="Digit_One" format="1">
  <advance width="405"/>
  <unicode hex="0031"/>
  <outline>
    <contour>
      <point x="404" y="909" type="line" smooth="yes"/>
      <point x="409" y="949"/>
      <point x="389" y="983"/>
      <point x="350" y="998" type="curve" smooth="yes"/>
      <point x="311" y="1013"/>
      <point x="266" y="1005"/>
      <point x="232" y="975" type="curve" smooth="yes"/>
      <point x="34" y="792" type="line" smooth="yes"/>
      <point x="-5" y="756"/>
      <point x="-11" y="699"/>
      <point x="20" y="665" type="curve"/>
      <point x="20" y="665" type="line"/>
      <point x="52" y="631"/>
      <point x="109" y="632"/>
      <point x="148" y="668" type="curve" smooth="yes"/>
      <point x="187" y="705" type="line"/>
      <point x="107" y="83" type="line" smooth="yes"/>
      <point x="100" y="34"/>
      <point x="138" y="-5"/>
      <point x="190" y="-5" type="curve" smooth="yes"/>
      <point x="243" y="-5"/>
      <point x="290" y="34"/>
      <point x="297" y="83" type="curve" smooth="yes"/>
    </contour>
  </outline>
</glyph>
<glyph name="one" format="1">
  <advance width="568"/>
  <unicode hex="0031"/>
  <outline>
    <contour>
      <point x="432" y="915" type="line" smooth="yes"/>
      <point x="437" y="952"/>
      <point x="417" y="983"/>
      <point x="380" y="998" type="curve" smooth="yes"/>
      <point x="342" y="1013"/>
      <point x="298" y="1006"/>
      <point x="264" y="981" type="curve"/>
      <point x="33" y="785" type="line" smooth="yes"/>
      <point x="-4" y="753"/>
      <point x="-11" y="698"/>
      <point x="18" y="662" type="curve" smooth="yes"/>
      <point x="48" y="626"/>
      <point x="102" y="623"/>
      <point x="140" y="655" type="curve" smooth="yes"/>
      <point x="217" y="720" type="line"/>
      <point x="133" y="77" type="line" smooth="yes"/>
      <point x="127" y="31"/>
      <point x="165" y="-5"/>
      <point x="217" y="-5" type="curve" smooth="yes"/>
      <point x="270" y="-5"/>
      <point x="317" y="31"/>
      <point x="323" y="77" type="curve" smooth="yes"/>
    </contour>
  </outline>
</glyph>
<glyph name="Digit_Two" format="1">
  <advance width="760"/>
  <unicode hex="0032"/>
  <outline>
    <contour>
      <point x="274" y="176" type="line"/>
      <point x="698" y="597" type="line"/>
      <point x="731" y="636"/>
      <point x="752" y="681"/>
      <point x="758" y="729" type="curve"/>
      <point x="758" y="729" type="line"/>
      <point x="778" y="879"/>
      <point x="642" y="1000"/>
      <point x="455" y="1000" type="curve"/>
      <point x="455" y="1000" type="line"/>
      <point x="326" y="1000"/>
      <point x="211" y="961"/>
      <point x="126" y="888" type="curve"/>
      <point x="130" y="890" type="line"/>
      <point x="96" y="850"/>
      <point x="98" y="794"/>
      <point x="135" y="765" type="curve"/>
      <point x="135" y="765" type="line"/>
      <point x="171" y="735"/>
      <point x="229" y="744"/>
      <point x="263" y="783" type="curve"/>
      <point x="267" y="785" type="line"/>
      <point x="308" y="811"/>
      <point x="366" y="824"/>
      <point x="432" y="824" type="curve"/>
      <point x="432" y="824" type="line"/>
      <point x="514" y="824"/>
      <point x="575" y="782"/>
      <point x="568" y="729" type="curve"/>
      <point x="568" y="729" type="line"/>
      <point x="566" y="712"/>
      <point x="557" y="697"/>
      <point x="543" y="683" type="curve" smooth="yes"/>
      <point x="36" y="179" type="line" smooth="yes"/>
      <point x="17" y="160"/>
      <point x="4" y="136"/>
      <point x="1" y="110" type="curve"/>
      <point x="1" y="110" type="line"/>
      <point x="-7" y="49"/>
      <point x="40" y="0"/>
      <point x="105" y="0" type="curve" smooth="yes"/>
      <point x="568" y="0" type="line" smooth="yes"/>
      <point x="621" y="0"/>
      <point x="669" y="39"/>
      <point x="675" y="88" type="curve"/>
      <point x="675" y="88" type="line"/>
      <point x="681" y="136"/>
      <point x="644" y="176"/>
      <point x="591" y="176" type="curve" smooth="yes"/>
    </contour>
  </outline>
</glyph>
<glyph name="two" format="1">
  <advance width="897"/>
  <unicode hex="0032"/>
  <outline>
    <contour>
      <point x="287" y="176" type="line"/>
      <point x="702" y="600" type="line"/>
      <point x="733" y="638"/>
      <point x="754" y="682"/>
      <point x="760" y="729" type="curve" smooth="yes"/>
      <point x="779" y="879"/>
      <point x="644" y="1000"/>
      <point x="457" y="1000" type="curve" smooth="yes"/>
      <point x="323" y="1000"/>
      <point x="201" y="954"/>
      <point x="123" y="876" type="curve" smooth="yes"/>
      <point x="90" y="840"/>
      <point x="91" y="786"/>
      <point x="127" y="755" type="curve" smooth="yes"/>
      <point x="162" y="724"/>
      <point x="217" y="728"/>
      <point x="251" y="764" type="curve" smooth="yes"/>
      <point x="285" y="801"/>
      <point x="355" y="824"/>
      <point x="434" y="824" type="curve" smooth="yes"/>
      <point x="516" y="824"/>
      <point x="577" y="782"/>
      <point x="570" y="729" type="curve" smooth="yes"/>
      <point x="568" y="713"/>
      <point x="559" y="697"/>
      <point x="546" y="684" type="curve" smooth="yes"/>
      <point x="32" y="159" type="line" smooth="yes"/>
      <point x="15" y="142"/>
      <point x="4" y="120"/>
      <point x="1" y="97" type="curve" smooth="yes"/>
      <point x="-6" y="43"/>
      <point x="32" y="0"/>
      <point x="86" y="0" type="curve" smooth="yes"/>
      <point x="577" y="0" type="line" smooth="yes"/>
      <point x="625" y="0"/>
      <point x="670" y="39"/>
      <point x="677" y="88" type="curve" smooth="yes"/>
      <point x="683" y="136"/>
      <point x="648" y="176"/>
      <point x="599" y="176" type="curve" smooth="yes"/>
    </contour>
  </outline>
</glyph>
<glyph name="3" format="1">
  <advance width="799"/>
  <unicode hex="0033"/>
  <outline>
    <contour>
      <point x="507" y="548" type="curve"/>
      <point x="588" y="580"/>
      <point x="651" y="650"/>
      <point x="661" y="731" type="curve"/>
      <point x="661" y="731" type="line"/>
      <point x="681" y="883"/>
      <point x="559" y="1005"/>
      <point x="390" y="1005" type="curve"/>
      <point x="390" y="1005" type="line"/>
      <point x="305" y="1005"/>
      <point x="229" y="979"/>
      <point x="163" y="925" type="curve"/>
      <point x="163" y="924" type="line"/>
      <point x="125" y="888"/>
      <point x="120" y="831"/>
      <point x="152" y="797" type="curve"/>
      <point x="152" y="797" type="line"/>
      <point x="184" y="763"/>
      <point x="241" y="765"/>
      <point x="280" y="802" type="curve"/>
      <point x="281" y="801" type="line"/>
      <point x="306" y="820"/>
      <point x="335" y="830"/>
      <point x="367" y="830" type="curve"/>
      <point x="367" y="830" type="line"/>
      <point x="427" y="830"/>
      <point x="469" y="786"/>
      <point x="462" y="731" type="curve"/>
      <point x="462" y="731" type="line"/>
      <point x="455" y="677"/>
      <point x="401" y="633"/>
      <point x="342" y="633" type="curve"/>
      <point x="342" y="633" type="line"/>
      <point x="297" y="633"/>
      <point x="256" y="594"/>
      <point x="249" y="545" type="curve"/>
      <point x="249" y="545" type="line"/>
      <point x="243" y="497"/>
      <point x="274" y="458"/>
      <point x="319" y="458" type="curve"/>
      <point x="319" y="458" type="line"/>
      <point x="406" y="458"/>
      <point x="469" y="393"/>
      <point x="458" y="314" type="curve"/>
      <point x="458" y="314" type="line"/>
      <point x="448" y="235"/>
      <point x="369" y="170"/>
      <point x="281" y="170" type="curve"/>
      <point x="281" y="170" type="line"/>
      <point x="234" y="170"/>
      <point x="196" y="184"/>
      <point x="166" y="213" type="curve"/>
      <point x="165" y="212" type="line"/>
      <point x="136" y="248"/>
      <point x="79" y="250"/>
      <point x="38" y="216" type="curve"/>
      <point x="38" y="216" type="line"/>
      <point x="-3" y="182"/>
      <point x="-12" y="126"/>
      <point x="17" y="89" type="curve"/>
      <point x="15" y="88" type="line"/>
      <point x="78" y="26"/>
      <point x="159" y="-5"/>
      <point x="259" y="-5" type="curve"/>
      <point x="259" y="-5" type="line"/>
      <point x="458" y="-5"/>
      <point x="638" y="138"/>
      <point x="661" y="314" type="curve"/>
      <point x="661" y="314" type="line"/>
      <point x="675" y="421"/>
      <point x="610" y="513"/>
    </contour>
  </outline>
</glyph>
<glyph name="three" format="1">
  <advance width="797"/>
  <unicode hex="0033"/>
  <outline>
    <contour>
      <point x="505" y="548" type="curve"/>
      <point x="586" y="580"/>
      <point x="649" y="650"/>
      <point x="659" y="731" type="curve" smooth="yes"/>
      <point x="679" y="883"/>
      <point x="558" y="1005"/>
      <point x="388" y="1005" type="curve" smooth="yes"/>
      <point x="303" y="1005"/>
      <point x="228" y="979"/>
      <point x="161" y="925" type="curve"/>
      <point x="126" y="890"/>
      <point x="123" y="835"/>
      <point x="155" y="802" type="curve" smooth="yes"/>
      <point x="187" y="768"/>
      <point x="242" y="768"/>
      <point x="278" y="801" type="curve"/>
      <point x="304" y="820"/>
      <point x="333" y="830"/>
      <point x="365" y="830" type="curve" smooth="yes"/>
      <point x="425" y="830"/>
      <point x="468" y="786"/>
      <point x="461" y="731" type="curve" smooth="yes"/>
      <point x="454" y="681"/>
      <point x="406" y="639"/>
      <point x="352" y="634" type="curve" smooth="yes"/>
      <point x="263" y="625" type="line" smooth="yes"/>
      <point x="227" y="622"/>
      <point x="195" y="587"/>
      <point x="190" y="545" type="curve" smooth="yes"/>
      <point x="184" y="503"/>
      <point x="207" y="469"/>
      <point x="242" y="466" type="curve" smooth="yes"/>
      <point x="333" y="457" type="line" smooth="yes"/>
      <point x="412" y="449"/>
      <point x="466" y="388"/>
      <point x="456" y="314" type="curve" smooth="yes"/>
      <point x="446" y="235"/>
      <point x="367" y="170"/>
      <point x="280" y="170" type="curve" smooth="yes"/>
      <point x="232" y="170"/>
      <point x="194" y="184"/>
      <point x="164" y="212" type="curve"/>
      <point x="136" y="245"/>
      <point x="81" y="246"/>
      <point x="40" y="212" type="curve" smooth="yes"/>
      <point x="-1" y="178"/>
      <point x="-12" y="123"/>
      <point x="14" y="89" type="curve"/>
      <point x="76" y="26"/>
      <point x="157" y="-5"/>
      <point x="257" y="-5" type="curve" smooth="yes"/>
      <point x="456" y="-5"/>
      <point x="636" y="138"/>
      <point x="659" y="314" type="curve" smooth="yes"/>
      <point x="673" y="421"/>
      <point x="608" y="513"/>
    </contour>
  </outline>
</glyph>
<glyph name="Digit_Four" format="1">
  <advance width="722"/>
  <unicode hex="0034"/>
  <outline>
    <contour>
      <point x="452" y="648" type="line"/>
      <point x="421" y="408" type="line"/>
      <point x="260" y="408" type="line"/>
    </contour>
    <contour>
      <point x="588" y="232" type="line"/>
      <point x="615" y="232" type="line" smooth="yes"/>
      <point x="667" y="232"/>
      <point x="715" y="271"/>
      <point x="721" y="320" type="curve"/>
      <point x="721" y="320" type="line"/>
      <point x="727" y="369"/>
      <point x="690" y="408"/>
      <point x="637" y="408" type="curve" smooth="yes"/>
      <point x="611" y="408" type="line"/>
      <point x="675" y="904" type="line" smooth="yes"/>
      <point x="683" y="960"/>
      <point x="640" y="1005"/>
      <point x="579" y="1005" type="curve"/>
      <point x="579" y="1005" type="line"/>
      <point x="540" y="1005"/>
      <point x="503" y="986"/>
      <point x="480" y="957" type="curve" smooth="yes"/>
      <point x="24" y="386" type="line" smooth="yes"/>
      <point x="12" y="371"/>
      <point x="3" y="353"/>
      <point x="1" y="333" type="curve"/>
      <point x="1" y="333" type="line"/>
      <point x="-6" y="277"/>
      <point x="37" y="232"/>
      <point x="97" y="232" type="curve" smooth="yes"/>
      <point x="398" y="232" type="line"/>
      <point x="379" y="83" type="line" smooth="yes"/>
      <point x="372" y="34"/>
      <point x="410" y="-5"/>
      <point x="462" y="-5" type="curve" smooth="yes"/>
      <point x="515" y="-5"/>
      <point x="562" y="34"/>
      <point x="569" y="83" type="curve" smooth="yes"/>
    </contour>
  </outline>
</glyph>
<glyph name="four" format="1">
  <advance width="857"/>
  <unicode hex="0034"/>
  <outline>
    <contour>
      <point x="453" y="651" type="line"/>
      <point x="421" y="408" type="line"/>
      <point x="259" y="408" type="line"/>
    </contour>
    <contour>
      <point x="588" y="232" type="line"/>
      <point x="621" y="232" type="line" smooth="yes"/>
      <point x="670" y="232"/>
      <point x="715" y="271"/>
      <point x="721" y="320" type="curve" smooth="yes"/>
      <point x="727" y="369"/>
      <point x="693" y="408"/>
      <point x="644" y="408" type="curve" smooth="yes"/>
      <point x="611" y="408" type="line"/>
      <point x="676" y="911" type="line" smooth="yes"/>
      <point x="683" y="963"/>
      <point x="640" y="1005"/>
      <point x="579" y="1005" type="curve" smooth="yes"/>
      <point x="539" y="1005"/>
      <point x="501" y="986"/>
      <point x="478" y="958" type="curve" smooth="yes"/>
      <point x="25" y="389" type="line" smooth="yes"/>
      <point x="12" y="373"/>
      <point x="4" y="354"/>
      <point x="1" y="333" type="curve" smooth="yes"/>
      <point x="-6" y="277"/>
      <point x="33" y="232"/>
      <point x="90" y="232" type="curve" smooth="yes"/>
      <point x="398" y="232" type="line"/>
      <point x="378" y="77" type="line" smooth="yes"/>
      <point x="372" y="31"/>
      <point x="410" y="-5"/>
      <point x="462" y="-5" type="curve" smooth="yes"/>
      <point x="515" y="-5"/>
      <point x="562" y="31"/>
      <point x="568" y="77" type="curve" smooth="yes"/>
    </contour>
  </outline>
</glyph>
<glyph name="5" format="1">
  <advance width="875"/>
  <unicode hex="0035"/>
  <outline>
    <contour>
      <point x="346" y="824" type="line"/>
      <point x="632" y="824" type="line" smooth="yes"/>
      <point x="685" y="824"/>
      <point x="733" y="864"/>
      <point x="739" y="912" type="curve"/>
      <point x="739" y="912" type="line"/>
      <point x="745" y="961"/>
      <point x="708" y="1000"/>
      <point x="655" y="1000" type="curve" smooth="yes"/>
      <point x="289" y="1000" type="line" smooth="yes"/>
      <point x="242" y="1000"/>
      <point x="198" y="968"/>
      <point x="186" y="926" type="curve" smooth="yes"/>
      <point x="60" y="502" type="line" smooth="yes"/>
      <point x="52" y="475"/>
      <point x="56" y="447"/>
      <point x="73" y="426" type="curve"/>
      <point x="73" y="426" type="line"/>
      <point x="103" y="390"/>
      <point x="160" y="388"/>
      <point x="200" y="423" type="curve"/>
      <point x="201" y="422" type="line"/>
      <point x="237" y="446"/>
      <point x="275" y="458"/>
      <point x="319" y="458" type="curve"/>
      <point x="319" y="458" type="line"/>
      <point x="406" y="458"/>
      <point x="469" y="393"/>
      <point x="458" y="314" type="curve"/>
      <point x="458" y="314" type="line"/>
      <point x="448" y="235"/>
      <point x="369" y="170"/>
      <point x="281" y="170" type="curve"/>
      <point x="281" y="170" type="line"/>
      <point x="234" y="170"/>
      <point x="196" y="184"/>
      <point x="166" y="213" type="curve"/>
      <point x="165" y="212" type="line"/>
      <point x="136" y="248"/>
      <point x="79" y="250"/>
      <point x="38" y="216" type="curve"/>
      <point x="38" y="216" type="line"/>
      <point x="-3" y="182"/>
      <point x="-12" y="126"/>
      <point x="17" y="89" type="curve"/>
      <point x="15" y="88" type="line"/>
      <point x="78" y="26"/>
      <point x="159" y="-5"/>
      <point x="259" y="-5" type="curve"/>
      <point x="259" y="-5" type="line"/>
      <point x="458" y="-5"/>
      <point x="638" y="138"/>
      <point x="661" y="314" type="curve"/>
      <point x="661" y="314" type="line"/>
      <point x="684" y="490"/>
      <point x="541" y="633"/>
      <point x="342" y="633" type="curve"/>
      <point x="342" y="633" type="line"/>
      <point x="323" y="633"/>
      <point x="306" y="632"/>
      <point x="288" y="630" type="curve"/>
    </contour>
  </outline>
</glyph>
<glyph name="five" format="1">
  <advance width="873"/>
  <unicode hex="0035"/>
  <outline>
    <contour>
      <point x="344" y="824" type="line"/>
      <point x="637" y="824" type="line" smooth="yes"/>
      <point x="686" y="824"/>
      <point x="731" y="864"/>
      <point x="737" y="912" type="curve" smooth="yes"/>
      <point x="743" y="961"/>
      <point x="709" y="1000"/>
      <point x="660" y="1000" type="curve" smooth="yes"/>
      <point x="281" y="1000" type="line" smooth="yes"/>
      <point x="237" y="1000"/>
      <point x="196" y="968"/>
      <point x="184" y="926" type="curve" smooth="yes"/>
      <point x="62" y="507" type="line" smooth="yes"/>
      <point x="54" y="481"/>
      <point x="59" y="452"/>
      <point x="77" y="430" type="curve" smooth="yes"/>
      <point x="106" y="394"/>
      <point x="161" y="391"/>
      <point x="199" y="422" type="curve"/>
      <point x="235" y="446"/>
      <point x="273" y="458"/>
      <point x="317" y="458" type="curve" smooth="yes"/>
      <point x="404" y="458"/>
      <point x="467" y="393"/>
      <point x="456" y="314" type="curve" smooth="yes"/>
      <point x="446" y="235"/>
      <point x="367" y="170"/>
      <point x="280" y="170" type="curve" smooth="yes"/>
      <point x="232" y="170"/>
      <point x="194" y="184"/>
      <point x="164" y="212" type="curve"/>
      <point x="136" y="245"/>
      <point x="81" y="246"/>
      <point x="40" y="212" type="curve" smooth="yes"/>
      <point x="-1" y="178"/>
      <point x="-12" y="123"/>
      <point x="14" y="89" type="curve"/>
      <point x="76" y="26"/>
      <point x="157" y="-5"/>
      <point x="257" y="-5" type="curve" smooth="yes"/>
      <point x="456" y="-5"/>
      <point x="636" y="138"/>
      <point x="659" y="314" type="curve" smooth="yes"/>
      <point x="682" y="490"/>
      <point x="539" y="633"/>
      <point x="340" y="633" type="curve" smooth="yes"/>
      <point x="322" y="633"/>
      <point x="305" y="632"/>
      <point x="288" y="630" type="curve"/>
    </contour>
  </outline>
</glyph>
<glyph name="Digit_Six" format="1">
  <advance width="655"/>
  <unicode hex="0036"/>
  <outline>
    <contour>
      <point x="203" y="320" type="curve"/>
      <point x="214" y="402"/>
      <point x="278" y="469"/>
      <point x="347" y="469" type="curve"/>
      <point x="347" y="469" type="line"/>
      <point x="416" y="469"/>
      <point x="463" y="402"/>
      <point x="452" y="320" type="curve"/>
      <point x="452" y="320" type="line"/>
      <point x="442" y="237"/>
      <point x="377" y="170"/>
      <point x="308" y="170" type="curve"/>
      <point x="308" y="170" type="line"/>
      <point x="239" y="170"/>
      <point x="192" y="237"/>
    </contour>
    <contour>
      <point x="393" y="971" type="curve" smooth="yes"/>
      <point x="216" y="776"/>
      <point x="37" y="585"/>
      <point x="3" y="320" type="curve" smooth="yes"/>
      <point x="-21" y="140"/>
      <point x="106" y="-5"/>
      <point x="285" y="-5" type="curve"/>
      <point x="285" y="-5" type="line"/>
      <point x="465" y="-5"/>
      <point x="629" y="140"/>
      <point x="652" y="320" type="curve"/>
      <point x="652" y="320" type="line"/>
      <point x="674" y="486"/>
      <point x="557" y="620"/>
      <point x="391" y="620" type="curve"/>
      <point x="391" y="620" type="line"/>
      <point x="364" y="620"/>
      <point x="337" y="617"/>
      <point x="311" y="610" type="curve"/>
      <point x="311" y="610" type="line"/>
      <point x="372" y="698"/>
      <point x="448" y="778"/>
      <point x="521" y="860" type="curve" smooth="yes"/>
      <point x="557" y="899"/>
      <point x="556" y="955"/>
      <point x="521" y="986" type="curve"/>
      <point x="521" y="986" type="line"/>
      <point x="485" y="1017"/>
      <point x="428" y="1010"/>
    </contour>
  </outline>
</glyph>
<glyph name="six" format="1">
  <advance width="790"/>
  <unicode hex="0036"/>
  <outline>
    <contour>
      <point x="203" y="320" type="curve" smooth="yes"/>
      <point x="214" y="402"/>
      <point x="278" y="469"/>
      <point x="347" y="469" type="curve" smooth="yes"/>
      <point x="416" y="469"/>
      <point x="463" y="402"/>
      <point x="452" y="320" type="curve" smooth="yes"/>
      <point x="442" y="237"/>
      <point x="377" y="170"/>
      <point x="308" y="170" type="curve" smooth="yes"/>
      <point x="239" y="170"/>
      <point x="192" y="237"/>
    </contour>
    <contour>
      <point x="393" y="975" type="curve" smooth="yes"/>
      <point x="216" y="779"/>
      <point x="37" y="586"/>
      <point x="3" y="320" type="curve" smooth="yes"/>
      <point x="-21" y="140"/>
      <point x="106" y="-5"/>
      <point x="285" y="-5" type="curve" smooth="yes"/>
      <point x="465" y="-5"/>
      <point x="629" y="140"/>
      <point x="652" y="320" type="curve" smooth="yes"/>
      <point x="674" y="486"/>
      <point x="557" y="620"/>
      <point x="391" y="620" type="curve" smooth="yes"/>
      <point x="363" y="620"/>
      <point x="336" y="616"/>
      <point x="310" y="609" type="curve"/>
      <point x="370" y="699"/>
      <point x="447" y="781"/>
      <point x="522" y="864" type="curve" smooth="yes"/>
      <point x="555" y="900"/>
      <point x="553" y="954"/>
      <point x="517" y="985" type="curve" smooth="yes"/>
      <point x="482" y="1016"/>
      <point x="426" y="1011"/>
    </contour>
  </outline>
</glyph>
<glyph name="Digit_Seven" format="1">
  <advance width="746"/>
  <unicode hex="0037"/>
  <outline>
    <contour>
      <point x="483" y="830" type="line"/>
      <point x="393" y="707" type="line" smooth="yes"/>
      <point x="246" y="510"/>
      <point x="141" y="319"/>
      <point x="110" y="83" type="curve" smooth="yes"/>
      <point x="104" y="34"/>
      <point x="141" y="-5"/>
      <point x="193" y="-5" type="curve" smooth="yes"/>
      <point x="246" y="-5"/>
      <point x="294" y="34"/>
      <point x="300" y="83" type="curve" smooth="yes"/>
      <point x="326" y="282"/>
      <point x="412" y="445"/>
      <point x="536" y="612" type="curve" smooth="yes"/>
      <point x="726" y="868" type="line" smooth="yes"/>
      <point x="748" y="897"/>
      <point x="752" y="930"/>
      <point x="737" y="959" type="curve"/>
      <point x="737" y="959" type="line"/>
      <point x="723" y="989"/>
      <point x="694" y="1005"/>
      <point x="657" y="1005" type="curve" smooth="yes"/>
      <point x="107" y="1005" type="line" smooth="yes"/>
      <point x="55" y="1005"/>
      <point x="7" y="966"/>
      <point x="1" y="917" type="curve"/>
      <point x="1" y="917" type="line"/>
      <point x="-6" y="869"/>
      <point x="32" y="830"/>
      <point x="84" y="830" type="curve" smooth="yes"/>
    </contour>
  </outline>
</glyph>
<glyph name="seven" format="1">
  <advance width="836"/>
  <unicode hex="0037"/>
  <outline>
    <contour>
      <point x="456" y="830" type="line"/>
      <point x="333" y="634" type="line" smooth="yes"/>
      <point x="219" y="452"/>
      <point x="128" y="284"/>
      <point x="101" y="77" type="curve" smooth="yes"/>
      <point x="95" y="31"/>
      <point x="133" y="-5"/>
      <point x="185" y="-5" type="curve" smooth="yes"/>
      <point x="237" y="-5"/>
      <point x="285" y="31"/>
      <point x="291" y="77" type="curve" smooth="yes"/>
      <point x="314" y="254"/>
      <point x="390" y="397"/>
      <point x="487" y="552" type="curve" smooth="yes"/>
      <point x="683" y="866" type="line" smooth="yes"/>
      <point x="703" y="897"/>
      <point x="705" y="930"/>
      <point x="691" y="960" type="curve" smooth="yes"/>
      <point x="676" y="989"/>
      <point x="649" y="1005"/>
      <point x="614" y="1005" type="curve" smooth="yes"/>
      <point x="101" y="1005" type="line" smooth="yes"/>
      <point x="52" y="1005"/>
      <point x="7" y="966"/>
      <point x="1" y="917" type="curve" smooth="yes"/>
      <point x="-6" y="869"/>
      <point x="29" y="830"/>
      <point x="78" y="830" type="curve" smooth="yes"/>
    </contour>
  </outline>
</glyph>
<glyph name="Digit_Eight" format="1">
  <advance width="727"/>
  <unicode hex="0038"/>
  <outline>
    <contour>
      <point x="345" y="170" type="curve"/>
      <point x="257" y="170"/>
      <point x="195" y="235"/>
      <point x="205" y="314" type="curve"/>
      <point x="205" y="314" type="line"/>
      <point x="216" y="393"/>
      <point x="295" y="458"/>
      <point x="382" y="458" type="curve"/>
      <point x="382" y="458" type="line"/>
      <point x="469" y="458"/>
      <point x="532" y="393"/>
      <point x="522" y="314" type="curve"/>
      <point x="522" y="314" type="line"/>
      <point x="511" y="235"/>
      <point x="432" y="170"/>
    </contour>
    <contour>
      <point x="405" y="633" type="curve"/>
      <point x="345" y="633"/>
      <point x="303" y="677"/>
      <point x="310" y="731" type="curve"/>
      <point x="310" y="731" type="line"/>
      <point x="317" y="786"/>
      <point x="371" y="830"/>
      <point x="430" y="830" type="curve"/>
      <point x="430" y="830" type="line"/>
      <point x="490" y="830"/>
      <point x="533" y="786"/>
      <point x="526" y="731" type="curve"/>
      <point x="526" y="731" type="line"/>
      <point x="519" y="677"/>
      <point x="465" y="633"/>
    </contour>
    <contour>
      <point x="453" y="1005" type="curve"/>
      <point x="284" y="1005"/>
      <point x="130" y="883"/>
      <point x="111" y="731" type="curve"/>
      <point x="111" y="731" type="line"/>
      <point x="101" y="657"/>
      <point x="134" y="592"/>
      <point x="191" y="551" type="curve"/>
      <point x="191" y="551" type="line"/>
      <point x="91" y="505"/>
      <point x="16" y="416"/>
      <point x="2" y="314" type="curve"/>
      <point x="2" y="314" type="line"/>
      <point x="-21" y="138"/>
      <point x="122" y="-5"/>
      <point x="322" y="-5" type="curve"/>
      <point x="322" y="-5" type="line"/>
      <point x="521" y="-5"/>
      <point x="701" y="138"/>
      <point x="724" y="314" type="curve"/>
      <point x="724" y="314" type="line"/>
      <point x="738" y="416"/>
      <point x="685" y="505"/>
      <point x="597" y="551" type="curve"/>
      <point x="597" y="551" type="line"/>
      <point x="665" y="592"/>
      <point x="715" y="657"/>
      <point x="724" y="731" type="curve"/>
      <point x="724" y="731" type="line"/>
      <point x="744" y="883"/>
      <point x="623" y="1005"/>
    </contour>
  </outline>
</glyph>
<glyph name="eight" format="1">
  <advance width="816"/>
  <unicode hex="0038"/>
  <outline>
    <contour>
      <point x="320" y="170" type="curve" smooth="yes"/>
      <point x="245" y="170"/>
      <point x="193" y="235"/>
      <point x="203" y="314" type="curve" smooth="yes"/>
      <point x="214" y="393"/>
      <point x="283" y="458"/>
      <point x="357" y="458" type="curve" smooth="yes"/>
      <point x="432" y="458"/>
      <point x="484" y="393"/>
      <point x="474" y="314" type="curve" smooth="yes"/>
      <point x="464" y="235"/>
      <point x="395" y="170"/>
    </contour>
    <contour>
      <point x="380" y="633" type="curve" smooth="yes"/>
      <point x="331" y="633"/>
      <point x="297" y="677"/>
      <point x="304" y="731" type="curve" smooth="yes"/>
      <point x="311" y="786"/>
      <point x="357" y="830"/>
      <point x="406" y="830" type="curve" smooth="yes"/>
      <point x="455" y="830"/>
      <point x="489" y="786"/>
      <point x="482" y="731" type="curve" smooth="yes"/>
      <point x="474" y="677"/>
      <point x="429" y="633"/>
    </contour>
    <contour>
      <point x="429" y="1005" type="curve" smooth="yes"/>
      <point x="271" y="1005"/>
      <point x="127" y="883"/>
      <point x="107" y="731" type="curve" smooth="yes"/>
      <point x="97" y="656"/>
      <point x="129" y="589"/>
      <point x="186" y="550" type="curve"/>
      <point x="90" y="507"/>
      <point x="16" y="417"/>
      <point x="3" y="314" type="curve" smooth="yes"/>
      <point x="-20" y="138"/>
      <point x="112" y="-5"/>
      <point x="297" y="-5" type="curve" smooth="yes"/>
      <point x="483" y="-5"/>
      <point x="652" y="138"/>
      <point x="675" y="314" type="curve" smooth="yes"/>
      <point x="688" y="417"/>
      <point x="638" y="507"/>
      <point x="553" y="550" type="curve"/>
      <point x="619" y="589"/>
      <point x="669" y="656"/>
      <point x="679" y="731" type="curve" smooth="yes"/>
      <point x="698" y="883"/>
      <point x="586" y="1005"/>
    </contour>
  </outline>
</glyph>
<glyph name="Digit_Nine" format="1">
  <advance width="655"/>
  <unicode hex="0039"/>
  <outline>
    <contour>
      <point x="452" y="680" type="curve"/>
      <point x="452" y="680" type="line"/>
      <point x="441" y="598"/>
      <point x="377" y="531"/>
      <point x="308" y="531" type="curve"/>
      <point x="308" y="531" type="line"/>
      <point x="239" y="531"/>
      <point x="192" y="598"/>
      <point x="203" y="680" type="curve"/>
      <point x="203" y="680" type="line"/>
      <point x="213" y="763"/>
      <point x="278" y="830"/>
      <point x="347" y="830" type="curve"/>
      <point x="347" y="830" type="line"/>
      <point x="416" y="830"/>
      <point x="463" y="763"/>
    </contour>
    <contour>
      <point x="262" y="29" type="curve" smooth="yes"/>
      <point x="439" y="224"/>
      <point x="618" y="415"/>
      <point x="652" y="680" type="curve" smooth="yes"/>
      <point x="676" y="860"/>
      <point x="549" y="1005"/>
      <point x="370" y="1005" type="curve"/>
      <point x="370" y="1005" type="line"/>
      <point x="190" y="1005"/>
      <point x="26" y="860"/>
      <point x="2" y="680" type="curve"/>
      <point x="2" y="680" type="line"/>
      <point x="-19" y="514"/>
      <point x="98" y="380"/>
      <point x="264" y="380" type="curve"/>
      <point x="264" y="380" type="line"/>
      <point x="291" y="380"/>
      <point x="318" y="383"/>
      <point x="344" y="390" type="curve"/>
      <point x="344" y="390" type="line"/>
      <point x="283" y="302"/>
      <point x="207" y="222"/>
      <point x="134" y="140" type="curve" smooth="yes"/>
      <point x="98" y="101"/>
      <point x="98" y="45"/>
      <point x="134" y="14" type="curve"/>
      <point x="134" y="14" type="line"/>
      <point x="170" y="-17"/>
      <point x="227" y="-10"/>
    </contour>
  </outline>
</glyph>
<glyph name="nine" format="1">
  <advance width="790"/>
  <unicode hex="0039"/>
  <outline>
    <contour>
      <point x="458" y="680" type="curve" smooth="yes"/>
      <point x="448" y="598"/>
      <point x="380" y="531"/>
      <point x="308" y="531" type="curve" smooth="yes"/>
      <point x="236" y="531"/>
      <point x="186" y="598"/>
      <point x="197" y="680" type="curve" smooth="yes"/>
      <point x="207" y="763"/>
      <point x="275" y="830"/>
      <point x="347" y="830" type="curve" smooth="yes"/>
      <point x="419" y="830"/>
      <point x="469" y="763"/>
    </contour>
    <contour>
      <point x="262" y="25" type="curve" smooth="yes"/>
      <point x="439" y="221"/>
      <point x="618" y="414"/>
      <point x="652" y="680" type="curve" smooth="yes"/>
      <point x="676" y="860"/>
      <point x="549" y="1005"/>
      <point x="370" y="1005" type="curve" smooth="yes"/>
      <point x="190" y="1005"/>
      <point x="26" y="860"/>
      <point x="2" y="680" type="curve" smooth="yes"/>
      <point x="-19" y="514"/>
      <point x="98" y="380"/>
      <point x="264" y="380" type="curve" smooth="yes"/>
      <point x="292" y="380"/>
      <point x="319" y="384"/>
      <point x="345" y="391" type="curve"/>
      <point x="285" y="301"/>
      <point x="208" y="219"/>
      <point x="133" y="136" type="curve" smooth="yes"/>
      <point x="100" y="100"/>
      <point x="102" y="46"/>
      <point x="138" y="15" type="curve" smooth="yes"/>
      <point x="173" y="-16"/>
      <point x="229" y="-11"/>
    </contour>
  </outline>
</glyph>
<glyph name="colon" format="1">
  <advance width="402"/>
  <unicode hex="003A"/>
  <outline>
    <contour>
      <point x="213" y="114" type="line" smooth="yes"/>
      <point x="220" y="164"/>
      <point x="178" y="204"/>
      <point x="121" y="204" type="curve" smooth="yes"/>
      <point x="63" y="204"/>
      <point x="11" y="164"/>
      <point x="4" y="114" type="curve" smooth="yes"/>
      <point x="1" y="85" type="line" smooth="yes"/>
      <point x="-6" y="35"/>
      <point x="36" y="-5"/>
      <point x="93" y="-5" type="curve" smooth="yes"/>
      <point x="151" y="-5"/>
      <point x="203" y="35"/>
      <point x="210" y="85" type="curve" smooth="yes"/>
    </contour>
    <contour>
      <point x="265" y="514" type="line" smooth="yes"/>
      <point x="272" y="564"/>
      <point x="230" y="604"/>
      <point x="173" y="604" type="curve" smooth="yes"/>
      <point x="115" y="604"/>
      <point x="63" y="564"/>
      <point x="56" y="514" type="curve" smooth="yes"/>
      <point x="53" y="485" type="line" smooth="yes"/>
      <point x="46" y="435"/>
      <point x="88" y="395"/>
      <point x="145" y="395" type="curve" smooth="yes"/>
      <point x="203" y="395"/>
      <point x="255" y="435"/>
      <point x="262" y="485" type="curve" smooth="yes"/>
    </contour>
  </outline>
</glyph>
<glyph name="semicolon" format="1">
  <advance width="420"/>
  <unicode hex="003B"/>
  <outline>
    <contour>
      <point x="232" y="114" type="curve" smooth="yes"/>
      <point x="239" y="164"/>
      <point x="197" y="204"/>
      <point x="140" y="204" type="curve" smooth="yes"/>
      <point x="82" y="204"/>
      <point x="30" y="164"/>
      <point x="23" y="114" type="curve" smooth="yes"/>
      <point x="20" y="85" type="line"/>
      <point x="15" y="53"/>
      <point x="32" y="24"/>
      <point x="59" y="8" type="curve" smooth="yes"/>
      <point x="68" y="3"/>
      <point x="73" y="-7"/>
      <point x="71" y="-18" type="curve"/>
      <point x="70" y="-29"/>
      <point x="62" y="-38"/>
      <point x="52" y="-43" type="curve" smooth="yes"/>
      <point x="21" y="-59" type="line" smooth="yes"/>
      <point x="4" y="-67"/>
      <point x="-4" y="-86"/>
      <point x="2" y="-102" type="curve" smooth="yes"/>
      <point x="8" y="-118"/>
      <point x="26" y="-124"/>
      <point x="42" y="-116" type="curve" smooth="yes"/>
      <point x="137" y="-71"/>
      <point x="219" y="7"/>
    </contour>
    <contour>
      <point x="284" y="514" type="line" smooth="yes"/>
      <point x="291" y="564"/>
      <point x="249" y="604"/>
      <point x="192" y="604" type="curve" smooth="yes"/>
      <point x="134" y="604"/>
      <point x="82" y="564"/>
      <point x="75" y="514" type="curve" smooth="yes"/>
      <point x="72" y="485" type="line" smooth="yes"/>
      <point x="65" y="435"/>
      <point x="107" y="395"/>
      <point x="164" y="395" type="curve" smooth="yes"/>
      <point x="222" y="395"/>
      <point x="274" y="435"/>
      <point x="281" y="485" type="curve" smooth="yes"/>
    </contour>
  </outline>
</glyph>
<glyph name="less" format="1">
  <advance width="767"/>
  <unicode hex="003C"/>
  <outline>
    <contour>
      <point x="433" y="201" type="line" smooth="yes"/>
      <point x="444" y="195"/>
      <point x="457" y="192"/>
      <point x="472" y="192" type="curve" smooth="yes"/>
      <point x="520" y="193"/>
      <point x="564" y="233"/>
      <point x="571" y="281" type="curve" smooth="yes"/>
      <point x="576" y="315"/>
      <point x="562" y="344"/>
      <point x="536" y="359" type="curve" smooth="yes"/>
      <point x="267" y="510" type="line"/>
      <point x="576" y="661" type="line" smooth="yes"/>
      <point x="605" y="676"/>
      <point x="627" y="705"/>
      <point x="631" y="739" type="curve" smooth="yes"/>
      <point x="636" y="787"/>
      <point x="602" y="827"/>
      <point x="555" y="828" type="curve" smooth="yes"/>
      <point x="540" y="828"/>
      <point x="526" y="825"/>
      <point x="514" y="819" type="curve" smooth="yes"/>
      <point x="67" y="599" type="line" smooth="yes"/>
      <point x="32" y="582"/>
      <point x="6" y="549"/>
      <point x="1" y="510" type="curve" smooth="yes"/>
      <point x="-4" y="471"/>
      <point x="13" y="438"/>
      <point x="44" y="421" type="curve" smooth="yes"/>
    </contour>
  </outline>
</glyph>
<glyph name="equal" format="1">
  <advance width="830"/>
  <unicode hex="003D"/>
  <outline>
    <contour>
      <point x="594" y="587" type="line" smooth="yes"/>
      <point x="643" y="587"/>
      <point x="687" y="626"/>
      <point x="694" y="675" type="curve" smooth="yes"/>
      <point x="700" y="724"/>
      <point x="665" y="763"/>
      <point x="616" y="763" type="curve" smooth="yes"/>
      <point x="144" y="763" type="line" smooth="yes"/>
      <point x="95" y="763"/>
      <point x="50" y="724"/>
      <point x="44" y="675" type="curve" smooth="yes"/>
      <point x="37" y="626"/>
      <point x="72" y="587"/>
      <point x="121" y="587" type="curve" smooth="yes"/>
    </contour>
    <contour>
      <point x="551" y="257" type="line" smooth="yes"/>
      <point x="600" y="257"/>
      <point x="644" y="296"/>
      <point x="651" y="345" type="curve" smooth="yes"/>
      <point x="657" y="394"/>
      <point x="622" y="433"/>
      <point x="574" y="433" type="curve" smooth="yes"/>
      <point x="101" y="433" type="line" smooth="yes"/>
      <point x="52" y="433"/>
      <point x="7" y="394"/>
      <point x="1" y="345" type="curve" smooth="yes"/>
      <point x="-6" y="296"/>
      <point x="29" y="257"/>
      <point x="78" y="257" type="curve" smooth="yes"/>
    </contour>
  </outline>
</glyph>
<glyph name="greater" format="1">
  <advance width="767"/>
  <unicode hex="003E"/>
  <outline>
    <contour>
      <point x="118" y="201" type="curve" smooth="yes"/>
      <point x="564" y="421" type="line" smooth="yes"/>
      <point x="599" y="438"/>
      <point x="625" y="471"/>
      <point x="630" y="510" type="curve" smooth="yes"/>
      <point x="635" y="549"/>
      <point x="618" y="582"/>
      <point x="588" y="599" type="curve" smooth="yes"/>
      <point x="198" y="819" type="line" smooth="yes"/>
      <point x="187" y="825"/>
      <point x="174" y="828"/>
      <point x="159" y="828" type="curve" smooth="yes"/>
      <point x="112" y="827"/>
      <point x="67" y="787"/>
      <point x="60" y="739" type="curve" smooth="yes"/>
      <point x="55" y="705"/>
      <point x="69" y="676"/>
      <point x="95" y="661" type="curve" smooth="yes"/>
      <point x="364" y="510" type="line"/>
      <point x="55" y="359" type="line" smooth="yes"/>
      <point x="26" y="344"/>
      <point x="4" y="315"/>
      <point x="1" y="281" type="curve" smooth="yes"/>
      <point x="-5" y="233"/>
      <point x="29" y="193"/>
      <point x="77" y="192" type="curve" smooth="yes"/>
      <point x="91" y="192"/>
      <point x="105" y="195"/>
    </contour>
  </outline>
</glyph>
<glyph name="question" format="1">
  <advance width="798"/>
  <unicode hex="003F"/>
  <outline>
    <contour>
      <point x="348" y="114" type="line" smooth="yes"/>
      <point x="354" y="164"/>
      <point x="313" y="204"/>
      <point x="255" y="204" type="curve" smooth="yes"/>
      <point x="197" y="204"/>
      <point x="145" y="164"/>
      <point x="139" y="114" type="curve" smooth="yes"/>
      <point x="135" y="85" type="line" smooth="yes"/>
      <point x="129" y="35"/>
      <point x="170" y="-5"/>
      <point x="228" y="-5" type="curve" smooth="yes"/>
      <point x="286" y="-5"/>
      <point x="338" y="35"/>
      <point x="344" y="85" type="curve" smooth="yes"/>
    </contour>
    <contour>
      <point x="6" y="786" type="curve"/>
      <point x="-6" y="757"/>
      <point x="-1" y="728"/>
      <point x="20" y="705" type="curve" smooth="yes"/>
      <point x="41" y="682"/>
      <point x="72" y="672"/>
      <point x="106" y="678" type="curve" smooth="yes"/>
      <point x="139" y="684"/>
      <point x="165" y="704"/>
      <point x="179" y="733" type="curve" smooth="yes"/>
      <point x="211" y="799"/>
      <point x="287" y="839"/>
      <point x="360" y="828" type="curve" smooth="yes"/>
      <point x="433" y="817"/>
      <point x="479" y="759"/>
      <point x="470" y="689" type="curve" smooth="yes"/>
      <point x="464" y="643"/>
      <point x="399" y="633"/>
      <point x="373" y="613" type="curve" smooth="yes"/>
      <point x="302" y="558"/>
      <point x="199" y="505"/>
      <point x="186" y="402" type="curve" smooth="yes"/>
      <point x="180" y="357"/>
      <point x="218" y="320"/>
      <point x="270" y="320" type="curve" smooth="yes"/>
      <point x="323" y="320"/>
      <point x="370" y="357"/>
      <point x="376" y="402" type="curve" smooth="yes"/>
      <point x="382" y="448"/>
      <point x="447" y="458"/>
      <point x="473" y="478" type="curve" smooth="yes"/>
      <point x="544" y="533"/>
      <point x="647" y="585"/>
      <point x="660" y="689" type="curve" smooth="yes"/>
      <point x="681" y="846"/>
      <point x="577" y="977"/>
      <point x="412" y="1001" type="curve" smooth="yes"/>
      <point x="248" y="1026"/>
      <point x="78" y="936"/>
    </contour>
  </outline>
</glyph>
<glyph name="A" format="1">
  <advance width="1039"/>
  <unicode hex="0041"/>
  <outline>
    <contour>
      <point x="369" y="408" type="line"/>
      <point x="535" y="722" type="line"/>
      <point x="620" y="408" type="line"/>
    </contour>
    <contour>
      <point x="717" y="47" type="line"/>
      <point x="732" y="3"/>
      <point x="786" y="-17"/>
      <point x="836" y="2" type="curve" smooth="yes"/>
      <point x="887" y="22"/>
      <point x="915" y="74"/>
      <point x="900" y="118" type="curve"/>
      <point x="680" y="935" type="line"/>
      <point x="664" y="979"/>
      <point x="622" y="1006"/>
      <point x="570" y="1005" type="curve" smooth="yes"/>
      <point x="517" y="1004"/>
      <point x="469" y="976"/>
      <point x="443" y="931" type="curve" smooth="yes"/>
      <point x="12" y="115" type="line" smooth="yes"/>
      <point x="-14" y="70"/>
      <point x="3" y="19"/>
      <point x="50" y="1" type="curve" smooth="yes"/>
      <point x="96" y="-17"/>
      <point x="154" y="5"/>
      <point x="180" y="50" type="curve" smooth="yes"/>
      <point x="276" y="232" type="line"/>
      <point x="667" y="232" type="line"/>
    </contour>
  </outline>
</glyph>
<glyph name="Latin_Capital_Letter_A" format="1">
  <advance width="904"/>
  <unicode hex="0041"/>
  <outline>
    <contour>
      <point x="369" y="408" type="line"/>
      <point x="535" y="722" type="line"/>
      <point x="619" y="408" type="line"/>
    </contour>
    <contour>
      <point x="715" y="52" type="line" smooth="yes"/>
      <point x="727" y="7"/>
      <point x="779" y="-17"/>
      <point x="830" y="0" type="curve" smooth="yes"/>
      <point x="882" y="17"/>
      <point x="914" y="68"/>
      <point x="901" y="113" type="curve" smooth="yes"/>
      <point x="682" y="928" type="line" smooth="yes"/>
      <point x="669" y="975"/>
      <point x="627" y="1005"/>
      <point x="572" y="1005" type="curve" smooth="yes"/>
      <point x="517" y="1005"/>
      <point x="467" y="975"/>
      <point x="441" y="928" type="curve" smooth="yes"/>
      <point x="11" y="113" type="line" smooth="yes"/>
      <point x="-14" y="68"/>
      <point x="5" y="17"/>
      <point x="52" y="0" type="curve" smooth="yes"/>
      <point x="99" y="-17"/>
      <point x="157" y="7"/>
      <point x="181" y="52" type="curve" smooth="yes"/>
      <point x="276" y="232" type="line"/>
      <point x="667" y="232" type="line"/>
    </contour>
  </outline>
</glyph>
<glyph name="B" format="1">
  <advance width="861"/>
  <unicode hex="0042"/>
  <outline>
    <contour>
      <point x="236" y="442" type="line"/>
      <point x="407" y="442" type="line" smooth="yes"/>
      <point x="484" y="442"/>
      <point x="539" y="382"/>
      <point x="529" y="309" type="curve" smooth="yes"/>
      <point x="520" y="235"/>
      <point x="449" y="176"/>
      <point x="372" y="176" type="curve" smooth="yes"/>
      <point x="201" y="176" type="line"/>
    </contour>
    <contour>
      <point x="286" y="824" type="line"/>
      <point x="429" y="824" type="line" smooth="yes"/>
      <point x="489" y="824"/>
      <point x="531" y="778"/>
      <point x="524" y="721" type="curve" smooth="yes"/>
      <point x="516" y="664"/>
      <point x="462" y="618"/>
      <point x="402" y="618" type="curve" smooth="yes"/>
      <point x="259" y="618" type="line"/>
    </contour>
    <contour>
      <point x="349" y="0" type="line" smooth="yes"/>
      <point x="534" y="0"/>
      <point x="701" y="138"/>
      <point x="724" y="309" type="curve" smooth="yes"/>
      <point x="737" y="416"/>
      <point x="674" y="507"/>
      <point x="574" y="538" type="curve"/>
      <point x="649" y="573"/>
      <point x="707" y="642"/>
      <point x="717" y="721" type="curve" smooth="yes"/>
      <point x="737" y="875"/>
      <point x="618" y="1000"/>
      <point x="452" y="1000" type="curve" smooth="yes"/>
      <point x="228" y="1000" type="line" smooth="yes"/>
      <point x="167" y="1000"/>
      <point x="113" y="958"/>
      <point x="106" y="906" type="curve" smooth="yes"/>
      <point x="1" y="94" type="line" smooth="yes"/>
      <point x="-6" y="42"/>
      <point x="37" y="0"/>
      <point x="98" y="0" type="curve" smooth="yes"/>
    </contour>
  </outline>
</glyph>
<glyph name="Latin_Capital_Letter_B" format="1">
  <advance width="887"/>
  <unicode hex="0042"/>
  <outline>
    <contour>
      <point x="235" y="442" type="line"/>
      <point x="433" y="442" type="line" smooth="yes"/>
      <point x="507" y="442"/>
      <point x="559" y="382"/>
      <point x="549" y="309" type="curve"/>
      <point x="549" y="309" type="line"/>
      <point x="539" y="235"/>
      <point x="472" y="176"/>
      <point x="399" y="176" type="curve" smooth="yes"/>
      <point x="200" y="176" type="line"/>
    </contour>
    <contour>
      <point x="285" y="824" type="line"/>
      <point x="435" y="824" type="line" smooth="yes"/>
      <point x="492" y="824"/>
      <point x="532" y="778"/>
      <point x="525" y="721" type="curve"/>
      <point x="525" y="721" type="line"/>
      <point x="518" y="664"/>
      <point x="465" y="618"/>
      <point x="408" y="618" type="curve" smooth="yes"/>
      <point x="258" y="618" type="line"/>
    </contour>
    <contour>
      <point x="376" y="0" type="line" smooth="yes"/>
      <point x="560" y="0"/>
      <point x="728" y="138"/>
      <point x="750" y="309" type="curve"/>
      <point x="750" y="309" type="line"/>
      <point x="764" y="420"/>
      <point x="695" y="514"/>
      <point x="588" y="542" type="curve"/>
      <point x="588" y="542" type="line"/>
      <point x="659" y="577"/>
      <point x="713" y="644"/>
      <point x="723" y="721" type="curve"/>
      <point x="723" y="721" type="line"/>
      <point x="743" y="875"/>
      <point x="625" y="1000"/>
      <point x="458" y="1000" type="curve" smooth="yes"/>
      <point x="227" y="1000" type="line" smooth="yes"/>
      <point x="167" y="1000"/>
      <point x="112" y="955"/>
      <point x="105" y="899" type="curve" smooth="yes"/>
      <point x="1" y="101" type="line" smooth="yes"/>
      <point x="-6" y="45"/>
      <point x="37" y="0"/>
      <point x="97" y="0" type="curve" smooth="yes"/>
    </contour>
  </outline>
</glyph>
<glyph name="C" format="1">
  <advance width="961"/>
  <unicode hex="0043"/>
  <outline>
    <contour>
      <point x="398" y="0" type="line" smooth="yes"/>
      <point x="516" y="0"/>
      <point x="629" y="53"/>
      <point x="716" y="139" type="curve" smooth="yes"/>
      <point x="739" y="162"/>
      <point x="749" y="192"/>
      <point x="743" y="223" type="curve" smooth="yes"/>
      <point x="737" y="254"/>
      <point x="716" y="276"/>
      <point x="686" y="285" type="curve" smooth="yes"/>
      <point x="655" y="294"/>
      <point x="625" y="286"/>
      <point x="600" y="264" type="curve"/>
      <point x="549" y="211"/>
      <point x="486" y="176"/>
      <point x="421" y="176" type="curve" smooth="yes"/>
      <point x="391" y="176" type="line" smooth="yes"/>
      <point x="255" y="176"/>
      <point x="181" y="308"/>
      <point x="202" y="472" type="curve" smooth="yes"/>
      <point x="209" y="528" type="line" smooth="yes"/>
      <point x="229" y="683"/>
      <point x="349" y="824"/>
      <point x="475" y="824" type="curve" smooth="yes"/>
      <point x="506" y="824" type="line" smooth="yes"/>
      <point x="575" y="824"/>
      <point x="630" y="791"/>
      <point x="664" y="737" type="curve"/>
      <point x="691" y="704"/>
      <point x="747" y="705"/>
      <point x="787" y="739" type="curve" smooth="yes"/>
      <point x="828" y="773"/>
      <point x="838" y="828"/>
      <point x="811" y="862" type="curve" smooth="yes"/>
      <point x="745" y="947"/>
      <point x="646" y="1000"/>
      <point x="528" y="1000" type="curve" smooth="yes"/>
      <point x="498" y="1000" type="line" smooth="yes"/>
      <point x="263" y="1000"/>
      <point x="46" y="788"/>
      <point x="12" y="528" type="curve" smooth="yes"/>
      <point x="4" y="472" type="line" smooth="yes"/>
      <point x="-29" y="212"/>
      <point x="133" y="0"/>
      <point x="368" y="0" type="curve" smooth="yes"/>
    </contour>
  </outline>
</glyph>
<glyph name="Latin_Capital_Letter_C" format="1">
  <advance width="963"/>
  <unicode hex="0043"/>
  <outline>
    <contour>
      <point x="398" y="0" type="line" smooth="yes"/>
      <point x="516" y="0"/>
      <point x="629" y="53"/>
      <point x="716" y="139" type="curve" smooth="yes"/>
      <point x="741" y="163"/>
      <point x="752" y="195"/>
      <point x="747" y="227" type="curve" smooth="yes"/>
      <point x="742" y="259"/>
      <point x="721" y="281"/>
      <point x="690" y="289" type="curve" smooth="yes"/>
      <point x="659" y="297"/>
      <point x="626" y="287"/>
      <point x="600" y="264" type="curve"/>
      <point x="549" y="211"/>
      <point x="486" y="176"/>
      <point x="421" y="176" type="curve" smooth="yes"/>
      <point x="392" y="176" type="line" smooth="yes"/>
      <point x="262" y="176"/>
      <point x="192" y="308"/>
      <point x="213" y="472" type="curve" smooth="yes"/>
      <point x="220" y="528" type="line" smooth="yes"/>
      <point x="241" y="683"/>
      <point x="356" y="824"/>
      <point x="476" y="824" type="curve" smooth="yes"/>
      <point x="506" y="824" type="line" smooth="yes"/>
      <point x="575" y="824"/>
      <point x="630" y="791"/>
      <point x="664" y="737" type="curve"/>
      <point x="693" y="702"/>
      <point x="750" y="700"/>
      <point x="791" y="734" type="curve" smooth="yes"/>
      <point x="831" y="769"/>
      <point x="840" y="826"/>
      <point x="811" y="862" type="curve" smooth="yes"/>
      <point x="745" y="947"/>
      <point x="646" y="1000"/>
      <point x="528" y="1000" type="curve" smooth="yes"/>
      <point x="498" y="1000" type="line" smooth="yes"/>
      <point x="263" y="1000"/>
      <point x="46" y="788"/>
      <point x="12" y="528" type="curve" smooth="yes"/>
      <point x="4" y="472" type="line" smooth="yes"/>
      <point x="-29" y="212"/>
      <point x="133" y="0"/>
      <point x="368" y="0" type="curve" smooth="yes"/>
    </contour>
  </outline>
</glyph>
<glyph name="D" format="1">
  <advance width="955"/>
  <unicode hex="0044"/>
  <outline>
    <contour>
      <point x="322" y="0" type="line" smooth="yes"/>
      <point x="556" y="0"/>
      <point x="774" y="212"/>
      <point x="808" y="472" type="curve" smooth="yes"/>
      <point x="815" y="528" type="line" smooth="yes"/>
      <point x="849" y="788"/>
      <point x="686" y="1000"/>
      <point x="452" y="1000" type="curve" smooth="yes"/>
      <point x="228" y="1000" type="line" smooth="yes"/>
      <point x="167" y="1000"/>
      <point x="113" y="958"/>
      <point x="106" y="906" type="curve" smooth="yes"/>
      <point x="1" y="94" type="line" smooth="yes"/>
      <point x="-6" y="42"/>
      <point x="37" y="0"/>
      <point x="98" y="0" type="curve" smooth="yes"/>
    </contour>
    <contour>
      <point x="286" y="824" type="line"/>
      <point x="447" y="824" type="line" smooth="yes"/>
      <point x="576" y="824"/>
      <point x="646" y="692"/>
      <point x="625" y="528" type="curve" smooth="yes"/>
      <point x="618" y="472" type="line" smooth="yes"/>
      <point x="598" y="317"/>
      <point x="482" y="176"/>
      <point x="362" y="176" type="curve" smooth="yes"/>
      <point x="201" y="176" type="line"/>
    </contour>
  </outline>
</glyph>
<glyph name="Latin_Capital_Letter_D" format="1">
  <advance width="999"/>
  <unicode hex="0044"/>
  <outline>
    <contour>
      <point x="366" y="0" type="line" smooth="yes"/>
      <point x="601" y="0"/>
      <point x="818" y="212"/>
      <point x="852" y="472" type="curve" smooth="yes"/>
      <point x="859" y="528" type="line" smooth="yes"/>
      <point x="893" y="788"/>
      <point x="731" y="1000"/>
      <point x="496" y="1000" type="curve" smooth="yes"/>
      <point x="227" y="1000" type="line" smooth="yes"/>
      <point x="167" y="1000"/>
      <point x="112" y="955"/>
      <point x="105" y="899" type="curve" smooth="yes"/>
      <point x="1" y="101" type="line" smooth="yes"/>
      <point x="-6" y="45"/>
      <point x="37" y="0"/>
      <point x="97" y="0" type="curve" smooth="yes"/>
    </contour>
    <contour>
      <point x="285" y="824" type="line"/>
      <point x="491" y="824" type="line" smooth="yes"/>
      <point x="620" y="824"/>
      <point x="691" y="692"/>
      <point x="669" y="528" type="curve" smooth="yes"/>
      <point x="662" y="472" type="line" smooth="yes"/>
      <point x="642" y="317"/>
      <point x="527" y="176"/>
      <point x="407" y="176" type="curve" smooth="yes"/>
      <point x="200" y="176" type="line"/>
    </contour>
  </outline>
</glyph>
<glyph name="E" format="1">
  <advance width="898"/>
  <unicode hex="0045"/>
  <outline>
    <contour>
      <point x="550" y="7" type="line" smooth="yes"/>
      <point x="603" y="7"/>
      <point x="651" y="46"/>
      <point x="657" y="95" type="curve"/>
      <point x="657" y="95" type="line"/>
      <point x="663" y="144"/>
      <point x="626" y="183"/>
      <point x="573" y="183" type="curve" smooth="yes"/>
      <point x="201" y="183" type="line"/>
      <point x="233" y="422" type="line"/>
      <point x="465" y="422" type="line" smooth="yes"/>
      <point x="517" y="422"/>
      <point x="565" y="461"/>
      <point x="571" y="510" type="curve"/>
      <point x="571" y="510" type="line"/>
      <point x="578" y="559"/>
      <point x="540" y="598"/>
      <point x="488" y="598" type="curve" smooth="yes"/>
      <point x="255" y="598" type="line"/>
      <point x="284" y="817" type="line"/>
      <point x="656" y="817" type="line" smooth="yes"/>
      <point x="708" y="817"/>
      <point x="756" y="856"/>
      <point x="762" y="905" type="curve"/>
      <point x="762" y="905" type="line"/>
      <point x="769" y="954"/>
      <point x="731" y="993"/>
      <point x="679" y="993" type="curve" smooth="yes"/>
      <point x="227" y="1000" type="line" smooth="yes"/>
      <point x="167" y="1000"/>
      <point x="112" y="955"/>
      <point x="105" y="899" type="curve" smooth="yes"/>
      <point x="1" y="101" type="line" smooth="yes"/>
      <point x="-6" y="45"/>
      <point x="37" y="0"/>
      <point x="97" y="0" type="curve" smooth="yes"/>
    </contour>
  </outline>
</glyph>
<glyph name="F" format="1">
  <advance width="873"/>
  <unicode hex="0046"/>
  <outline>
    <contour>
      <point x="191" y="77" type="curve" smooth="yes"/>
      <point x="236" y="422" type="line"/>
      <point x="463" y="422" type="line" smooth="yes"/>
      <point x="512" y="422"/>
      <point x="556" y="461"/>
      <point x="563" y="510" type="curve" smooth="yes"/>
      <point x="569" y="559"/>
      <point x="534" y="598"/>
      <point x="485" y="598" type="curve" smooth="yes"/>
      <point x="258" y="598" type="line"/>
      <point x="288" y="824" type="line"/>
      <point x="636" y="824" type="line" smooth="yes"/>
      <point x="685" y="824"/>
      <point x="730" y="864"/>
      <point x="736" y="912" type="curve" smooth="yes"/>
      <point x="743" y="961"/>
      <point x="708" y="1000"/>
      <point x="659" y="1000" type="curve" smooth="yes"/>
      <point x="230" y="1000" type="line" smooth="yes"/>
      <point x="170" y="1000"/>
      <point x="115" y="958"/>
      <point x="108" y="906" type="curve" smooth="yes"/>
      <point x="1" y="77" type="line" smooth="yes"/>
      <point x="-5" y="31"/>
      <point x="32" y="-5"/>
      <point x="85" y="-5" type="curve" smooth="yes"/>
      <point x="137" y="-5"/>
      <point x="185" y="31"/>
    </contour>
  </outline>
</glyph>
<glyph name="Latin_Capital_Letter_F" format="1">
  <advance width="894"/>
  <unicode hex="0046"/>
  <outline>
    <contour>
      <point x="191" y="83" type="curve" smooth="yes"/>
      <point x="235" y="422" type="line"/>
      <point x="467" y="422" type="line" smooth="yes"/>
      <point x="520" y="422"/>
      <point x="567" y="461"/>
      <point x="574" y="510" type="curve"/>
      <point x="574" y="510" type="line"/>
      <point x="580" y="559"/>
      <point x="543" y="598"/>
      <point x="490" y="598" type="curve" smooth="yes"/>
      <point x="258" y="598" type="line"/>
      <point x="287" y="824" type="line"/>
      <point x="652" y="824" type="line" smooth="yes"/>
      <point x="704" y="824"/>
      <point x="752" y="864"/>
      <point x="758" y="912" type="curve"/>
      <point x="758" y="912" type="line"/>
      <point x="765" y="961"/>
      <point x="727" y="1000"/>
      <point x="675" y="1000" type="curve" smooth="yes"/>
      <point x="229" y="1000" type="line" smooth="yes"/>
      <point x="169" y="1000"/>
      <point x="114" y="955"/>
      <point x="107" y="899" type="curve" smooth="yes"/>
      <point x="1" y="83" type="line" smooth="yes"/>
      <point x="-6" y="34"/>
      <point x="32" y="-5"/>
      <point x="84" y="-5" type="curve" smooth="yes"/>
      <point x="137" y="-5"/>
      <point x="184" y="34"/>
    </contour>
  </outline>
</glyph>
<glyph name="G" format="1">
  <advance width="1025"/>
  <unicode hex="0047"/>
  <outline>
    <contour>
      <point x="570" y="558" type="line" smooth="yes"/>
      <point x="517" y="558"/>
      <point x="470" y="519"/>
      <point x="463" y="470" type="curve" smooth="yes"/>
      <point x="457" y="421"/>
      <point x="494" y="382"/>
      <point x="547" y="382" type="curve" smooth="yes"/>
      <point x="671" y="382" type="line"/>
      <point x="626" y="266"/>
      <point x="526" y="176"/>
      <point x="421" y="176" type="curve" smooth="yes"/>
      <point x="392" y="176" type="line" smooth="yes"/>
      <point x="262" y="176"/>
      <point x="192" y="308"/>
      <point x="213" y="472" type="curve" smooth="yes"/>
      <point x="220" y="528" type="line" smooth="yes"/>
      <point x="241" y="683"/>
      <point x="356" y="824"/>
      <point x="476" y="824" type="curve" smooth="yes"/>
      <point x="506" y="824" type="line" smooth="yes"/>
      <point x="575" y="824"/>
      <point x="630" y="791"/>
      <point x="664" y="737" type="curve"/>
      <point x="693" y="702"/>
      <point x="750" y="700"/>
      <point x="791" y="734" type="curve" smooth="yes"/>
      <point x="831" y="769"/>
      <point x="840" y="826"/>
      <point x="811" y="862" type="curve" smooth="yes"/>
      <point x="745" y="947"/>
      <point x="646" y="1000"/>
      <point x="528" y="1000" type="curve" smooth="yes"/>
      <point x="498" y="1000" type="line" smooth="yes"/>
      <point x="263" y="1000"/>
      <point x="46" y="788"/>
      <point x="12" y="528" type="curve" smooth="yes"/>
      <point x="4" y="472" type="line" smooth="yes"/>
      <point x="-29" y="212"/>
      <point x="133" y="0"/>
      <point x="368" y="0" type="curve" smooth="yes"/>
      <point x="398" y="0" type="line" smooth="yes"/>
      <point x="633" y="0"/>
      <point x="850" y="210"/>
      <point x="888" y="470" type="curve"/>
      <point x="898" y="519"/>
      <point x="860" y="558"/>
      <point x="808" y="558" type="curve" smooth="yes"/>
    </contour>
  </outline>
</glyph>
<glyph name="H" format="1">
  <advance width="993"/>
  <unicode hex="0048"/>
  <outline>
    <contour>
      <point x="236" y="422" type="line"/>
      <point x="602" y="422" type="line"/>
      <point x="557" y="77" type="line" smooth="yes"/>
      <point x="552" y="31"/>
      <point x="589" y="-5"/>
      <point x="642" y="-5" type="curve" smooth="yes"/>
      <point x="694" y="-5"/>
      <point x="742" y="31"/>
      <point x="747" y="77" type="curve" smooth="yes"/>
      <point x="857" y="923" type="line" smooth="yes"/>
      <point x="863" y="969"/>
      <point x="826" y="1005"/>
      <point x="773" y="1005" type="curve" smooth="yes"/>
      <point x="721" y="1005"/>
      <point x="673" y="969"/>
      <point x="667" y="923" type="curve" smooth="yes"/>
      <point x="625" y="598" type="line"/>
      <point x="258" y="598" type="line"/>
      <point x="301" y="923" type="line" smooth="yes"/>
      <point x="307" y="969"/>
      <point x="269" y="1005"/>
      <point x="216" y="1005" type="curve" smooth="yes"/>
      <point x="164" y="1005"/>
      <point x="117" y="969"/>
      <point x="111" y="923" type="curve" smooth="yes"/>
      <point x="1" y="77" type="line" smooth="yes"/>
      <point x="-5" y="31"/>
      <point x="32" y="-5"/>
      <point x="85" y="-5" type="curve" smooth="yes"/>
      <point x="137" y="-5"/>
      <point x="185" y="31"/>
      <point x="191" y="77" type="curve" smooth="yes"/>
    </contour>
  </outline>
</glyph>
<glyph name="Latin_Capital_Letter_H" format="1">
  <advance width="922"/>
  <unicode hex="0048"/>
  <outline>
    <contour>
      <point x="235" y="422" type="line"/>
      <point x="667" y="422" type="line"/>
      <point x="623" y="83" type="line" smooth="yes"/>
      <point x="617" y="34"/>
      <point x="654" y="-5"/>
      <point x="707" y="-5" type="curve" smooth="yes"/>
      <point x="759" y="-5"/>
      <point x="807" y="34"/>
      <point x="813" y="83" type="curve" smooth="yes"/>
      <point x="921" y="917" type="line" smooth="yes"/>
      <point x="928" y="966"/>
      <point x="890" y="1005"/>
      <point x="838" y="1005" type="curve" smooth="yes"/>
      <point x="785" y="1005"/>
      <point x="738" y="966"/>
      <point x="731" y="917" type="curve" smooth="yes"/>
      <point x="690" y="598" type="line"/>
      <point x="258" y="598" type="line"/>
      <point x="299" y="917" type="line" smooth="yes"/>
      <point x="306" y="966"/>
      <point x="268" y="1005"/>
      <point x="216" y="1005" type="curve" smooth="yes"/>
      <point x="163" y="1005"/>
      <point x="116" y="966"/>
      <point x="109" y="917" type="curve" smooth="yes"/>
      <point x="1" y="83" type="line" smooth="yes"/>
      <point x="-6" y="34"/>
      <point x="32" y="-5"/>
      <point x="84" y="-5" type="curve" smooth="yes"/>
      <point x="137" y="-5"/>
      <point x="184" y="34"/>
      <point x="191" y="83" type="curve" smooth="yes"/>
    </contour>
  </outline>
</glyph>
<glyph name="I" format="1">
  <advance width="437"/>
  <unicode hex="0049"/>
  <outline>
    <contour>
      <point x="301" y="923" type="line" smooth="yes"/>
      <point x="307" y="969"/>
      <point x="269" y="1005"/>
      <point x="216" y="1005" type="curve" smooth="yes"/>
      <point x="164" y="1005"/>
      <point x="117" y="969"/>
      <point x="111" y="923" type="curve" smooth="yes"/>
      <point x="1" y="77" type="line" smooth="yes"/>
      <point x="-5" y="31"/>
      <point x="32" y="-5"/>
      <point x="85" y="-5" type="curve" smooth="yes"/>
      <point x="137" y="-5"/>
      <point x="185" y="31"/>
      <point x="191" y="77" type="curve" smooth="yes"/>
    </contour>
  </outline>
</glyph>
<glyph name="J" format="1">
  <advance width="777"/>
  <unicode hex="004A"/>
  <outline>
    <contour>
      <point x="368" y="284" type="line" smooth="yes"/>
      <point x="362" y="237"/>
      <point x="330" y="197"/>
      <point x="285" y="179" type="curve" smooth="yes"/>
      <point x="240" y="161"/>
      <point x="195" y="170"/>
      <point x="166" y="204" type="curve" smooth="yes"/>
      <point x="138" y="239"/>
      <point x="81" y="240"/>
      <point x="40" y="206" type="curve" smooth="yes"/>
      <point x="-2" y="171"/>
      <point x="-13" y="115"/>
      <point x="16" y="79" type="curve"/>
      <point x="93" y="-5"/>
      <point x="215" y="-29"/>
      <point x="337" y="17" type="curve" smooth="yes"/>
      <point x="458" y="63"/>
      <point x="542" y="164"/>
      <point x="558" y="284" type="curve" smooth="yes"/>
      <point x="641" y="923" type="line" smooth="yes"/>
      <point x="647" y="969"/>
      <point x="609" y="1005"/>
      <point x="557" y="1005" type="curve" smooth="yes"/>
      <point x="504" y="1005"/>
      <point x="457" y="969"/>
      <point x="451" y="923" type="curve" smooth="yes"/>
    </contour>
  </outline>
</glyph>
<glyph name="Latin_Capital_Letter_J" format="1">
  <advance width="651"/>
  <unicode hex="004A"/>
  <outline>
    <contour>
      <point x="380" y="295" type="line" smooth="yes"/>
      <point x="373" y="244"/>
      <point x="339" y="200"/>
      <point x="292" y="180" type="curve" smooth="yes"/>
      <point x="244" y="160"/>
      <point x="197" y="170"/>
      <point x="167" y="207" type="curve"/>
      <point x="167" y="207" type="line"/>
      <point x="138" y="243"/>
      <point x="81" y="245"/>
      <point x="39" y="211" type="curve"/>
      <point x="39" y="211" type="line"/>
      <point x="-2" y="176"/>
      <point x="-12" y="119"/>
      <point x="16" y="83" type="curve"/>
      <point x="16" y="83" type="line"/>
      <point x="95" y="-5"/>
      <point x="219" y="-30"/>
      <point x="343" y="18" type="curve" smooth="yes"/>
      <point x="467" y="65"/>
      <point x="553" y="171"/>
      <point x="570" y="295" type="curve" smooth="yes"/>
      <point x="650" y="917" type="line" smooth="yes"/>
      <point x="657" y="966"/>
      <point x="619" y="1005"/>
      <point x="567" y="1005" type="curve" smooth="yes"/>
      <point x="514" y="1005"/>
      <point x="467" y="966"/>
      <point x="460" y="917" type="curve" smooth="yes"/>
    </contour>
  </outline>
</glyph>
<glyph name="K" format="1">
  <advance width="913"/>
  <unicode hex="004B"/>
  <outline>
    <contour>
      <point x="212" y="243" type="line"/>
      <point x="313" y="360" type="line"/>
      <point x="488" y="34" type="line" smooth="yes"/>
      <point x="512" y="-7"/>
      <point x="570" y="-17"/>
      <point x="617" y="9" type="curve" smooth="yes"/>
      <point x="664" y="36"/>
      <point x="683" y="91"/>
      <point x="659" y="131" type="curve" smooth="yes"/>
      <point x="451" y="519" type="line"/>
      <point x="752" y="865" type="line" smooth="yes"/>
      <point x="788" y="904"/>
      <point x="786" y="959"/>
      <point x="748" y="988" type="curve" smooth="yes"/>
      <point x="709" y="1017"/>
      <point x="649" y="1009"/>
      <point x="612" y="970" type="curve" smooth="yes"/>
      <point x="252" y="554" type="line"/>
      <point x="299" y="917" type="line" smooth="yes"/>
      <point x="306" y="966"/>
      <point x="268" y="1005"/>
      <point x="216" y="1005" type="curve" smooth="yes"/>
      <point x="163" y="1005"/>
      <point x="116" y="966"/>
      <point x="109" y="917" type="curve" smooth="yes"/>
      <point x="1" y="83" type="line" smooth="yes"/>
      <point x="-6" y="34"/>
      <point x="32" y="-5"/>
      <point x="84" y="-5" type="curve" smooth="yes"/>
      <point x="137" y="-5"/>
      <point x="184" y="34"/>
      <point x="191" y="83" type="curve" smooth="yes"/>
    </contour>
  </outline>
</glyph>
<glyph name="Latin_Capital_Letter_K" format="1">
  <advance width="778"/>
  <unicode hex="004B"/>
  <outline>
    <contour>
      <point x="212" y="243" type="line"/>
      <point x="313" y="360" type="line"/>
      <point x="487" y="37" type="line" smooth="yes"/>
      <point x="509" y="-5"/>
      <point x="566" y="-18"/>
      <point x="614" y="8" type="curve" smooth="yes"/>
      <point x="662" y="33"/>
      <point x="683" y="87"/>
      <point x="660" y="129" type="curve" smooth="yes"/>
      <point x="451" y="519" type="line"/>
      <point x="754" y="868" type="line" smooth="yes"/>
      <point x="789" y="908"/>
      <point x="785" y="963"/>
      <point x="745" y="990" type="curve" smooth="yes"/>
      <point x="705" y="1017"/>
      <point x="645" y="1007"/>
      <point x="610" y="967" type="curve" smooth="yes"/>
      <point x="252" y="555" type="line"/>
      <point x="299" y="917" type="line" smooth="yes"/>
      <point x="306" y="966"/>
      <point x="268" y="1005"/>
      <point x="216" y="1005" type="curve" smooth="yes"/>
      <point x="163" y="1005"/>
      <point x="116" y="966"/>
      <point x="109" y="917" type="curve" smooth="yes"/>
      <point x="1" y="83" type="line" smooth="yes"/>
      <point x="-6" y="34"/>
      <point x="32" y="-5"/>
      <point x="84" y="-5" type="curve" smooth="yes"/>
      <point x="137" y="-5"/>
      <point x="184" y="34"/>
      <point x="191" y="83" type="curve" smooth="yes"/>
    </contour>
  </outline>
</glyph>
<glyph name="L" format="1">
  <advance width="821"/>
  <unicode hex="004C"/>
  <outline>
    <contour>
      <point x="578" y="7" type="line" smooth="yes"/>
      <point x="631" y="7"/>
      <point x="678" y="46"/>
      <point x="685" y="95" type="curve"/>
      <point x="685" y="95" type="line"/>
      <point x="691" y="144"/>
      <point x="654" y="183"/>
      <point x="601" y="183" type="curve" smooth="yes"/>
      <point x="202" y="183" type="line"/>
      <point x="298" y="917" type="line" smooth="yes"/>
      <point x="304" y="966"/>
      <point x="266" y="1005"/>
      <point x="214" y="1005" type="curve" smooth="yes"/>
      <point x="162" y="1005"/>
      <point x="114" y="966"/>
      <point x="108" y="917" type="curve" smooth="yes"/>
      <point x="1" y="96" type="line" smooth="yes"/>
      <point x="-6" y="40"/>
      <point x="37" y="-5"/>
      <point x="97" y="-5" type="curve" smooth="yes"/>
    </contour>
  </outline>
</glyph>
<glyph name="M" format="1">
  <advance width="1265"/>
  <unicode hex="004D"/>
  <outline>
    <contour>
      <point x="459" y="63" type="line"/>
      <point x="469" y="21"/>
      <point x="506" y="-5"/>
      <point x="553" y="-5" type="curve" smooth="yes"/>
      <point x="601" y="-5"/>
      <point x="645" y="21"/>
      <point x="665" y="63" type="curve" smooth="yes"/>
      <point x="900" y="602" type="line"/>
      <point x="939" y="63" type="line" smooth="yes"/>
      <point x="944" y="15"/>
      <point x="992" y="-14"/>
      <point x="1044" y="-3" type="curve" smooth="yes"/>
      <point x="1097" y="8"/>
      <point x="1135" y="55"/>
      <point x="1129" y="102" type="curve" smooth="yes"/>
      <point x="1060" y="927" type="line" smooth="yes"/>
      <point x="1054" y="972"/>
      <point x="1018" y="1003"/>
      <point x="969" y="1005" type="curve" smooth="yes"/>
      <point x="920" y="1008"/>
      <point x="873" y="981"/>
      <point x="851" y="937" type="curve"/>
      <point x="591" y="325" type="line"/>
      <point x="500" y="937" type="line"/>
      <point x="490" y="981"/>
      <point x="450" y="1008"/>
      <point x="399" y="1005" type="curve" smooth="yes"/>
      <point x="349" y="1002"/>
      <point x="305" y="971"/>
      <point x="289" y="925" type="curve" smooth="yes"/>
      <point x="5" y="101" type="line" smooth="yes"/>
      <point x="-12" y="54"/>
      <point x="15" y="7"/>
      <point x="65" y="-3" type="curve" smooth="yes"/>
      <point x="115" y="-13"/>
      <point x="169" y="17"/>
      <point x="186" y="64" type="curve" smooth="yes"/>
      <point x="370" y="616" type="line"/>
    </contour>
  </outline>
</glyph>
<glyph name="N" format="1">
  <advance width="1012"/>
  <unicode hex="004E"/>
  <outline>
    <contour>
      <point x="257" y="595" type="line"/>
      <point x="562" y="39" type="line"/>
      <point x="585" y="2"/>
      <point x="631" y="-14"/>
      <point x="680" y="-1" type="curve" smooth="yes"/>
      <point x="728" y="12"/>
      <point x="764" y="51"/>
      <point x="770" y="96" type="curve" smooth="yes"/>
      <point x="876" y="917" type="line" smooth="yes"/>
      <point x="883" y="966"/>
      <point x="845" y="1005"/>
      <point x="793" y="1005" type="curve" smooth="yes"/>
      <point x="740" y="1005"/>
      <point x="693" y="966"/>
      <point x="686" y="917" type="curve" smooth="yes"/>
      <point x="620" y="405" type="line"/>
      <point x="315" y="961" type="line"/>
      <point x="292" y="998"/>
      <point x="246" y="1014"/>
      <point x="197" y="1001" type="curve" smooth="yes"/>
      <point x="149" y="988"/>
      <point x="113" y="949"/>
      <point x="107" y="904" type="curve" smooth="yes"/>
      <point x="1" y="83" type="line" smooth="yes"/>
      <point x="-6" y="34"/>
      <point x="32" y="-5"/>
      <point x="84" y="-5" type="curve" smooth="yes"/>
      <point x="137" y="-5"/>
      <point x="184" y="34"/>
      <point x="191" y="83" type="curve" smooth="yes"/>
    </contour>
  </outline>
</glyph>
<glyph name="Latin_Capital_Letter_P" format="1">
  <advance width="880"/>
  <unicode hex="0050"/>
  <outline>
    <contour>
      <point x="191" y="83" type="curve" smooth="yes"/>
      <point x="227" y="362" type="line"/>
      <point x="357" y="362" type="line" smooth="yes"/>
      <point x="546" y="362"/>
      <point x="719" y="502"/>
      <point x="741" y="675" type="curve" smooth="yes"/>
      <point x="743" y="687" type="line" smooth="yes"/>
      <point x="765" y="860"/>
      <point x="629" y="1000"/>
      <point x="439" y="1000" type="curve" smooth="yes"/>
      <point x="229" y="1000" type="line" smooth="yes"/>
      <point x="169" y="1000"/>
      <point x="114" y="955"/>
      <point x="107" y="899" type="curve" smooth="yes"/>
      <point x="1" y="83" type="line" smooth="yes"/>
      <point x="-6" y="34"/>
      <point x="32" y="-5"/>
      <point x="84" y="-5" type="curve" smooth="yes"/>
      <point x="137" y="-5"/>
      <point x="184" y="34"/>
    </contour>
    <contour>
      <point x="287" y="824" type="line"/>
      <point x="417" y="824" type="line" smooth="yes"/>
      <point x="494" y="824"/>
      <point x="551" y="763"/>
      <point x="541" y="687" type="curve" smooth="yes"/>
      <point x="539" y="675" type="line" smooth="yes"/>
      <point x="530" y="598"/>
      <point x="458" y="538"/>
      <point x="379" y="538" type="curve" smooth="yes"/>
      <point x="250" y="538" type="line"/>
    </contour>
  </outline>
</glyph>
<glyph name="P" format="1">
  <advance width="939"/>
  <unicode hex="0050"/>
  <outline>
    <contour>
      <point x="191" y="83" type="curve" smooth="yes"/>
      <point x="227" y="362" type="line"/>
      <point x="415" y="362" type="line" smooth="yes"/>
      <point x="605" y="362"/>
      <point x="777" y="502"/>
      <point x="800" y="675" type="curve" smooth="yes"/>
      <point x="801" y="687" type="line" smooth="yes"/>
      <point x="824" y="860"/>
      <point x="688" y="1000"/>
      <point x="498" y="1000" type="curve" smooth="yes"/>
      <point x="229" y="1000" type="line" smooth="yes"/>
      <point x="169" y="1000"/>
      <point x="114" y="955"/>
      <point x="107" y="899" type="curve" smooth="yes"/>
      <point x="1" y="83" type="line" smooth="yes"/>
      <point x="-6" y="34"/>
      <point x="32" y="-5"/>
      <point x="84" y="-5" type="curve" smooth="yes"/>
      <point x="137" y="-5"/>
      <point x="184" y="34"/>
    </contour>
    <contour>
      <point x="287" y="824" type="line"/>
      <point x="475" y="824" type="line" smooth="yes"/>
      <point x="559" y="824"/>
      <point x="621" y="763"/>
      <point x="611" y="687" type="curve" smooth="yes"/>
      <point x="610" y="675" type="line" smooth="yes"/>
      <point x="600" y="598"/>
      <point x="523" y="538"/>
      <point x="438" y="538" type="curve" smooth="yes"/>
      <point x="250" y="538" type="line"/>
    </contour>
  </outline>
</glyph>
<glyph name="Latin_Capital_Letter_Q" format="1">
  <advance width="896"/>
  <unicode hex="0051"/>
  <outline>
    <contour>
      <point x="212" y="472" type="curve" smooth="yes"/>
      <point x="220" y="528" type="line" smooth="yes"/>
      <point x="240" y="683"/>
      <point x="355" y="824"/>
      <point x="475" y="824" type="curve" smooth="yes"/>
      <point x="506" y="824" type="line" smooth="yes"/>
      <point x="635" y="824"/>
      <point x="706" y="692"/>
      <point x="684" y="528" type="curve" smooth="yes"/>
      <point x="677" y="472" type="line" smooth="yes"/>
      <point x="657" y="317"/>
      <point x="542" y="176"/>
      <point x="422" y="176" type="curve" smooth="yes"/>
      <point x="391" y="176" type="line" smooth="yes"/>
      <point x="262" y="176"/>
      <point x="191" y="308"/>
    </contour>
    <contour>
      <point x="5" y="473" type="line" smooth="yes"/>
      <point x="-19" y="293"/>
      <point x="44" y="140"/>
      <point x="175" y="56" type="curve"/>
      <point x="612" y="-194" type="line"/>
      <point x="649" y="-224"/>
      <point x="706" y="-217"/>
      <point x="741" y="-178" type="curve"/>
      <point x="741" y="-178" type="line"/>
      <point x="776" y="-139"/>
      <point x="775" y="-83"/>
      <point x="738" y="-53" type="curve"/>
      <point x="559" y="33" type="line"/>
      <point x="725" y="102"/>
      <point x="859" y="273"/>
      <point x="885" y="472" type="curve" smooth="yes"/>
      <point x="892" y="528" type="line" smooth="yes"/>
      <point x="926" y="788"/>
      <point x="763" y="1000"/>
      <point x="529" y="1000" type="curve" smooth="yes"/>
      <point x="498" y="1000" type="line" smooth="yes"/>
      <point x="263" y="1000"/>
      <point x="46" y="788"/>
      <point x="12" y="528" type="curve" smooth="yes"/>
    </contour>
  </outline>
</glyph>
<glyph name="Q" format="1">
  <advance width="1032"/>
  <unicode hex="0051"/>
  <outline>
    <contour>
      <point x="202" y="472" type="curve" smooth="yes"/>
      <point x="209" y="528" type="line" smooth="yes"/>
      <point x="229" y="683"/>
      <point x="349" y="824"/>
      <point x="475" y="824" type="curve" smooth="yes"/>
      <point x="506" y="824" type="line" smooth="yes"/>
      <point x="641" y="824"/>
      <point x="716" y="692"/>
      <point x="695" y="528" type="curve" smooth="yes"/>
      <point x="688" y="472" type="line" smooth="yes"/>
      <point x="667" y="317"/>
      <point x="547" y="176"/>
      <point x="422" y="176" type="curve" smooth="yes"/>
      <point x="391" y="176" type="line" smooth="yes"/>
      <point x="255" y="176"/>
      <point x="180" y="308"/>
    </contour>
    <contour>
      <point x="5" y="473" type="line" smooth="yes"/>
      <point x="-18" y="294"/>
      <point x="43" y="143"/>
      <point x="173" y="57" type="curve"/>
      <point x="521" y="-145" type="line"/>
      <point x="554" y="-174"/>
      <point x="610" y="-166"/>
      <point x="644" y="-127" type="curve" smooth="yes"/>
      <point x="679" y="-88"/>
      <point x="680" y="-33"/>
      <point x="646" y="-4" type="curve"/>
      <point x="563" y="35" type="line"/>
      <point x="728" y="105"/>
      <point x="859" y="275"/>
      <point x="885" y="472" type="curve" smooth="yes"/>
      <point x="892" y="528" type="line" smooth="yes"/>
      <point x="926" y="788"/>
      <point x="763" y="1000"/>
      <point x="529" y="1000" type="curve" smooth="yes"/>
      <point x="498" y="1000" type="line" smooth="yes"/>
      <point x="263" y="1000"/>
      <point x="46" y="788"/>
      <point x="12" y="528" type="curve" smooth="yes"/>
    </contour>
  </outline>
</glyph>
<glyph name="Latin_Capital_Letter_R" format="1">
  <advance width="745"/>
  <unicode hex="0052"/>
  <outline>
    <contour>
      <point x="227" y="362" type="line"/>
      <point x="350" y="362" type="line"/>
      <point x="479" y="44" type="line" smooth="yes"/>
      <point x="496" y="0"/>
      <point x="551" y="-18"/>
      <point x="601" y="4" type="curve" smooth="yes"/>
      <point x="651" y="25"/>
      <point x="677" y="78"/>
      <point x="659" y="122" type="curve" smooth="yes"/>
      <point x="543" y="408" type="line"/>
      <point x="648" y="463"/>
      <point x="726" y="562"/>
      <point x="741" y="675" type="curve" smooth="yes"/>
      <point x="743" y="687" type="line" smooth="yes"/>
      <point x="765" y="860"/>
      <point x="629" y="1000"/>
      <point x="439" y="1000" type="curve" smooth="yes"/>
      <point x="229" y="1000" type="line" smooth="yes"/>
      <point x="169" y="1000"/>
      <point x="114" y="955"/>
      <point x="107" y="899" type="curve" smooth="yes"/>
      <point x="1" y="83" type="line" smooth="yes"/>
      <point x="-6" y="34"/>
      <point x="32" y="-5"/>
      <point x="84" y="-5" type="curve" smooth="yes"/>
      <point x="137" y="-5"/>
      <point x="184" y="34"/>
      <point x="191" y="83" type="curve" smooth="yes"/>
    </contour>
    <contour>
      <point x="287" y="824" type="line"/>
      <point x="417" y="824" type="line" smooth="yes"/>
      <point x="494" y="824"/>
      <point x="551" y="763"/>
      <point x="541" y="687" type="curve" smooth="yes"/>
      <point x="539" y="675" type="line" smooth="yes"/>
      <point x="530" y="598"/>
      <point x="458" y="538"/>
      <point x="379" y="538" type="curve" smooth="yes"/>
      <point x="250" y="538" type="line"/>
    </contour>
  </outline>
</glyph>
<glyph name="R" format="1">
  <advance width="939"/>
  <unicode hex="0052"/>
  <outline>
    <contour>
      <point x="227" y="362" type="line"/>
      <point x="386" y="362" type="line"/>
      <point x="541" y="37" type="line" smooth="yes"/>
      <point x="562" y="-4"/>
      <point x="619" y="-18"/>
      <point x="667" y="7" type="curve" smooth="yes"/>
      <point x="715" y="33"/>
      <point x="737" y="87"/>
      <point x="715" y="128" type="curve" smooth="yes"/>
      <point x="585" y="400" type="line"/>
      <point x="699" y="454"/>
      <point x="784" y="556"/>
      <point x="800" y="675" type="curve"/>
      <point x="801" y="687" type="line" smooth="yes"/>
      <point x="824" y="860"/>
      <point x="688" y="1000"/>
      <point x="498" y="1000" type="curve" smooth="yes"/>
      <point x="229" y="1000" type="line" smooth="yes"/>
      <point x="169" y="1000"/>
      <point x="114" y="955"/>
      <point x="107" y="899" type="curve" smooth="yes"/>
      <point x="1" y="83" type="line" smooth="yes"/>
      <point x="-6" y="34"/>
      <point x="32" y="-5"/>
      <point x="84" y="-5" type="curve" smooth="yes"/>
      <point x="137" y="-5"/>
      <point x="184" y="34"/>
      <point x="191" y="83" type="curve" smooth="yes"/>
    </contour>
    <contour>
      <point x="287" y="824" type="line"/>
      <point x="475" y="824" type="line" smooth="yes"/>
      <point x="559" y="824"/>
      <point x="621" y="763"/>
      <point x="611" y="687" type="curve" smooth="yes"/>
      <point x="610" y="675" type="line" smooth="yes"/>
      <point x="600" y="598"/>
      <point x="523" y="538"/>
      <point x="438" y="538" type="curve" smooth="yes"/>
      <point x="250" y="538" type="line"/>
    </contour>
  </outline>
</glyph>
<glyph name="S" format="1">
  <advance width="825"/>
  <unicode hex="0053"/>
  <outline>
    <contour>
      <point x="688" y="314" type="curve" smooth="yes"/>
      <point x="710" y="490"/>
      <point x="573" y="575"/>
      <point x="412" y="629" type="curve" smooth="yes"/>
      <point x="367" y="646"/>
      <point x="283" y="677"/>
      <point x="289" y="731" type="curve" smooth="yes"/>
      <point x="295" y="786"/>
      <point x="349" y="830"/>
      <point x="409" y="830" type="curve" smooth="yes"/>
      <point x="452" y="830"/>
      <point x="488" y="820"/>
      <point x="516" y="801" type="curve"/>
      <point x="544" y="768"/>
      <point x="599" y="768"/>
      <point x="640" y="802" type="curve" smooth="yes"/>
      <point x="681" y="835"/>
      <point x="692" y="890"/>
      <point x="666" y="925" type="curve"/>
      <point x="605" y="979"/>
      <point x="527" y="1005"/>
      <point x="431" y="1005" type="curve" smooth="yes"/>
      <point x="262" y="1005"/>
      <point x="109" y="883"/>
      <point x="89" y="731" type="curve" smooth="yes"/>
      <point x="69" y="580"/>
      <point x="198" y="508"/>
      <point x="336" y="462" type="curve" smooth="yes"/>
      <point x="402" y="437"/>
      <point x="494" y="393"/>
      <point x="484" y="314" type="curve" smooth="yes"/>
      <point x="474" y="235"/>
      <point x="395" y="170"/>
      <point x="308" y="170" type="curve" smooth="yes"/>
      <point x="250" y="170"/>
      <point x="202" y="184"/>
      <point x="164" y="212" type="curve"/>
      <point x="136" y="245"/>
      <point x="81" y="246"/>
      <point x="40" y="212" type="curve" smooth="yes"/>
      <point x="-1" y="178"/>
      <point x="-12" y="123"/>
      <point x="14" y="89" type="curve"/>
      <point x="84" y="26"/>
      <point x="174" y="-5"/>
      <point x="285" y="-5" type="curve" smooth="yes"/>
      <point x="484" y="-5"/>
      <point x="665" y="138"/>
    </contour>
  </outline>
</glyph>
<glyph name="T" format="1">
  <advance width="940"/>
  <unicode hex="0054"/>
  <outline>
    <contour>
      <point x="486" y="824" type="line"/>
      <point x="704" y="824" type="line" smooth="yes"/>
      <point x="753" y="824"/>
      <point x="798" y="864"/>
      <point x="804" y="912" type="curve" smooth="yes"/>
      <point x="810" y="961"/>
      <point x="776" y="1000"/>
      <point x="727" y="1000" type="curve" smooth="yes"/>
      <point x="101" y="1000" type="line" smooth="yes"/>
      <point x="52" y="1000"/>
      <point x="7" y="961"/>
      <point x="1" y="912" type="curve" smooth="yes"/>
      <point x="-6" y="864"/>
      <point x="29" y="824"/>
      <point x="78" y="824" type="curve" smooth="yes"/>
      <point x="296" y="824" type="line"/>
      <point x="199" y="77" type="line" smooth="yes"/>
      <point x="193" y="31"/>
      <point x="231" y="-5"/>
      <point x="283" y="-5" type="curve" smooth="yes"/>
      <point x="336" y="-5"/>
      <point x="383" y="31"/>
      <point x="389" y="77" type="curve" smooth="yes"/>
    </contour>
  </outline>
</glyph>
<glyph name="U" format="1">
  <advance width="1035"/>
  <unicode hex="0055"/>
  <outline>
    <contour>
      <point x="376" y="0" type="line" smooth="yes"/>
      <point x="599" y="0"/>
      <point x="807" y="212"/>
      <point x="841" y="472" type="curve" smooth="yes"/>
      <point x="898" y="917" type="line" smooth="yes"/>
      <point x="905" y="966"/>
      <point x="867" y="1005"/>
      <point x="815" y="1005" type="curve" smooth="yes"/>
      <point x="762" y="1005"/>
      <point x="715" y="966"/>
      <point x="708" y="917" type="curve" smooth="yes"/>
      <point x="651" y="472" type="line" smooth="yes"/>
      <point x="631" y="319"/>
      <point x="517" y="176"/>
      <point x="399" y="176" type="curve" smooth="yes"/>
      <point x="369" y="176" type="line" smooth="yes"/>
      <point x="238" y="176"/>
      <point x="173" y="308"/>
      <point x="195" y="472" type="curve" smooth="yes"/>
      <point x="253" y="917" type="line" smooth="yes"/>
      <point x="259" y="966"/>
      <point x="221" y="1005"/>
      <point x="169" y="1005" type="curve" smooth="yes"/>
      <point x="117" y="1005"/>
      <point x="69" y="966"/>
      <point x="63" y="917" type="curve" smooth="yes"/>
      <point x="5" y="472" type="line" smooth="yes"/>
      <point x="-29" y="212"/>
      <point x="124" y="0"/>
      <point x="347" y="0" type="curve" smooth="yes"/>
    </contour>
  </outline>
</glyph>
<glyph name="Latin_Capital_Letter_V" format="1">
  <advance width="994"/>
  <unicode hex="0056"/>
  <outline>
    <contour>
      <point x="186" y="85" type="line" smooth="yes"/>
      <point x="199" y="30"/>
      <point x="247" y="-5"/>
      <point x="309" y="-5" type="curve" smooth="yes"/>
      <point x="372" y="-5"/>
      <point x="430" y="30"/>
      <point x="456" y="85" type="curve" smooth="yes"/>
      <point x="850" y="890" type="line" smooth="yes"/>
      <point x="872" y="936"/>
      <point x="852" y="986"/>
      <point x="804" y="1001" type="curve" smooth="yes"/>
      <point x="756" y="1016"/>
      <point x="699" y="991"/>
      <point x="677" y="945" type="curve" smooth="yes"/>
      <point x="345" y="266" type="line"/>
      <point x="189" y="945" type="line" smooth="yes"/>
      <point x="179" y="991"/>
      <point x="128" y="1016"/>
      <point x="77" y="1001" type="curve" smooth="yes"/>
      <point x="25" y="986"/>
      <point x="-9" y="936"/>
      <point x="2" y="890" type="curve" smooth="yes"/>
    </contour>
  </outline>
</glyph>
<glyph name="V" format="1">
  <advance width="978"/>
  <unicode hex="0056"/>
  <outline>
    <contour>
      <point x="207" y="58" type="line" smooth="yes"/>
      <point x="217" y="19"/>
      <point x="254" y="-5"/>
      <point x="302" y="-5" type="curve" smooth="yes"/>
      <point x="349" y="-5"/>
      <point x="393" y="19"/>
      <point x="413" y="58" type="curve" smooth="yes"/>
      <point x="834" y="890" type="line" smooth="yes"/>
      <point x="856" y="932"/>
      <point x="835" y="979"/>
      <point x="788" y="995" type="curve" smooth="yes"/>
      <point x="741" y="1011"/>
      <point x="685" y="989"/>
      <point x="663" y="946" type="curve" smooth="yes"/>
      <point x="343" y="314" type="line"/>
      <point x="188" y="946" type="line" smooth="yes"/>
      <point x="177" y="989"/>
      <point x="127" y="1011"/>
      <point x="76" y="995" type="curve" smooth="yes"/>
      <point x="25" y="979"/>
      <point x="-9" y="932"/>
      <point x="2" y="890" type="curve" smooth="yes"/>
    </contour>
  </outline>
</glyph>
<glyph name="W" format="1">
  <advance width="1491"/>
  <unicode hex="0057"/>
  <outline>
    <contour>
      <point x="166" y="63" type="line" smooth="yes"/>
      <point x="176" y="21"/>
      <point x="213" y="-6"/>
      <point x="261" y="-5" type="curve" smooth="yes"/>
      <point x="309" y="-5"/>
      <point x="353" y="22"/>
      <point x="373" y="64" type="curve" smooth="yes"/>
      <point x="648" y="690" type="line"/>
      <point x="761" y="63" type="line"/>
      <point x="771" y="21"/>
      <point x="808" y="-6"/>
      <point x="856" y="-5" type="curve" smooth="yes"/>
      <point x="904" y="-5"/>
      <point x="948" y="22"/>
      <point x="968" y="64" type="curve" smooth="yes"/>
      <point x="1346" y="890" type="line" smooth="yes"/>
      <point x="1369" y="936"/>
      <point x="1348" y="986"/>
      <point x="1300" y="1001" type="curve" smooth="yes"/>
      <point x="1252" y="1016"/>
      <point x="1195" y="991"/>
      <point x="1173" y="945" type="curve" smooth="yes"/>
      <point x="895" y="314" type="line"/>
      <point x="783" y="937" type="line"/>
      <point x="773" y="979"/>
      <point x="736" y="1006"/>
      <point x="688" y="1005" type="curve" smooth="yes"/>
      <point x="640" y="1005"/>
      <point x="597" y="978"/>
      <point x="576" y="936" type="curve"/>
      <point x="303" y="314" type="line"/>
      <point x="189" y="946" type="line"/>
      <point x="178" y="992"/>
      <point x="127" y="1016"/>
      <point x="75" y="1000" type="curve" smooth="yes"/>
      <point x="24" y="985"/>
      <point x="-9" y="935"/>
      <point x="2" y="889" type="curve" smooth="yes"/>
    </contour>
  </outline>
</glyph>
<glyph name="X" format="1">
  <advance width="933"/>
  <unicode hex="0058"/>
  <outline>
    <contour>
      <point x="375" y="321" type="line"/>
      <point x="507" y="41" type="line" smooth="yes"/>
      <point x="526" y="2"/>
      <point x="580" y="-12"/>
      <point x="629" y="11" type="curve" smooth="yes"/>
      <point x="678" y="34"/>
      <point x="702" y="85"/>
      <point x="684" y="124" type="curve" smooth="yes"/>
      <point x="506" y="500" type="line"/>
      <point x="782" y="876" type="line" smooth="yes"/>
      <point x="801" y="902"/>
      <point x="803" y="932"/>
      <point x="788" y="959" type="curve" smooth="yes"/>
      <point x="773" y="985"/>
      <point x="745" y="1000"/>
      <point x="711" y="1000" type="curve" smooth="yes"/>
      <point x="676" y="1000"/>
      <point x="646" y="985"/>
      <point x="627" y="959" type="curve" smooth="yes"/>
      <point x="422" y="679" type="line"/>
      <point x="290" y="959" type="line" smooth="yes"/>
      <point x="278" y="985"/>
      <point x="251" y="1000"/>
      <point x="217" y="1000" type="curve" smooth="yes"/>
      <point x="183" y="1000"/>
      <point x="151" y="985"/>
      <point x="129" y="959" type="curve" smooth="yes"/>
      <point x="107" y="932"/>
      <point x="101" y="902"/>
      <point x="114" y="876" type="curve" smooth="yes"/>
      <point x="291" y="500" type="line"/>
      <point x="16" y="124" type="line" smooth="yes"/>
      <point x="-13" y="85"/>
      <point x="-2" y="34"/>
      <point x="41" y="11" type="curve" smooth="yes"/>
      <point x="84" y="-12"/>
      <point x="142" y="2"/>
      <point x="171" y="41" type="curve" smooth="yes"/>
    </contour>
  </outline>
</glyph>
<glyph name="Latin_Capital_Letter_Y" format="1">
  <advance width="814"/>
  <unicode hex="0059"/>
  <outline>
    <contour>
      <point x="254" y="473" type="line"/>
      <point x="203" y="83" type="line" smooth="yes"/>
      <point x="197" y="34"/>
      <point x="234" y="-5"/>
      <point x="287" y="-5" type="curve" smooth="yes"/>
      <point x="339" y="-5"/>
      <point x="387" y="34"/>
      <point x="393" y="83" type="curve" smooth="yes"/>
      <point x="444" y="473" type="line"/>
      <point x="790" y="868" type="line" smooth="yes"/>
      <point x="825" y="907"/>
      <point x="821" y="962"/>
      <point x="781" y="990" type="curve" smooth="yes"/>
      <point x="742" y="1017"/>
      <point x="681" y="1007"/>
      <point x="646" y="967" type="curve" smooth="yes"/>
      <point x="373" y="655" type="line"/>
      <point x="180" y="967" type="line" smooth="yes"/>
      <point x="156" y="1007"/>
      <point x="98" y="1017"/>
      <point x="51" y="990" type="curve" smooth="yes"/>
      <point x="4" y="962"/>
      <point x="-14" y="907"/>
      <point x="11" y="868" type="curve" smooth="yes"/>
    </contour>
  </outline>
</glyph>
<glyph name="Y" format="1">
  <advance width="904"/>
  <unicode hex="0059"/>
  <outline>
    <contour>
      <point x="233" y="477" type="line"/>
      <point x="181" y="77" type="line" smooth="yes"/>
      <point x="175" y="31"/>
      <point x="213" y="-5"/>
      <point x="265" y="-5" type="curve" smooth="yes"/>
      <point x="318" y="-5"/>
      <point x="365" y="31"/>
      <point x="371" y="77" type="curve" smooth="yes"/>
      <point x="423" y="477" type="line"/>
      <point x="750" y="871" type="line" smooth="yes"/>
      <point x="781" y="909"/>
      <point x="773" y="960"/>
      <point x="733" y="986" type="curve" smooth="yes"/>
      <point x="692" y="1011"/>
      <point x="633" y="1001"/>
      <point x="602" y="964" type="curve" smooth="yes"/>
      <point x="351" y="659" type="line"/>
      <point x="180" y="963" type="line" smooth="yes"/>
      <point x="159" y="1001"/>
      <point x="103" y="1011"/>
      <point x="55" y="986" type="curve" smooth="yes"/>
      <point x="8" y="961"/>
      <point x="-13" y="909"/>
      <point x="8" y="871" type="curve" smooth="yes"/>
    </contour>
  </outline>
</glyph>
<glyph name="Z" format="1">
  <advance width="931"/>
  <unicode hex="005A"/>
  <outline>
    <contour>
      <point x="545" y="817" type="line"/>
      <point x="27" y="189" type="line" smooth="yes"/>
      <point x="-2" y="151"/>
      <point x="-8" y="108"/>
      <point x="11" y="69" type="curve"/>
      <point x="11" y="69" type="line"/>
      <point x="29" y="31"/>
      <point x="67" y="10"/>
      <point x="114" y="10" type="curve" smooth="yes"/>
      <point x="584" y="7" type="line" smooth="yes"/>
      <point x="637" y="7"/>
      <point x="684" y="46"/>
      <point x="691" y="95" type="curve"/>
      <point x="691" y="95" type="line"/>
      <point x="697" y="144"/>
      <point x="660" y="183"/>
      <point x="607" y="183" type="curve" smooth="yes"/>
      <point x="251" y="183" type="line"/>
      <point x="768" y="811" type="line" smooth="yes"/>
      <point x="798" y="849"/>
      <point x="804" y="892"/>
      <point x="785" y="931" type="curve"/>
      <point x="785" y="931" type="line"/>
      <point x="766" y="969"/>
      <point x="729" y="990"/>
      <point x="681" y="990" type="curve" smooth="yes"/>
      <point x="211" y="993" type="line" smooth="yes"/>
      <point x="159" y="993"/>
      <point x="111" y="954"/>
      <point x="105" y="905" type="curve"/>
      <point x="105" y="905" type="line"/>
      <point x="99" y="856"/>
      <point x="136" y="817"/>
      <point x="188" y="817" type="curve" smooth="yes"/>
    </contour>
  </outline>
</glyph>
<glyph name="bracketleft" format="1">
  <advance width="630"/>
  <unicode hex="005B"/>
  <outline>
    <contour>
      <point x="261" y="-100" type="line" smooth="yes"/>
      <point x="310" y="-100"/>
      <point x="355" y="-61"/>
      <point x="361" y="-12" type="curve" smooth="yes"/>
      <point x="367" y="36"/>
      <point x="333" y="76"/>
      <point x="284" y="76" type="curve" smooth="yes"/>
      <point x="180" y="76" type="line"/>
      <point x="291" y="924" type="line"/>
      <point x="394" y="924" type="line" smooth="yes"/>
      <point x="443" y="924"/>
      <point x="488" y="964"/>
      <point x="494" y="1012" type="curve" smooth="yes"/>
      <point x="500" y="1061"/>
      <point x="466" y="1100"/>
      <point x="417" y="1100" type="curve" smooth="yes"/>
      <point x="254" y="1100" type="line" smooth="yes"/>
      <point x="193" y="1100"/>
      <point x="139" y="1058"/>
      <point x="132" y="1006" type="curve" smooth="yes"/>
      <point x="1" y="-6" type="line" smooth="yes"/>
      <point x="-6" y="-58"/>
      <point x="37" y="-100"/>
      <point x="98" y="-100" type="curve" smooth="yes"/>
    </contour>
  </outline>
</glyph>
<glyph name="backslash" format="1">
  <advance width="523"/>
  <unicode hex="005C"/>
  <outline>
    <contour>
      <point x="1" y="988" type="curve" smooth="yes"/>
      <point x="203" y="-45" type="line" smooth="yes"/>
      <point x="211" y="-89"/>
      <point x="259" y="-111"/>
      <point x="310" y="-95" type="curve" smooth="yes"/>
      <point x="361" y="-79"/>
      <point x="395" y="-31"/>
      <point x="387" y="12" type="curve" smooth="yes"/>
      <point x="185" y="1045" type="line" smooth="yes"/>
      <point x="177" y="1089"/>
      <point x="129" y="1111"/>
      <point x="78" y="1095" type="curve" smooth="yes"/>
      <point x="27" y="1079"/>
      <point x="-7" y="1031"/>
    </contour>
  </outline>
</glyph>
<glyph name="bracketright" format="1">
  <advance width="630"/>
  <unicode hex="005D"/>
  <outline>
    <contour>
      <point x="78" y="-100" type="curve" smooth="yes"/>
      <point x="241" y="-100" type="line" smooth="yes"/>
      <point x="301" y="-100"/>
      <point x="356" y="-58"/>
      <point x="363" y="-6" type="curve" smooth="yes"/>
      <point x="494" y="1006" type="line" smooth="yes"/>
      <point x="501" y="1058"/>
      <point x="457" y="1100"/>
      <point x="397" y="1100" type="curve" smooth="yes"/>
      <point x="234" y="1100" type="line" smooth="yes"/>
      <point x="185" y="1100"/>
      <point x="140" y="1061"/>
      <point x="134" y="1012" type="curve" smooth="yes"/>
      <point x="128" y="964"/>
      <point x="162" y="924"/>
      <point x="211" y="924" type="curve" smooth="yes"/>
      <point x="314" y="924" type="line"/>
      <point x="204" y="76" type="line"/>
      <point x="101" y="76" type="line" smooth="yes"/>
      <point x="52" y="76"/>
      <point x="7" y="36"/>
      <point x="1" y="-12" type="curve" smooth="yes"/>
      <point x="-6" y="-61"/>
      <point x="29" y="-100"/>
    </contour>
  </outline>
</glyph>
<glyph name="asciicircum" format="1">
  <advance width="687"/>
  <unicode hex="005E"/>
  <outline>
    <contour>
      <point x="25" y="757" type="line" smooth="yes"/>
      <point x="11" y="743"/>
      <point x="2" y="724"/>
      <point x="0" y="703" type="curve" smooth="yes"/>
      <point x="-4" y="656"/>
      <point x="31" y="616"/>
      <point x="79" y="614" type="curve" smooth="yes"/>
      <point x="107" y="613"/>
      <point x="132" y="624"/>
      <point x="150" y="643" type="curve" smooth="yes"/>
      <point x="286" y="788" type="line"/>
      <point x="385" y="643" type="line" smooth="yes"/>
      <point x="398" y="624"/>
      <point x="420" y="613"/>
      <point x="448" y="614" type="curve" smooth="yes"/>
      <point x="496" y="616"/>
      <point x="542" y="656"/>
      <point x="550" y="703" type="curve" smooth="yes"/>
      <point x="554" y="724"/>
      <point x="550" y="743"/>
      <point x="540" y="757" type="curve" smooth="yes"/>
      <point x="399" y="965" type="line" smooth="yes"/>
      <point x="382" y="989"/>
      <point x="352" y="1005"/>
      <point x="315" y="1005" type="curve" smooth="yes"/>
      <point x="277" y="1005"/>
      <point x="243" y="989"/>
      <point x="220" y="965" type="curve" smooth="yes"/>
    </contour>
  </outline>
</glyph>
<glyph name="underscore" format="1">
  <advance width="962"/>
  <unicode hex="005F"/>
  <outline>
    <contour>
      <point x="726" y="-208" type="line" smooth="yes"/>
      <point x="775" y="-208"/>
      <point x="819" y="-169"/>
      <point x="826" y="-120" type="curve" smooth="yes"/>
      <point x="832" y="-71"/>
      <point x="797" y="-32"/>
      <point x="749" y="-32" type="curve" smooth="yes"/>
      <point x="101" y="-32" type="line" smooth="yes"/>
      <point x="52" y="-32"/>
      <point x="7" y="-71"/>
      <point x="1" y="-120" type="curve" smooth="yes"/>
      <point x="-6" y="-169"/>
      <point x="29" y="-208"/>
      <point x="78" y="-208" type="curve" smooth="yes"/>
    </contour>
  </outline>
</glyph>
<glyph name="grave" format="1">
  <advance width="424"/>
  <unicode hex="0060"/>
  <outline>
    <contour>
      <point x="167" y="981" type="line" smooth="yes"/>
      <point x="148" y="1005"/>
      <point x="116" y="1012"/>
      <point x="80" y="998" type="curve" smooth="yes"/>
      <point x="45" y="985"/>
      <point x="16" y="956"/>
      <point x="5" y="920" type="curve" smooth="yes"/>
      <point x="-7" y="884"/>
      <point x="2" y="852"/>
      <point x="28" y="836" type="curve" smooth="yes"/>
      <point x="185" y="734" type="line" smooth="yes"/>
      <point x="208" y="719"/>
      <point x="242" y="727"/>
      <point x="266" y="752" type="curve" smooth="yes"/>
      <point x="290" y="777"/>
      <point x="296" y="811"/>
      <point x="280" y="832" type="curve" smooth="yes"/>
    </contour>
  </outline>
</glyph>
<glyph name="b" format="1">
  <advance width="817"/>
  <unicode hex="0062"/>
  <outline>
    <contour>
      <point x="223" y="325" type="curve" smooth="yes"/>
      <point x="234" y="410"/>
      <point x="302" y="480"/>
      <point x="374" y="480" type="curve" smooth="yes"/>
      <point x="446" y="480"/>
      <point x="496" y="410"/>
      <point x="485" y="325" type="curve" smooth="yes"/>
      <point x="474" y="240"/>
      <point x="406" y="170"/>
      <point x="334" y="170" type="curve" smooth="yes"/>
      <point x="261" y="170"/>
      <point x="212" y="240"/>
    </contour>
    <contour>
      <point x="260" y="610" type="curve"/>
      <point x="301" y="923" type="line" smooth="yes"/>
      <point x="307" y="969"/>
      <point x="269" y="1005"/>
      <point x="216" y="1005" type="curve" smooth="yes"/>
      <point x="164" y="1005"/>
      <point x="117" y="969"/>
      <point x="111" y="923" type="curve" smooth="yes"/>
      <point x="1" y="77" type="line" smooth="yes"/>
      <point x="-5" y="31"/>
      <point x="32" y="-5"/>
      <point x="85" y="-5" type="curve" smooth="yes"/>
      <point x="124" y="-5"/>
      <point x="161" y="16"/>
      <point x="179" y="45" type="curve"/>
      <point x="215" y="13"/>
      <point x="260" y="-5"/>
      <point x="311" y="-5" type="curve" smooth="yes"/>
      <point x="490" y="-5"/>
      <point x="655" y="143"/>
      <point x="679" y="325" type="curve" smooth="yes"/>
      <point x="703" y="507"/>
      <point x="576" y="655"/>
      <point x="397" y="655" type="curve" smooth="yes"/>
      <point x="349" y="655"/>
      <point x="302" y="639"/>
    </contour>
  </outline>
</glyph>
<glyph name="d" format="1">
  <advance width="863"/>
  <unicode hex="0064"/>
  <outline>
    <contour>
      <point x="459" y="325" type="curve" smooth="yes"/>
      <point x="448" y="240"/>
      <point x="380" y="170"/>
      <point x="308" y="170" type="curve" smooth="yes"/>
      <point x="235" y="170"/>
      <point x="186" y="240"/>
      <point x="197" y="325" type="curve" smooth="yes"/>
      <point x="208" y="410"/>
      <point x="276" y="480"/>
      <point x="348" y="480" type="curve" smooth="yes"/>
      <point x="420" y="480"/>
      <point x="470" y="410"/>
    </contour>
    <contour>
      <point x="496" y="610" type="line"/>
      <point x="461" y="639"/>
      <point x="418" y="655"/>
      <point x="371" y="655" type="curve" smooth="yes"/>
      <point x="191" y="655"/>
      <point x="27" y="507"/>
      <point x="3" y="325" type="curve" smooth="yes"/>
      <point x="-21" y="143"/>
      <point x="105" y="-5"/>
      <point x="285" y="-5" type="curve" smooth="yes"/>
      <point x="336" y="-5"/>
      <point x="385" y="13"/>
      <point x="430" y="45" type="curve"/>
      <point x="440" y="16"/>
      <point x="471" y="-5"/>
      <point x="511" y="-5" type="curve" smooth="yes"/>
      <point x="563" y="-5"/>
      <point x="611" y="31"/>
      <point x="616" y="77" type="curve" smooth="yes"/>
      <point x="727" y="923" type="line" smooth="yes"/>
      <point x="732" y="969"/>
      <point x="695" y="1005"/>
      <point x="642" y="1005" type="curve" smooth="yes"/>
      <point x="590" y="1005"/>
      <point x="542" y="969"/>
      <point x="537" y="923" type="curve" smooth="yes"/>
    </contour>
  </outline>
</glyph>
<glyph name="e" format="1">
  <advance width="756"/>
  <unicode hex="0065"/>
  <outline>
    <contour>
      <point x="211" y="380" type="line"/>
      <point x="235" y="438"/>
      <point x="282" y="480"/>
      <point x="330" y="480" type="curve" smooth="yes"/>
      <point x="379" y="480"/>
      <point x="415" y="438"/>
      <point x="423" y="380" type="curve"/>
    </contour>
    <contour>
      <point x="267" y="-5" type="curve" smooth="yes"/>
      <point x="353" y="-5"/>
      <point x="429" y="12"/>
      <point x="506" y="49" type="curve"/>
      <point x="547" y="77"/>
      <point x="562" y="131"/>
      <point x="539" y="171" type="curve" smooth="yes"/>
      <point x="516" y="212"/>
      <point x="463" y="222"/>
      <point x="421" y="195" type="curve"/>
      <point x="379" y="179"/>
      <point x="337" y="170"/>
      <point x="290" y="170" type="curve" smooth="yes"/>
      <point x="242" y="170"/>
      <point x="206" y="212"/>
      <point x="197" y="270" type="curve"/>
      <point x="555" y="270" type="line" smooth="yes"/>
      <point x="585" y="270"/>
      <point x="613" y="294"/>
      <point x="617" y="325" type="curve" smooth="yes"/>
      <point x="641" y="507"/>
      <point x="523" y="655"/>
      <point x="353" y="655" type="curve" smooth="yes"/>
      <point x="183" y="655"/>
      <point x="27" y="507"/>
      <point x="3" y="325" type="curve" smooth="yes"/>
      <point x="-21" y="143"/>
      <point x="98" y="-5"/>
    </contour>
  </outline>
</glyph>
<glyph name="f" format="1">
  <advance width="772"/>
  <unicode hex="0066"/>
  <outline>
    <contour>
      <point x="145" y="474" type="line"/>
      <point x="94" y="77" type="line" smooth="yes"/>
      <point x="88" y="31"/>
      <point x="126" y="-5"/>
      <point x="178" y="-5" type="curve" smooth="yes"/>
      <point x="231" y="-5"/>
      <point x="278" y="31"/>
      <point x="284" y="77" type="curve" smooth="yes"/>
      <point x="335" y="474" type="line"/>
      <point x="435" y="474" type="line" smooth="yes"/>
      <point x="484" y="474"/>
      <point x="529" y="514"/>
      <point x="535" y="562" type="curve" smooth="yes"/>
      <point x="542" y="611"/>
      <point x="507" y="650"/>
      <point x="458" y="650" type="curve" smooth="yes"/>
      <point x="358" y="650" type="line"/>
      <point x="371" y="752" type="line" smooth="yes"/>
      <point x="375" y="777"/>
      <point x="392" y="799"/>
      <point x="420" y="815" type="curve" smooth="yes"/>
      <point x="448" y="830"/>
      <point x="479" y="834"/>
      <point x="509" y="826" type="curve"/>
      <point x="552" y="810"/>
      <point x="605" y="835"/>
      <point x="627" y="881" type="curve" smooth="yes"/>
      <point x="649" y="927"/>
      <point x="632" y="977"/>
      <point x="589" y="993" type="curve"/>
      <point x="502" y="1019"/>
      <point x="410" y="1006"/>
      <point x="327" y="957" type="curve" smooth="yes"/>
      <point x="243" y="907"/>
      <point x="192" y="836"/>
      <point x="181" y="752" type="curve" smooth="yes"/>
      <point x="168" y="650" type="line"/>
      <point x="101" y="650" type="line" smooth="yes"/>
      <point x="52" y="650"/>
      <point x="7" y="611"/>
      <point x="1" y="562" type="curve" smooth="yes"/>
      <point x="-6" y="514"/>
      <point x="29" y="474"/>
      <point x="78" y="474" type="curve" smooth="yes"/>
    </contour>
  </outline>
</glyph>
<glyph name="g" format="1">
  <advance width="827"/>
  <unicode hex="0067"/>
  <outline>
    <contour>
      <point x="432" y="40" type="curve"/>
      <point x="427" y="0" type="line"/>
      <point x="424" y="-23" type="line" smooth="yes"/>
      <point x="416" y="-82"/>
      <point x="351" y="-130"/>
      <point x="277" y="-130" type="curve" smooth="yes"/>
      <point x="231" y="-130"/>
      <point x="194" y="-119"/>
      <point x="164" y="-99" type="curve"/>
      <point x="136" y="-65"/>
      <point x="81" y="-65"/>
      <point x="40" y="-99" type="curve" smooth="yes"/>
      <point x="-1" y="-133"/>
      <point x="-12" y="-188"/>
      <point x="14" y="-222" type="curve"/>
      <point x="76" y="-278"/>
      <point x="156" y="-305"/>
      <point x="254" y="-305" type="curve" smooth="yes"/>
      <point x="433" y="-305"/>
      <point x="594" y="-179"/>
      <point x="614" y="-23" type="curve" smooth="yes"/>
      <point x="617" y="0" type="line"/>
      <point x="691" y="573" type="line" smooth="yes"/>
      <point x="697" y="619"/>
      <point x="660" y="655"/>
      <point x="607" y="655" type="curve" smooth="yes"/>
      <point x="568" y="655"/>
      <point x="531" y="634"/>
      <point x="513" y="605" type="curve"/>
      <point x="477" y="637"/>
      <point x="432" y="655"/>
      <point x="381" y="655" type="curve" smooth="yes"/>
      <point x="202" y="655"/>
      <point x="37" y="507"/>
      <point x="13" y="325" type="curve" smooth="yes"/>
      <point x="-11" y="143"/>
      <point x="116" y="-5"/>
      <point x="295" y="-5" type="curve" smooth="yes"/>
      <point x="343" y="-5"/>
      <point x="390" y="11"/>
    </contour>
    <contour>
      <point x="207" y="325" type="curve" smooth="yes"/>
      <point x="218" y="410"/>
      <point x="286" y="480"/>
      <point x="358" y="480" type="curve" smooth="yes"/>
      <point x="431" y="480"/>
      <point x="480" y="410"/>
      <point x="469" y="325" type="curve" smooth="yes"/>
      <point x="458" y="240"/>
      <point x="390" y="170"/>
      <point x="318" y="170" type="curve" smooth="yes"/>
      <point x="246" y="170"/>
      <point x="196" y="240"/>
    </contour>
  </outline>
</glyph>
<glyph name="h" format="1">
  <advance width="759"/>
  <unicode hex="0068"/>
  <outline>
    <contour>
      <point x="1" y="77" type="line" smooth="yes"/>
      <point x="-5" y="31"/>
      <point x="32" y="-5"/>
      <point x="85" y="-5" type="curve" smooth="yes"/>
      <point x="137" y="-5"/>
      <point x="185" y="31"/>
      <point x="191" y="77" type="curve" smooth="yes"/>
      <point x="240" y="455" type="line"/>
      <point x="240" y="455"/>
      <point x="304" y="514"/>
      <point x="374" y="514" type="curve" smooth="yes"/>
      <point x="410" y="514"/>
      <point x="436" y="487"/>
      <point x="432" y="455" type="curve" smooth="yes"/>
      <point x="383" y="77" type="line" smooth="yes"/>
      <point x="377" y="31"/>
      <point x="414" y="-5"/>
      <point x="467" y="-5" type="curve" smooth="yes"/>
      <point x="519" y="-5"/>
      <point x="567" y="31"/>
      <point x="573" y="77" type="curve" smooth="yes"/>
      <point x="622" y="455" type="line" smooth="yes"/>
      <point x="636" y="563"/>
      <point x="550" y="650"/>
      <point x="430" y="650" type="curve" smooth="yes"/>
      <point x="369" y="650"/>
      <point x="308" y="627"/>
      <point x="258" y="596" type="curve"/>
      <point x="301" y="923" type="line" smooth="yes"/>
      <point x="307" y="969"/>
      <point x="269" y="1005"/>
      <point x="216" y="1005" type="curve" smooth="yes"/>
      <point x="164" y="1005"/>
      <point x="117" y="969"/>
      <point x="111" y="923" type="curve" smooth="yes"/>
    </contour>
  </outline>
</glyph>
<glyph name="j" format="1">
  <advance width="701"/>
  <unicode hex="006A"/>
  <outline>
    <contour>
      <point x="529" y="573" type="line" smooth="yes"/>
      <point x="535" y="619"/>
      <point x="497" y="655"/>
      <point x="445" y="655" type="curve" smooth="yes"/>
      <point x="392" y="655"/>
      <point x="345" y="619"/>
      <point x="339" y="573" type="curve" smooth="yes"/>
      <point x="253" y="-86" type="line" smooth="yes"/>
      <point x="251" y="-104"/>
      <point x="237" y="-119"/>
      <point x="217" y="-126" type="curve" smooth="yes"/>
      <point x="197" y="-133"/>
      <point x="177" y="-130"/>
      <point x="164" y="-117" type="curve"/>
      <point x="136" y="-84"/>
      <point x="81" y="-84"/>
      <point x="40" y="-118" type="curve" smooth="yes"/>
      <point x="-1" y="-151"/>
      <point x="-12" y="-206"/>
      <point x="14" y="-241" type="curve"/>
      <point x="76" y="-305"/>
      <point x="173" y="-323"/>
      <point x="269" y="-289" type="curve" smooth="yes"/>
      <point x="365" y="-254"/>
      <point x="432" y="-177"/>
      <point x="443" y="-86" type="curve" smooth="yes"/>
    </contour>
    <contour>
      <point x="565" y="849" type="line" smooth="yes"/>
      <point x="571" y="894"/>
      <point x="533" y="931"/>
      <point x="481" y="931" type="curve" smooth="yes"/>
      <point x="428" y="931"/>
      <point x="381" y="894"/>
      <point x="375" y="849" type="curve" smooth="yes"/>
      <point x="374" y="837" type="line" smooth="yes"/>
      <point x="368" y="792"/>
      <point x="405" y="755"/>
      <point x="458" y="755" type="curve" smooth="yes"/>
      <point x="510" y="755"/>
      <point x="558" y="792"/>
      <point x="564" y="837" type="curve" smooth="yes"/>
    </contour>
  </outline>
</glyph>
<glyph name="k" format="1">
  <advance width="785"/>
  <unicode hex="006B"/>
  <outline>
    <contour>
      <point x="1" y="77" type="line" smooth="yes"/>
      <point x="-5" y="31"/>
      <point x="32" y="-5"/>
      <point x="85" y="-5" type="curve" smooth="yes"/>
      <point x="137" y="-5"/>
      <point x="185" y="31"/>
      <point x="191" y="77" type="curve" smooth="yes"/>
      <point x="206" y="197" type="line"/>
      <point x="268" y="243" type="line"/>
      <point x="421" y="23" type="line" smooth="yes"/>
      <point x="446" y="-12"/>
      <point x="501" y="-15"/>
      <point x="543" y="17" type="curve" smooth="yes"/>
      <point x="586" y="49"/>
      <point x="600" y="103"/>
      <point x="576" y="139" type="curve" smooth="yes"/>
      <point x="423" y="358" type="line"/>
      <point x="611" y="499" type="line" smooth="yes"/>
      <point x="638" y="519"/>
      <point x="651" y="548"/>
      <point x="649" y="580" type="curve" smooth="yes"/>
      <point x="647" y="612"/>
      <point x="630" y="637"/>
      <point x="601" y="649" type="curve" smooth="yes"/>
      <point x="573" y="661"/>
      <point x="541" y="657"/>
      <point x="515" y="637" type="curve" smooth="yes"/>
      <point x="236" y="429" type="line"/>
      <point x="301" y="923" type="line" smooth="yes"/>
      <point x="307" y="969"/>
      <point x="269" y="1005"/>
      <point x="216" y="1005" type="curve" smooth="yes"/>
      <point x="164" y="1005"/>
      <point x="117" y="969"/>
      <point x="111" y="923" type="curve" smooth="yes"/>
    </contour>
  </outline>
</glyph>
<glyph name="m" format="1">
  <advance width="1141"/>
  <unicode hex="006D"/>
  <outline>
    <contour>
      <point x="1" y="77" type="line" smooth="yes"/>
      <point x="-5" y="31"/>
      <point x="32" y="-5"/>
      <point x="85" y="-5" type="curve" smooth="yes"/>
      <point x="137" y="-5"/>
      <point x="185" y="31"/>
      <point x="191" y="77" type="curve" smooth="yes"/>
      <point x="240" y="455" type="line"/>
      <point x="240" y="455"/>
      <point x="304" y="514"/>
      <point x="374" y="514" type="curve" smooth="yes"/>
      <point x="410" y="514"/>
      <point x="436" y="487"/>
      <point x="432" y="455" type="curve" smooth="yes"/>
      <point x="383" y="77" type="line" smooth="yes"/>
      <point x="377" y="31"/>
      <point x="414" y="-5"/>
      <point x="467" y="-5" type="curve" smooth="yes"/>
      <point x="519" y="-5"/>
      <point x="567" y="31"/>
      <point x="573" y="77" type="curve" smooth="yes"/>
      <point x="622" y="455" type="line"/>
      <point x="622" y="455"/>
      <point x="686" y="514"/>
      <point x="756" y="514" type="curve" smooth="yes"/>
      <point x="792" y="514"/>
      <point x="818" y="487"/>
      <point x="814" y="455" type="curve" smooth="yes"/>
      <point x="765" y="77" type="line" smooth="yes"/>
      <point x="759" y="31"/>
      <point x="796" y="-5"/>
      <point x="849" y="-5" type="curve" smooth="yes"/>
      <point x="901" y="-5"/>
      <point x="949" y="31"/>
      <point x="955" y="77" type="curve" smooth="yes"/>
      <point x="1004" y="455" type="line" smooth="yes"/>
      <point x="1018" y="563"/>
      <point x="932" y="650"/>
      <point x="812" y="650" type="curve" smooth="yes"/>
      <point x="732" y="650"/>
      <point x="654" y="611"/>
      <point x="597" y="567" type="curve"/>
      <point x="565" y="617"/>
      <point x="504" y="650"/>
      <point x="430" y="650" type="curve" smooth="yes"/>
      <point x="367" y="650"/>
      <point x="306" y="626"/>
      <point x="255" y="594" type="curve"/>
      <point x="249" y="629"/>
      <point x="215" y="655"/>
      <point x="171" y="655" type="curve" smooth="yes"/>
      <point x="118" y="655"/>
      <point x="71" y="619"/>
      <point x="65" y="573" type="curve" smooth="yes"/>
    </contour>
  </outline>
</glyph>
<glyph name="o" format="1">
  <advance width="791"/>
  <unicode hex="006F"/>
  <outline>
    <contour>
      <point x="3" y="325" type="curve" smooth="yes"/>
      <point x="-21" y="143"/>
      <point x="105" y="-5"/>
      <point x="285" y="-5" type="curve" smooth="yes"/>
      <point x="464" y="-5"/>
      <point x="629" y="143"/>
      <point x="653" y="325" type="curve" smooth="yes"/>
      <point x="677" y="507"/>
      <point x="550" y="655"/>
      <point x="371" y="655" type="curve" smooth="yes"/>
      <point x="191" y="655"/>
      <point x="27" y="507"/>
    </contour>
    <contour>
      <point x="197" y="325" type="curve" smooth="yes"/>
      <point x="208" y="410"/>
      <point x="276" y="480"/>
      <point x="348" y="480" type="curve" smooth="yes"/>
      <point x="420" y="480"/>
      <point x="470" y="410"/>
      <point x="459" y="325" type="curve" smooth="yes"/>
      <point x="448" y="240"/>
      <point x="380" y="170"/>
      <point x="308" y="170" type="curve" smooth="yes"/>
      <point x="235" y="170"/>
      <point x="186" y="240"/>
    </contour>
  </outline>
</glyph>
<glyph name="p" format="1">
  <advance width="856"/>
  <unicode hex="0070"/>
  <outline>
    <contour>
      <point x="262" y="325" type="curve" smooth="yes"/>
      <point x="273" y="410"/>
      <point x="341" y="480"/>
      <point x="413" y="480" type="curve" smooth="yes"/>
      <point x="485" y="480"/>
      <point x="535" y="410"/>
      <point x="524" y="325" type="curve" smooth="yes"/>
      <point x="513" y="240"/>
      <point x="445" y="170"/>
      <point x="373" y="170" type="curve" smooth="yes"/>
      <point x="300" y="170"/>
      <point x="251" y="240"/>
    </contour>
    <contour>
      <point x="225" y="40" type="line"/>
      <point x="260" y="11"/>
      <point x="302" y="-5"/>
      <point x="350" y="-5" type="curve" smooth="yes"/>
      <point x="529" y="-5"/>
      <point x="694" y="143"/>
      <point x="718" y="325" type="curve" smooth="yes"/>
      <point x="742" y="507"/>
      <point x="615" y="655"/>
      <point x="436" y="655" type="curve" smooth="yes"/>
      <point x="385" y="655"/>
      <point x="335" y="637"/>
      <point x="291" y="605" type="curve"/>
      <point x="281" y="634"/>
      <point x="249" y="655"/>
      <point x="210" y="655" type="curve" smooth="yes"/>
      <point x="157" y="655"/>
      <point x="110" y="619"/>
      <point x="104" y="573" type="curve" smooth="yes"/>
      <point x="1" y="-223" type="line" smooth="yes"/>
      <point x="-5" y="-269"/>
      <point x="32" y="-305"/>
      <point x="85" y="-305" type="curve" smooth="yes"/>
      <point x="137" y="-305"/>
      <point x="185" y="-269"/>
      <point x="191" y="-223" type="curve" smooth="yes"/>
    </contour>
  </outline>
</glyph>
<glyph name="q" format="1">
  <advance width="817"/>
  <unicode hex="0071"/>
  <outline>
    <contour>
      <point x="459" y="325" type="curve" smooth="yes"/>
      <point x="448" y="240"/>
      <point x="380" y="170"/>
      <point x="308" y="170" type="curve" smooth="yes"/>
      <point x="235" y="170"/>
      <point x="186" y="240"/>
      <point x="197" y="325" type="curve" smooth="yes"/>
      <point x="208" y="410"/>
      <point x="276" y="480"/>
      <point x="348" y="480" type="curve" smooth="yes"/>
      <point x="420" y="480"/>
      <point x="470" y="410"/>
    </contour>
    <contour>
      <point x="422" y="40" type="curve"/>
      <point x="387" y="-223" type="line" smooth="yes"/>
      <point x="382" y="-269"/>
      <point x="419" y="-305"/>
      <point x="472" y="-305" type="curve" smooth="yes"/>
      <point x="524" y="-305"/>
      <point x="572" y="-269"/>
      <point x="577" y="-223" type="curve" smooth="yes"/>
      <point x="681" y="573" type="line" smooth="yes"/>
      <point x="687" y="619"/>
      <point x="649" y="655"/>
      <point x="597" y="655" type="curve" smooth="yes"/>
      <point x="557" y="655"/>
      <point x="521" y="634"/>
      <point x="502" y="605" type="curve"/>
      <point x="466" y="637"/>
      <point x="422" y="655"/>
      <point x="371" y="655" type="curve" smooth="yes"/>
      <point x="191" y="655"/>
      <point x="27" y="507"/>
      <point x="3" y="325" type="curve" smooth="yes"/>
      <point x="-21" y="143"/>
      <point x="105" y="-5"/>
      <point x="285" y="-5" type="curve" smooth="yes"/>
      <point x="333" y="-5"/>
      <point x="379" y="11"/>
    </contour>
  </outline>
</glyph>
<glyph name="s" format="1">
  <advance width="680"/>
  <unicode hex="0073"/>
  <outline>
    <contour>
      <point x="510" y="204" type="curve" smooth="yes"/>
      <point x="525" y="319"/>
      <point x="406" y="373"/>
      <point x="301" y="409" type="curve" smooth="yes"/>
      <point x="284" y="415"/>
      <point x="230" y="428"/>
      <point x="232" y="446" type="curve" smooth="yes"/>
      <point x="234" y="465"/>
      <point x="256" y="480"/>
      <point x="280" y="480" type="curve" smooth="yes"/>
      <point x="330" y="480"/>
      <point x="366" y="458"/>
      <point x="405" y="435" type="curve" smooth="yes"/>
      <point x="443" y="412"/>
      <point x="498" y="429"/>
      <point x="527" y="472" type="curve" smooth="yes"/>
      <point x="556" y="515"/>
      <point x="549" y="568"/>
      <point x="511" y="590" type="curve" smooth="yes"/>
      <point x="446" y="629"/>
      <point x="384" y="655"/>
      <point x="302" y="655" type="curve" smooth="yes"/>
      <point x="173" y="655"/>
      <point x="55" y="562"/>
      <point x="40" y="446" type="curve" smooth="yes"/>
      <point x="25" y="331"/>
      <point x="119" y="277"/>
      <point x="224" y="241" type="curve" smooth="yes"/>
      <point x="241" y="235"/>
      <point x="320" y="222"/>
      <point x="317" y="204" type="curve"/>
      <point x="315" y="185"/>
      <point x="276" y="170"/>
      <point x="230" y="170" type="curve" smooth="yes"/>
      <point x="190" y="170"/>
      <point x="167" y="200"/>
      <point x="138" y="216" type="curve" smooth="yes"/>
      <point x="98" y="238"/>
      <point x="44" y="220"/>
      <point x="16" y="176" type="curve" smooth="yes"/>
      <point x="-12" y="132"/>
      <point x="-3" y="80"/>
      <point x="37" y="58" type="curve" smooth="yes"/>
      <point x="91" y="29"/>
      <point x="138" y="-5"/>
      <point x="207" y="-5" type="curve" smooth="yes"/>
      <point x="359" y="-5"/>
      <point x="495" y="88"/>
    </contour>
  </outline>
</glyph>
<glyph name="t" format="1">
  <advance width="671"/>
  <unicode hex="0074"/>
  <outline>
    <contour>
      <point x="168" y="650" type="line"/>
      <point x="101" y="650" type="line" smooth="yes"/>
      <point x="52" y="650"/>
      <point x="7" y="611"/>
      <point x="1" y="562" type="curve" smooth="yes"/>
      <point x="-6" y="514"/>
      <point x="29" y="474"/>
      <point x="78" y="474" type="curve" smooth="yes"/>
      <point x="145" y="474" type="line"/>
      <point x="110" y="201" type="line" smooth="yes"/>
      <point x="101" y="132"/>
      <point x="125" y="74"/>
      <point x="180" y="34" type="curve" smooth="yes"/>
      <point x="234" y="-6"/>
      <point x="303" y="-16"/>
      <point x="376" y="5" type="curve" smooth="yes"/>
      <point x="423" y="21"/>
      <point x="452" y="71"/>
      <point x="442" y="117" type="curve" smooth="yes"/>
      <point x="432" y="163"/>
      <point x="386" y="187"/>
      <point x="339" y="172" type="curve" smooth="yes"/>
      <point x="328" y="169"/>
      <point x="318" y="170"/>
      <point x="310" y="176" type="curve" smooth="yes"/>
      <point x="302" y="182"/>
      <point x="298" y="191"/>
      <point x="300" y="201" type="curve"/>
      <point x="335" y="474" type="line"/>
      <point x="435" y="474" type="line" smooth="yes"/>
      <point x="484" y="474"/>
      <point x="529" y="514"/>
      <point x="535" y="562" type="curve" smooth="yes"/>
      <point x="542" y="611"/>
      <point x="507" y="650"/>
      <point x="458" y="650" type="curve" smooth="yes"/>
      <point x="358" y="650" type="line"/>
      <point x="374" y="768" type="line" smooth="yes"/>
      <point x="379" y="814"/>
      <point x="342" y="850"/>
      <point x="289" y="850" type="curve" smooth="yes"/>
      <point x="237" y="850"/>
      <point x="189" y="814"/>
      <point x="184" y="768" type="curve" smooth="yes"/>
    </contour>
  </outline>
</glyph>
<glyph name="u" format="1">
  <advance width="759"/>
  <unicode hex="0075"/>
  <outline>
    <contour>
      <point x="623" y="573" type="line" smooth="yes"/>
      <point x="629" y="619"/>
      <point x="591" y="655"/>
      <point x="538" y="655" type="curve" smooth="yes"/>
      <point x="486" y="655"/>
      <point x="439" y="619"/>
      <point x="433" y="573" type="curve" smooth="yes"/>
      <point x="383" y="195" type="line"/>
      <point x="383" y="195"/>
      <point x="319" y="137"/>
      <point x="249" y="137" type="curve" smooth="yes"/>
      <point x="213" y="137"/>
      <point x="187" y="163"/>
      <point x="191" y="195" type="curve" smooth="yes"/>
      <point x="241" y="573" type="line" smooth="yes"/>
      <point x="247" y="619"/>
      <point x="209" y="655"/>
      <point x="156" y="655" type="curve" smooth="yes"/>
      <point x="104" y="655"/>
      <point x="57" y="619"/>
      <point x="51" y="573" type="curve" smooth="yes"/>
      <point x="1" y="195" type="line" smooth="yes"/>
      <point x="-13" y="87"/>
      <point x="73" y="0"/>
      <point x="193" y="0" type="curve" smooth="yes"/>
      <point x="256" y="0"/>
      <point x="318" y="24"/>
      <point x="368" y="56" type="curve"/>
      <point x="375" y="21"/>
      <point x="408" y="-5"/>
      <point x="452" y="-5" type="curve" smooth="yes"/>
      <point x="505" y="-5"/>
      <point x="552" y="31"/>
      <point x="558" y="77" type="curve" smooth="yes"/>
    </contour>
  </outline>
</glyph>
<glyph name="v" format="1">
  <advance width="751"/>
  <unicode hex="0076"/>
  <outline>
    <contour>
      <point x="138" y="53" type="line" smooth="yes"/>
      <point x="149" y="18"/>
      <point x="184" y="-5"/>
      <point x="228" y="-5" type="curve" smooth="yes"/>
      <point x="272" y="-6"/>
      <point x="313" y="17"/>
      <point x="333" y="52" type="curve" smooth="yes"/>
      <point x="605" y="542" type="line" smooth="yes"/>
      <point x="629" y="584"/>
      <point x="610" y="632"/>
      <point x="564" y="649" type="curve" smooth="yes"/>
      <point x="518" y="666"/>
      <point x="461" y="646"/>
      <point x="438" y="604" type="curve" smooth="yes"/>
      <point x="267" y="277" type="line"/>
      <point x="187" y="603" type="line" smooth="yes"/>
      <point x="175" y="646"/>
      <point x="125" y="666"/>
      <point x="74" y="650" type="curve" smooth="yes"/>
      <point x="23" y="633"/>
      <point x="-9" y="585"/>
      <point x="2" y="543" type="curve" smooth="yes"/>
    </contour>
  </outline>
</glyph>
<glyph name="w" format="1">
  <advance width="1082"/>
  <unicode hex="0077"/>
  <outline>
    <contour>
      <point x="113" y="57" type="line" smooth="yes"/>
      <point x="123" y="19"/>
      <point x="159" y="-5"/>
      <point x="205" y="-5" type="curve" smooth="yes"/>
      <point x="251" y="-5"/>
      <point x="293" y="19"/>
      <point x="312" y="57" type="curve" smooth="yes"/>
      <point x="444" y="347" type="line"/>
      <point x="501" y="57" type="line"/>
      <point x="511" y="19"/>
      <point x="546" y="-5"/>
      <point x="592" y="-5" type="curve" smooth="yes"/>
      <point x="638" y="-5"/>
      <point x="680" y="19"/>
      <point x="700" y="57" type="curve" smooth="yes"/>
      <point x="939" y="546" type="line" smooth="yes"/>
      <point x="960" y="589"/>
      <point x="938" y="636"/>
      <point x="890" y="651" type="curve" smooth="yes"/>
      <point x="843" y="666"/>
      <point x="787" y="643"/>
      <point x="766" y="600" type="curve" smooth="yes"/>
      <point x="632" y="306" type="line"/>
      <point x="576" y="593" type="line"/>
      <point x="566" y="631"/>
      <point x="530" y="655"/>
      <point x="484" y="655" type="curve" smooth="yes"/>
      <point x="438" y="655"/>
      <point x="396" y="631"/>
      <point x="377" y="593" type="curve" smooth="yes"/>
      <point x="246" y="306" type="line"/>
      <point x="188" y="600" type="line" smooth="yes"/>
      <point x="178" y="643"/>
      <point x="129" y="666"/>
      <point x="77" y="651" type="curve" smooth="yes"/>
      <point x="26" y="636"/>
      <point x="-8" y="589"/>
      <point x="2" y="546" type="curve" smooth="yes"/>
    </contour>
  </outline>
</glyph>
<glyph name="x" format="1">
  <advance width="815"/>
  <unicode hex="0078"/>
  <outline>
    <contour>
      <point x="322" y="187" type="line"/>
      <point x="437" y="28" type="line" smooth="yes"/>
      <point x="463" y="-8"/>
      <point x="522" y="-16"/>
      <point x="568" y="11" type="curve" smooth="yes"/>
      <point x="613" y="38"/>
      <point x="629" y="89"/>
      <point x="603" y="125" type="curve" smooth="yes"/>
      <point x="458" y="325" type="line"/>
      <point x="655" y="525" type="line" smooth="yes"/>
      <point x="690" y="561"/>
      <point x="688" y="612"/>
      <point x="649" y="639" type="curve" smooth="yes"/>
      <point x="611" y="666"/>
      <point x="550" y="658"/>
      <point x="514" y="622" type="curve" smooth="yes"/>
      <point x="358" y="463" type="line"/>
      <point x="243" y="622" type="line" smooth="yes"/>
      <point x="217" y="658"/>
      <point x="158" y="666"/>
      <point x="112" y="639" type="curve" smooth="yes"/>
      <point x="67" y="612"/>
      <point x="51" y="561"/>
      <point x="77" y="525" type="curve" smooth="yes"/>
      <point x="222" y="325" type="line"/>
      <point x="25" y="125" type="line" smooth="yes"/>
      <point x="-10" y="89"/>
      <point x="-8" y="38"/>
      <point x="31" y="11" type="curve" smooth="yes"/>
      <point x="69" y="-16"/>
      <point x="130" y="-8"/>
      <point x="166" y="28" type="curve" smooth="yes"/>
    </contour>
  </outline>
</glyph>
<glyph name="y" format="1">
  <advance width="781"/>
  <unicode hex="0079"/>
  <outline>
    <contour>
      <point x="11" y="-188" type="line" smooth="yes"/>
      <point x="-5" y="-215"/>
      <point x="-4" y="-245"/>
      <point x="14" y="-270" type="curve" smooth="yes"/>
      <point x="32" y="-295"/>
      <point x="62" y="-308"/>
      <point x="96" y="-305" type="curve" smooth="yes"/>
      <point x="130" y="-302"/>
      <point x="159" y="-285"/>
      <point x="175" y="-257" type="curve" smooth="yes"/>
      <point x="635" y="538" type="line" smooth="yes"/>
      <point x="659" y="579"/>
      <point x="642" y="628"/>
      <point x="597" y="648" type="curve" smooth="yes"/>
      <point x="551" y="667"/>
      <point x="495" y="649"/>
      <point x="471" y="607" type="curve" smooth="yes"/>
      <point x="309" y="327" type="line"/>
      <point x="220" y="607" type="line" smooth="yes"/>
      <point x="211" y="635"/>
      <point x="187" y="652"/>
      <point x="153" y="655" type="curve" smooth="yes"/>
      <point x="120" y="658"/>
      <point x="87" y="645"/>
      <point x="63" y="620" type="curve" smooth="yes"/>
      <point x="38" y="595"/>
      <point x="29" y="565"/>
      <point x="38" y="538" type="curve" smooth="yes"/>
      <point x="178" y="100" type="line"/>
    </contour>
  </outline>
</glyph>
<glyph name="z" format="1">
  <advance width="811"/>
  <unicode hex="007A"/>
  <outline>
    <contour>
      <point x="514" y="0" type="line" smooth="yes"/>
      <point x="563" y="0"/>
      <point x="608" y="39"/>
      <point x="614" y="88" type="curve" smooth="yes"/>
      <point x="620" y="136"/>
      <point x="586" y="176"/>
      <point x="537" y="176" type="curve" smooth="yes"/>
      <point x="300" y="176" type="line"/>
      <point x="639" y="487" type="line" smooth="yes"/>
      <point x="670" y="515"/>
      <point x="683" y="555"/>
      <point x="672" y="591" type="curve" smooth="yes"/>
      <point x="661" y="628"/>
      <point x="630" y="650"/>
      <point x="590" y="650" type="curve" smooth="yes"/>
      <point x="162" y="650" type="line" smooth="yes"/>
      <point x="113" y="650"/>
      <point x="68" y="611"/>
      <point x="62" y="562" type="curve" smooth="yes"/>
      <point x="55" y="514"/>
      <point x="90" y="474"/>
      <point x="139" y="474" type="curve" smooth="yes"/>
      <point x="376" y="474" type="line"/>
      <point x="37" y="163" type="line" smooth="yes"/>
      <point x="5" y="135"/>
      <point x="-7" y="95"/>
      <point x="4" y="59" type="curve" smooth="yes"/>
      <point x="15" y="22"/>
      <point x="46" y="0"/>
      <point x="86" y="0" type="curve" smooth="yes"/>
    </contour>
  </outline>
</glyph>
<glyph name="braceleft" format="1">
  <advance width="655"/>
  <unicode hex="007B"/>
  <outline>
    <contour>
      <point x="199" y="500" type="curve"/>
      <point x="248" y="524"/>
      <point x="288" y="566"/>
      <point x="296" y="626" type="curve" smooth="yes"/>
      <point x="324" y="841" type="line" smooth="yes"/>
      <point x="330" y="887"/>
      <point x="372" y="924"/>
      <point x="419" y="924" type="curve" smooth="yes"/>
      <point x="467" y="924"/>
      <point x="512" y="964"/>
      <point x="519" y="1012" type="curve" smooth="yes"/>
      <point x="525" y="1061"/>
      <point x="490" y="1100"/>
      <point x="441" y="1100" type="curve" smooth="yes"/>
      <point x="298" y="1100"/>
      <point x="189" y="971"/>
      <point x="172" y="841" type="curve" smooth="yes"/>
      <point x="144" y="626" type="line" smooth="yes"/>
      <point x="141" y="605"/>
      <point x="122" y="588"/>
      <point x="101" y="588" type="curve" smooth="yes"/>
      <point x="52" y="588"/>
      <point x="7" y="549"/>
      <point x="1" y="500" type="curve" smooth="yes"/>
      <point x="-6" y="451"/>
      <point x="29" y="412"/>
      <point x="78" y="412" type="curve" smooth="yes"/>
      <point x="99" y="412"/>
      <point x="114" y="395"/>
      <point x="111" y="374" type="curve" smooth="yes"/>
      <point x="83" y="159" type="line" smooth="yes"/>
      <point x="67" y="29"/>
      <point x="142" y="-100"/>
      <point x="285" y="-100" type="curve" smooth="yes"/>
      <point x="334" y="-100"/>
      <point x="379" y="-61"/>
      <point x="385" y="-12" type="curve" smooth="yes"/>
      <point x="392" y="36"/>
      <point x="357" y="76"/>
      <point x="308" y="76" type="curve" smooth="yes"/>
      <point x="262" y="76"/>
      <point x="229" y="113"/>
      <point x="235" y="159" type="curve" smooth="yes"/>
      <point x="263" y="374" type="line" smooth="yes"/>
      <point x="271" y="434"/>
      <point x="241" y="476"/>
    </contour>
  </outline>
</glyph>
<glyph name="bar" format="1">
  <advance width="463"/>
  <unicode hex="007C"/>
  <outline>
    <contour>
      <point x="327" y="1023" type="line" smooth="yes"/>
      <point x="333" y="1069"/>
      <point x="295" y="1105"/>
      <point x="242" y="1105" type="curve" smooth="yes"/>
      <point x="190" y="1105"/>
      <point x="143" y="1069"/>
      <point x="137" y="1023" type="curve" smooth="yes"/>
      <point x="1" y="-23" type="line" smooth="yes"/>
      <point x="-5" y="-69"/>
      <point x="32" y="-105"/>
      <point x="85" y="-105" type="curve" smooth="yes"/>
      <point x="137" y="-105"/>
      <point x="185" y="-69"/>
      <point x="191" y="-23" type="curve" smooth="yes"/>
    </contour>
  </outline>
</glyph>
<glyph name="braceright" format="1">
  <advance width="655"/>
  <unicode hex="007D"/>
  <outline>
    <contour>
      <point x="321" y="500" type="curve"/>
      <point x="272" y="476"/>
      <point x="231" y="434"/>
      <point x="223" y="374" type="curve" smooth="yes"/>
      <point x="195" y="159" type="line" smooth="yes"/>
      <point x="189" y="113"/>
      <point x="147" y="76"/>
      <point x="101" y="76" type="curve" smooth="yes"/>
      <point x="52" y="76"/>
      <point x="7" y="36"/>
      <point x="1" y="-12" type="curve" smooth="yes"/>
      <point x="-6" y="-61"/>
      <point x="29" y="-100"/>
      <point x="78" y="-100" type="curve" smooth="yes"/>
      <point x="221" y="-100"/>
      <point x="330" y="29"/>
      <point x="347" y="159" type="curve" smooth="yes"/>
      <point x="375" y="374" type="line" smooth="yes"/>
      <point x="378" y="395"/>
      <point x="397" y="412"/>
      <point x="419" y="412" type="curve" smooth="yes"/>
      <point x="467" y="412"/>
      <point x="512" y="451"/>
      <point x="519" y="500" type="curve" smooth="yes"/>
      <point x="525" y="549"/>
      <point x="490" y="588"/>
      <point x="441" y="588" type="curve" smooth="yes"/>
      <point x="420" y="588"/>
      <point x="405" y="605"/>
      <point x="408" y="626" type="curve" smooth="yes"/>
      <point x="436" y="841" type="line" smooth="yes"/>
      <point x="453" y="971"/>
      <point x="377" y="1100"/>
      <point x="234" y="1100" type="curve" smooth="yes"/>
      <point x="185" y="1100"/>
      <point x="140" y="1061"/>
      <point x="134" y="1012" type="curve" smooth="yes"/>
      <point x="128" y="964"/>
      <point x="162" y="924"/>
      <point x="211" y="924" type="curve" smooth="yes"/>
      <point x="257" y="924"/>
      <point x="290" y="887"/>
      <point x="284" y="841" type="curve" smooth="yes"/>
      <point x="256" y="626" type="line" smooth="yes"/>
      <point x="248" y="566"/>
      <point x="278" y="524"/>
    </contour>
  </outline>
</glyph>
<glyph name="asciitilde" format="1">
  <advance width="692"/>
  <unicode hex="007E"/>
  <outline>
    <contour>
      <point x="141" y="447" type="curve" smooth="yes"/>
      <point x="168" y="487"/>
      <point x="213" y="444"/>
      <point x="227" y="435" type="curve" smooth="yes"/>
      <point x="318" y="381"/>
      <point x="464" y="381"/>
      <point x="543" y="497" type="curve" smooth="yes"/>
      <point x="559" y="520"/>
      <point x="561" y="546"/>
      <point x="548" y="570" type="curve" smooth="yes"/>
      <point x="536" y="594"/>
      <point x="512" y="607"/>
      <point x="484" y="608" type="curve" smooth="yes"/>
      <point x="456" y="609"/>
      <point x="431" y="596"/>
      <point x="415" y="573" type="curve" smooth="yes"/>
      <point x="388" y="533"/>
      <point x="343" y="576"/>
      <point x="329" y="585" type="curve" smooth="yes"/>
      <point x="238" y="639"/>
      <point x="92" y="639"/>
      <point x="13" y="523" type="curve" smooth="yes"/>
      <point x="-11" y="488"/>
      <point x="-1" y="444"/>
      <point x="34" y="423" type="curve" smooth="yes"/>
      <point x="70" y="402"/>
      <point x="117" y="413"/>
    </contour>
  </outline>
</glyph>
<glyph name="exclamdown" format="1">
  <advance width="449"/>
  <unicode hex="00A1"/>
  <outline>
    <contour>
      <point x="309" y="893" type="curve" smooth="yes"/>
      <point x="313" y="918" type="line" smooth="yes"/>
      <point x="319" y="966"/>
      <point x="278" y="1005"/>
      <point x="222" y="1005" type="curve" smooth="yes"/>
      <point x="166" y="1005"/>
      <point x="116" y="966"/>
      <point x="109" y="918" type="curve" smooth="yes"/>
      <point x="106" y="893" type="line" smooth="yes"/>
      <point x="100" y="845"/>
      <point x="140" y="806"/>
      <point x="196" y="806" type="curve" smooth="yes"/>
      <point x="252" y="806"/>
      <point x="303" y="845"/>
    </contour>
    <contour>
      <point x="204" y="82" type="curve" smooth="yes"/>
      <point x="258" y="600" type="line" smooth="yes"/>
      <point x="263" y="642"/>
      <point x="228" y="676"/>
      <point x="179" y="676" type="curve" smooth="yes"/>
      <point x="131" y="676"/>
      <point x="87" y="642"/>
      <point x="81" y="600" type="curve" smooth="yes"/>
      <point x="1" y="82" type="line" smooth="yes"/>
      <point x="-6" y="34"/>
      <point x="35" y="-5"/>
      <point x="91" y="-5" type="curve" smooth="yes"/>
      <point x="147" y="-5"/>
      <point x="198" y="34"/>
    </contour>
  </outline>
</glyph>
<glyph name="dieresis" format="1">
  <advance width="675"/>
  <unicode hex="00A8"/>
  <outline>
    <contour>
      <point x="192" y="923" type="line" smooth="yes"/>
      <point x="198" y="969"/>
      <point x="160" y="1005"/>
      <point x="108" y="1005" type="curve" smooth="yes"/>
      <point x="55" y="1005"/>
      <point x="8" y="969"/>
      <point x="2" y="923" type="curve" smooth="yes"/>
      <point x="1" y="911" type="line" smooth="yes"/>
      <point x="-5" y="866"/>
      <point x="32" y="830"/>
      <point x="85" y="830" type="curve" smooth="yes"/>
      <point x="137" y="830"/>
      <point x="185" y="866"/>
      <point x="191" y="911" type="curve" smooth="yes"/>
    </contour>
    <contour>
      <point x="539" y="923" type="line" smooth="yes"/>
      <point x="545" y="969"/>
      <point x="507" y="1005"/>
      <point x="455" y="1005" type="curve" smooth="yes"/>
      <point x="402" y="1005"/>
      <point x="355" y="969"/>
      <point x="349" y="923" type="curve" smooth="yes"/>
      <point x="347" y="911" type="line" smooth="yes"/>
      <point x="341" y="866"/>
      <point x="379" y="830"/>
      <point x="432" y="830" type="curve" smooth="yes"/>
      <point x="484" y="830"/>
      <point x="531" y="866"/>
      <point x="537" y="911" type="curve" smooth="yes"/>
    </contour>
  </outline>
</glyph>
<glyph name="macron" format="1">
  <advance width="637"/>
  <unicode hex="00AF"/>
  <outline>
    <contour>
      <point x="401" y="799" type="line" smooth="yes"/>
      <point x="450" y="799"/>
      <point x="494" y="839"/>
      <point x="501" y="887" type="curve" smooth="yes"/>
      <point x="507" y="936"/>
      <point x="472" y="975"/>
      <point x="424" y="975" type="curve" smooth="yes"/>
      <point x="101" y="975" type="line" smooth="yes"/>
      <point x="52" y="975"/>
      <point x="7" y="936"/>
      <point x="1" y="887" type="curve" smooth="yes"/>
      <point x="-6" y="839"/>
      <point x="29" y="799"/>
      <point x="78" y="799" type="curve" smooth="yes"/>
    </contour>
  </outline>
</glyph>
<glyph name="acute" format="1">
  <advance width="452"/>
  <unicode hex="00B4"/>
  <outline>
    <contour>
      <point x="170" y="981" type="curve" smooth="yes"/>
      <point x="18" y="832" type="line" smooth="yes"/>
      <point x="-3" y="811"/>
      <point x="-6" y="777"/>
      <point x="11" y="752" type="curve" smooth="yes"/>
      <point x="29" y="727"/>
      <point x="61" y="719"/>
      <point x="87" y="734" type="curve" smooth="yes"/>
      <point x="271" y="836" type="line" smooth="yes"/>
      <point x="301" y="852"/>
      <point x="318" y="884"/>
      <point x="316" y="920" type="curve" smooth="yes"/>
      <point x="314" y="956"/>
      <point x="293" y="985"/>
      <point x="261" y="998" type="curve" smooth="yes"/>
      <point x="229" y="1012"/>
      <point x="195" y="1005"/>
    </contour>
  </outline>
</glyph>
<glyph name="periodcentered" format="1">
  <advance width="350"/>
  <unicode hex="00B7"/>
  <outline>
    <contour>
      <point x="213" y="515" type="line" smooth="yes"/>
      <point x="220" y="565"/>
      <point x="178" y="605"/>
      <point x="121" y="605" type="curve" smooth="yes"/>
      <point x="63" y="605"/>
      <point x="11" y="565"/>
      <point x="4" y="515" type="curve" smooth="yes"/>
      <point x="1" y="485" type="line" smooth="yes"/>
      <point x="-6" y="435"/>
      <point x="36" y="395"/>
      <point x="93" y="395" type="curve" smooth="yes"/>
      <point x="151" y="395"/>
      <point x="203" y="435"/>
      <point x="210" y="485" type="curve" smooth="yes"/>
    </contour>
  </outline>
</glyph>
<glyph name="Agrave" format="1">
  <advance width="994"/>
  <unicode hex="00C0"/>
  <outline>
    <contour>
      <point x="365" y="408" type="line"/>
      <point x="509" y="688" type="line"/>
      <point x="580" y="408" type="line"/>
    </contour>
    <contour>
      <point x="669" y="51" type="line" smooth="yes"/>
      <point x="680" y="8"/>
      <point x="731" y="-15"/>
      <point x="783" y="-1" type="curve" smooth="yes"/>
      <point x="834" y="13"/>
      <point x="867" y="59"/>
      <point x="857" y="102" type="curve" smooth="yes"/>
      <point x="645" y="941" type="line" smooth="yes"/>
      <point x="635" y="980"/>
      <point x="598" y="1005"/>
      <point x="550" y="1005" type="curve" smooth="yes"/>
      <point x="502" y="1005"/>
      <point x="458" y="980"/>
      <point x="438" y="941" type="curve" smooth="yes"/>
      <point x="9" y="102" type="line" smooth="yes"/>
      <point x="-13" y="59"/>
      <point x="8" y="13"/>
      <point x="56" y="-1" type="curve" smooth="yes"/>
      <point x="104" y="-15"/>
      <point x="160" y="8"/>
      <point x="182" y="51" type="curve" smooth="yes"/>
      <point x="275" y="232" type="line"/>
      <point x="624" y="232" type="line"/>
    </contour>
    <contour>
      <point x="537" y="1342" type="line" smooth="yes"/>
      <point x="518" y="1366"/>
      <point x="486" y="1373"/>
      <point x="450" y="1360" type="curve" smooth="yes"/>
      <point x="415" y="1346"/>
      <point x="386" y="1317"/>
      <point x="375" y="1281" type="curve" smooth="yes"/>
      <point x="363" y="1245"/>
      <point x="372" y="1214"/>
      <point x="398" y="1197" type="curve" smooth="yes"/>
      <point x="555" y="1095" type="line" smooth="yes"/>
      <point x="578" y="1080"/>
      <point x="612" y="1088"/>
      <point x="636" y="1113" type="curve" smooth="yes"/>
      <point x="660" y="1138"/>
      <point x="666" y="1172"/>
      <point x="650" y="1193" type="curve" smooth="yes"/>
    </contour>
  </outline>
</glyph>
<glyph name="Aacute" format="1">
  <advance width="994"/>
  <unicode hex="00C1"/>
  <outline>
    <contour>
      <point x="365" y="408" type="line"/>
      <point x="509" y="688" type="line"/>
      <point x="580" y="408" type="line"/>
    </contour>
    <contour>
      <point x="669" y="51" type="line" smooth="yes"/>
      <point x="680" y="8"/>
      <point x="731" y="-15"/>
      <point x="783" y="-1" type="curve" smooth="yes"/>
      <point x="834" y="13"/>
      <point x="867" y="59"/>
      <point x="857" y="102" type="curve" smooth="yes"/>
      <point x="645" y="941" type="line" smooth="yes"/>
      <point x="635" y="980"/>
      <point x="598" y="1005"/>
      <point x="550" y="1005" type="curve" smooth="yes"/>
      <point x="502" y="1005"/>
      <point x="458" y="980"/>
      <point x="438" y="941" type="curve" smooth="yes"/>
      <point x="9" y="102" type="line" smooth="yes"/>
      <point x="-13" y="59"/>
      <point x="8" y="13"/>
      <point x="56" y="-1" type="curve" smooth="yes"/>
      <point x="104" y="-15"/>
      <point x="160" y="8"/>
      <point x="182" y="51" type="curve" smooth="yes"/>
      <point x="275" y="232" type="line"/>
      <point x="624" y="232" type="line"/>
    </contour>
    <contour>
      <point x="651" y="1342" type="curve" smooth="yes"/>
      <point x="499" y="1193" type="line" smooth="yes"/>
      <point x="477" y="1172"/>
      <point x="475" y="1138"/>
      <point x="492" y="1113" type="curve" smooth="yes"/>
      <point x="510" y="1088"/>
      <point x="542" y="1080"/>
      <point x="568" y="1095" type="curve" smooth="yes"/>
      <point x="752" y="1197" type="line" smooth="yes"/>
      <point x="782" y="1214"/>
      <point x="799" y="1245"/>
      <point x="797" y="1281" type="curve" smooth="yes"/>
      <point x="795" y="1317"/>
      <point x="774" y="1346"/>
      <point x="742" y="1360" type="curve" smooth="yes"/>
      <point x="710" y="1373"/>
      <point x="676" y="1366"/>
    </contour>
  </outline>
</glyph>
<glyph name="Acircumflex" format="1">
  <advance width="994"/>
  <unicode hex="00C2"/>
  <outline>
    <contour>
      <point x="365" y="408" type="line"/>
      <point x="509" y="688" type="line"/>
      <point x="580" y="408" type="line"/>
    </contour>
    <contour>
      <point x="669" y="51" type="line" smooth="yes"/>
      <point x="680" y="8"/>
      <point x="731" y="-15"/>
      <point x="783" y="-1" type="curve" smooth="yes"/>
      <point x="834" y="13"/>
      <point x="867" y="59"/>
      <point x="857" y="102" type="curve" smooth="yes"/>
      <point x="645" y="941" type="line" smooth="yes"/>
      <point x="635" y="980"/>
      <point x="598" y="1005"/>
      <point x="550" y="1005" type="curve" smooth="yes"/>
      <point x="502" y="1005"/>
      <point x="458" y="980"/>
      <point x="438" y="941" type="curve" smooth="yes"/>
      <point x="9" y="102" type="line" smooth="yes"/>
      <point x="-13" y="59"/>
      <point x="8" y="13"/>
      <point x="56" y="-1" type="curve" smooth="yes"/>
      <point x="104" y="-15"/>
      <point x="160" y="8"/>
      <point x="182" y="51" type="curve" smooth="yes"/>
      <point x="275" y="232" type="line"/>
      <point x="624" y="232" type="line"/>
    </contour>
    <contour>
      <point x="223" y="1224" type="line" smooth="yes"/>
      <point x="209" y="1209"/>
      <point x="201" y="1189"/>
      <point x="202" y="1166" type="curve" smooth="yes"/>
      <point x="204" y="1118"/>
      <point x="244" y="1078"/>
      <point x="292" y="1076" type="curve" smooth="yes"/>
      <point x="317" y="1075"/>
      <point x="339" y="1085"/>
      <point x="355" y="1101" type="curve" smooth="yes"/>
      <point x="427" y="1180" type="line"/>
      <point x="499" y="1101" type="line" smooth="yes"/>
      <point x="515" y="1085"/>
      <point x="537" y="1075"/>
      <point x="562" y="1076" type="curve" smooth="yes"/>
      <point x="610" y="1078"/>
      <point x="650" y="1118"/>
      <point x="652" y="1166" type="curve" smooth="yes"/>
      <point x="653" y="1189"/>
      <point x="645" y="1209"/>
      <point x="631" y="1224" type="curve" smooth="yes"/>
      <point x="513" y="1352" type="line" smooth="yes"/>
      <point x="493" y="1374"/>
      <point x="462" y="1388"/>
      <point x="427" y="1388" type="curve" smooth="yes"/>
      <point x="392" y="1388"/>
      <point x="361" y="1374"/>
      <point x="341" y="1352" type="curve" smooth="yes"/>
    </contour>
  </outline>
</glyph>
<glyph name="Atilde" format="1">
  <advance width="994"/>
  <unicode hex="00C3"/>
  <outline>
    <contour>
      <point x="365" y="408" type="line"/>
      <point x="509" y="688" type="line"/>
      <point x="580" y="408" type="line"/>
    </contour>
    <contour>
      <point x="669" y="51" type="line" smooth="yes"/>
      <point x="680" y="8"/>
      <point x="731" y="-15"/>
      <point x="783" y="-1" type="curve" smooth="yes"/>
      <point x="834" y="13"/>
      <point x="867" y="59"/>
      <point x="857" y="102" type="curve" smooth="yes"/>
      <point x="645" y="941" type="line" smooth="yes"/>
      <point x="635" y="980"/>
      <point x="598" y="1005"/>
      <point x="550" y="1005" type="curve" smooth="yes"/>
      <point x="502" y="1005"/>
      <point x="458" y="980"/>
      <point x="438" y="941" type="curve" smooth="yes"/>
      <point x="9" y="102" type="line" smooth="yes"/>
      <point x="-13" y="59"/>
      <point x="8" y="13"/>
      <point x="56" y="-1" type="curve" smooth="yes"/>
      <point x="104" y="-15"/>
      <point x="160" y="8"/>
      <point x="182" y="51" type="curve" smooth="yes"/>
      <point x="275" y="232" type="line"/>
      <point x="624" y="232" type="line"/>
    </contour>
    <contour>
      <point x="463" y="1133" type="curve" smooth="yes"/>
      <point x="485" y="1165"/>
      <point x="521" y="1130"/>
      <point x="532" y="1124" type="curve" smooth="yes"/>
      <point x="605" y="1080"/>
      <point x="722" y="1080"/>
      <point x="785" y="1173" type="curve" smooth="yes"/>
      <point x="798" y="1192"/>
      <point x="799" y="1213"/>
      <point x="789" y="1232" type="curve" smooth="yes"/>
      <point x="779" y="1250"/>
      <point x="760" y="1261"/>
      <point x="738" y="1262" type="curve" smooth="yes"/>
      <point x="715" y="1262"/>
      <point x="695" y="1252"/>
      <point x="683" y="1234" type="curve" smooth="yes"/>
      <point x="661" y="1202"/>
      <point x="625" y="1237"/>
      <point x="614" y="1244" type="curve" smooth="yes"/>
      <point x="541" y="1287"/>
      <point x="424" y="1287"/>
      <point x="361" y="1194" type="curve" smooth="yes"/>
      <point x="342" y="1166"/>
      <point x="350" y="1130"/>
      <point x="378" y="1114" type="curve" smooth="yes"/>
      <point x="406" y="1097"/>
      <point x="445" y="1106"/>
    </contour>
  </outline>
</glyph>
<glyph name="Adieresis" format="1">
  <advance width="994"/>
  <unicode hex="00C4"/>
  <outline>
    <contour>
      <point x="365" y="408" type="line"/>
      <point x="509" y="688" type="line"/>
      <point x="580" y="408" type="line"/>
    </contour>
    <contour>
      <point x="669" y="51" type="line" smooth="yes"/>
      <point x="680" y="8"/>
      <point x="731" y="-15"/>
      <point x="783" y="-1" type="curve" smooth="yes"/>
      <point x="834" y="13"/>
      <point x="867" y="59"/>
      <point x="857" y="102" type="curve" smooth="yes"/>
      <point x="645" y="941" type="line" smooth="yes"/>
      <point x="635" y="980"/>
      <point x="598" y="1005"/>
      <point x="550" y="1005" type="curve" smooth="yes"/>
      <point x="502" y="1005"/>
      <point x="458" y="980"/>
      <point x="438" y="941" type="curve" smooth="yes"/>
      <point x="9" y="102" type="line" smooth="yes"/>
      <point x="-13" y="59"/>
      <point x="8" y="13"/>
      <point x="56" y="-1" type="curve" smooth="yes"/>
      <point x="104" y="-15"/>
      <point x="160" y="8"/>
      <point x="182" y="51" type="curve" smooth="yes"/>
      <point x="275" y="232" type="line"/>
      <point x="624" y="232" type="line"/>
    </contour>
    <contour>
      <point x="494" y="1174" type="line"/>
      <point x="499" y="1219"/>
      <point x="462" y="1256"/>
      <point x="409" y="1256" type="curve" smooth="yes"/>
      <point x="357" y="1256"/>
      <point x="309" y="1219"/>
      <point x="304" y="1174" type="curve"/>
      <point x="302" y="1162" type="line" smooth="yes"/>
      <point x="296" y="1117"/>
      <point x="334" y="1080"/>
      <point x="386" y="1080" type="curve" smooth="yes"/>
      <point x="439" y="1080"/>
      <point x="486" y="1117"/>
      <point x="492" y="1162" type="curve" smooth="yes"/>
    </contour>
    <contour>
      <point x="840" y="1174" type="line" smooth="yes"/>
      <point x="846" y="1219"/>
      <point x="808" y="1256"/>
      <point x="756" y="1256" type="curve" smooth="yes"/>
      <point x="704" y="1256"/>
      <point x="656" y="1219"/>
      <point x="650" y="1174" type="curve" smooth="yes"/>
      <point x="649" y="1162" type="line" smooth="yes"/>
      <point x="643" y="1117"/>
      <point x="681" y="1080"/>
      <point x="733" y="1080" type="curve" smooth="yes"/>
      <point x="786" y="1080"/>
      <point x="833" y="1117"/>
      <point x="839" y="1162" type="curve" smooth="yes"/>
    </contour>
  </outline>
</glyph>
<glyph name="Aring" format="1">
  <advance width="994"/>
  <unicode hex="00C5"/>
  <outline>
    <contour>
      <point x="365" y="408" type="line"/>
      <point x="509" y="688" type="line"/>
      <point x="580" y="408" type="line"/>
    </contour>
    <contour>
      <point x="669" y="51" type="line" smooth="yes"/>
      <point x="680" y="8"/>
      <point x="731" y="-15"/>
      <point x="783" y="-1" type="curve" smooth="yes"/>
      <point x="834" y="13"/>
      <point x="867" y="59"/>
      <point x="857" y="102" type="curve" smooth="yes"/>
      <point x="645" y="941" type="line" smooth="yes"/>
      <point x="635" y="980"/>
      <point x="598" y="1005"/>
      <point x="550" y="1005" type="curve" smooth="yes"/>
      <point x="502" y="1005"/>
      <point x="458" y="980"/>
      <point x="438" y="941" type="curve" smooth="yes"/>
      <point x="9" y="102" type="line" smooth="yes"/>
      <point x="-13" y="59"/>
      <point x="8" y="13"/>
      <point x="56" y="-1" type="curve" smooth="yes"/>
      <point x="104" y="-15"/>
      <point x="160" y="8"/>
      <point x="182" y="51" type="curve" smooth="yes"/>
      <point x="275" y="232" type="line"/>
      <point x="624" y="232" type="line"/>
    </contour>
    <contour>
      <point x="348" y="1286" type="curve" smooth="yes"/>
      <point x="348" y="1330"/>
      <point x="383" y="1365"/>
      <point x="427" y="1365" type="curve" smooth="yes"/>
      <point x="471" y="1365"/>
      <point x="506" y="1330"/>
      <point x="506" y="1286" type="curve" smooth="yes"/>
      <point x="506" y="1242"/>
      <point x="471" y="1207"/>
      <point x="427" y="1207" type="curve" smooth="yes"/>
      <point x="383" y="1207"/>
      <point x="348" y="1242"/>
    </contour>
    <contour>
      <point x="199" y="1286" type="curve" smooth="yes"/>
      <point x="199" y="1169"/>
      <point x="301" y="1075"/>
      <point x="427" y="1075" type="curve" smooth="yes"/>
      <point x="553" y="1075"/>
      <point x="655" y="1169"/>
      <point x="655" y="1286" type="curve" smooth="yes"/>
      <point x="655" y="1402"/>
      <point x="553" y="1497"/>
      <point x="427" y="1497" type="curve" smooth="yes"/>
      <point x="301" y="1497"/>
      <point x="199" y="1402"/>
    </contour>
  </outline>
</glyph>
<glyph name="Egrave" format="1">
  <advance width="870"/>
  <unicode hex="00C8"/>
  <outline>
    <contour>
      <point x="527" y="0" type="line" smooth="yes"/>
      <point x="576" y="0"/>
      <point x="621" y="39"/>
      <point x="627" y="88" type="curve" smooth="yes"/>
      <point x="633" y="136"/>
      <point x="599" y="176"/>
      <point x="550" y="176" type="curve" smooth="yes"/>
      <point x="201" y="176" type="line"/>
      <point x="233" y="422" type="line"/>
      <point x="460" y="422" type="line" smooth="yes"/>
      <point x="509" y="422"/>
      <point x="554" y="461"/>
      <point x="560" y="510" type="curve" smooth="yes"/>
      <point x="567" y="559"/>
      <point x="532" y="598"/>
      <point x="483" y="598" type="curve" smooth="yes"/>
      <point x="256" y="598" type="line"/>
      <point x="286" y="824" type="line"/>
      <point x="634" y="824" type="line" smooth="yes"/>
      <point x="683" y="824"/>
      <point x="728" y="864"/>
      <point x="734" y="912" type="curve" smooth="yes"/>
      <point x="741" y="961"/>
      <point x="706" y="1000"/>
      <point x="657" y="1000" type="curve" smooth="yes"/>
      <point x="228" y="1000" type="line" smooth="yes"/>
      <point x="167" y="1000"/>
      <point x="113" y="958"/>
      <point x="106" y="906" type="curve" smooth="yes"/>
      <point x="1" y="94" type="line" smooth="yes"/>
      <point x="-6" y="42"/>
      <point x="37" y="0"/>
      <point x="98" y="0" type="curve" smooth="yes"/>
    </contour>
    <contour>
      <point x="419" y="1337" type="line" smooth="yes"/>
      <point x="400" y="1361"/>
      <point x="368" y="1368"/>
      <point x="332" y="1354" type="curve" smooth="yes"/>
      <point x="297" y="1341"/>
      <point x="268" y="1312"/>
      <point x="257" y="1276" type="curve" smooth="yes"/>
      <point x="245" y="1240"/>
      <point x="254" y="1208"/>
      <point x="280" y="1192" type="curve" smooth="yes"/>
      <point x="437" y="1090" type="line" smooth="yes"/>
      <point x="460" y="1075"/>
      <point x="494" y="1083"/>
      <point x="518" y="1108" type="curve" smooth="yes"/>
      <point x="542" y="1133"/>
      <point x="548" y="1167"/>
      <point x="532" y="1188" type="curve" smooth="yes"/>
    </contour>
  </outline>
</glyph>
<glyph name="Eacute" format="1">
  <advance width="870"/>
  <unicode hex="00C9"/>
  <outline>
    <contour>
      <point x="527" y="0" type="line" smooth="yes"/>
      <point x="576" y="0"/>
      <point x="621" y="39"/>
      <point x="627" y="88" type="curve" smooth="yes"/>
      <point x="633" y="136"/>
      <point x="599" y="176"/>
      <point x="550" y="176" type="curve" smooth="yes"/>
      <point x="201" y="176" type="line"/>
      <point x="233" y="422" type="line"/>
      <point x="460" y="422" type="line" smooth="yes"/>
      <point x="509" y="422"/>
      <point x="554" y="461"/>
      <point x="560" y="510" type="curve" smooth="yes"/>
      <point x="567" y="559"/>
      <point x="532" y="598"/>
      <point x="483" y="598" type="curve" smooth="yes"/>
      <point x="256" y="598" type="line"/>
      <point x="286" y="824" type="line"/>
      <point x="634" y="824" type="line" smooth="yes"/>
      <point x="683" y="824"/>
      <point x="728" y="864"/>
      <point x="734" y="912" type="curve" smooth="yes"/>
      <point x="741" y="961"/>
      <point x="706" y="1000"/>
      <point x="657" y="1000" type="curve" smooth="yes"/>
      <point x="228" y="1000" type="line" smooth="yes"/>
      <point x="167" y="1000"/>
      <point x="113" y="958"/>
      <point x="106" y="906" type="curve" smooth="yes"/>
      <point x="1" y="94" type="line" smooth="yes"/>
      <point x="-6" y="42"/>
      <point x="37" y="0"/>
      <point x="98" y="0" type="curve" smooth="yes"/>
    </contour>
    <contour>
      <point x="424" y="1337" type="curve" smooth="yes"/>
      <point x="292" y="1188" type="line" smooth="yes"/>
      <point x="273" y="1167"/>
      <point x="274" y="1133"/>
      <point x="295" y="1108" type="curve" smooth="yes"/>
      <point x="316" y="1083"/>
      <point x="349" y="1075"/>
      <point x="373" y="1090" type="curve" smooth="yes"/>
      <point x="544" y="1192" type="line" smooth="yes"/>
      <point x="572" y="1208"/>
      <point x="585" y="1240"/>
      <point x="578" y="1276" type="curve" smooth="yes"/>
      <point x="571" y="1312"/>
      <point x="547" y="1341"/>
      <point x="513" y="1354" type="curve" smooth="yes"/>
      <point x="479" y="1368"/>
      <point x="446" y="1361"/>
    </contour>
  </outline>
</glyph>
<glyph name="Ecircumflex" format="1">
  <advance width="870"/>
  <unicode hex="00CA"/>
  <outline>
    <contour>
      <point x="527" y="0" type="line" smooth="yes"/>
      <point x="576" y="0"/>
      <point x="621" y="39"/>
      <point x="627" y="88" type="curve" smooth="yes"/>
      <point x="633" y="136"/>
      <point x="599" y="176"/>
      <point x="550" y="176" type="curve" smooth="yes"/>
      <point x="201" y="176" type="line"/>
      <point x="233" y="422" type="line"/>
      <point x="460" y="422" type="line" smooth="yes"/>
      <point x="509" y="422"/>
      <point x="554" y="461"/>
      <point x="560" y="510" type="curve" smooth="yes"/>
      <point x="567" y="559"/>
      <point x="532" y="598"/>
      <point x="483" y="598" type="curve" smooth="yes"/>
      <point x="256" y="598" type="line"/>
      <point x="286" y="824" type="line"/>
      <point x="634" y="824" type="line" smooth="yes"/>
      <point x="683" y="824"/>
      <point x="728" y="864"/>
      <point x="734" y="912" type="curve" smooth="yes"/>
      <point x="741" y="961"/>
      <point x="706" y="1000"/>
      <point x="657" y="1000" type="curve" smooth="yes"/>
      <point x="228" y="1000" type="line" smooth="yes"/>
      <point x="167" y="1000"/>
      <point x="113" y="958"/>
      <point x="106" y="906" type="curve" smooth="yes"/>
      <point x="1" y="94" type="line" smooth="yes"/>
      <point x="-6" y="42"/>
      <point x="37" y="0"/>
      <point x="98" y="0" type="curve" smooth="yes"/>
    </contour>
    <contour>
      <point x="163" y="1224" type="line" smooth="yes"/>
      <point x="149" y="1209"/>
      <point x="141" y="1189"/>
      <point x="142" y="1166" type="curve" smooth="yes"/>
      <point x="144" y="1118"/>
      <point x="184" y="1078"/>
      <point x="232" y="1076" type="curve" smooth="yes"/>
      <point x="257" y="1075"/>
      <point x="280" y="1085"/>
      <point x="295" y="1101" type="curve" smooth="yes"/>
      <point x="367" y="1180" type="line"/>
      <point x="440" y="1101" type="line" smooth="yes"/>
      <point x="455" y="1085"/>
      <point x="477" y="1075"/>
      <point x="502" y="1076" type="curve" smooth="yes"/>
      <point x="550" y="1078"/>
      <point x="591" y="1118"/>
      <point x="592" y="1166" type="curve" smooth="yes"/>
      <point x="593" y="1189"/>
      <point x="585" y="1209"/>
      <point x="571" y="1224" type="curve" smooth="yes"/>
      <point x="453" y="1352" type="line" smooth="yes"/>
      <point x="433" y="1374"/>
      <point x="402" y="1388"/>
      <point x="367" y="1388" type="curve" smooth="yes"/>
      <point x="333" y="1388"/>
      <point x="302" y="1374"/>
      <point x="282" y="1352" type="curve" smooth="yes"/>
    </contour>
  </outline>
</glyph>
